<svg width="335" height="163" viewBox="0 0 335 163" fill="none" xmlns="http://www.w3.org/2000/svg">
<rect x="0.5" y="0.5" width="334" height="162" rx="11.5" fill="#F2F6FD"/>
<rect x="0.5" y="0.5" width="334" height="162" rx="11.5" stroke="#D4DFF5"/>
<path d="M40.0762 37.4209C48.8672 28.8602 63.1328 28.8602 71.9238 37.4209C80.6922 45.9599 80.6923 59.7833 71.9238 68.3223L59.1973 80.7148C57.4927 82.3748 54.7463 82.4263 52.9766 80.8701L52.8076 80.7148L40.0762 68.3223C31.3077 59.7833 31.3078 45.9599 40.0762 37.4209ZM56 42.6084C50.2429 42.6084 45.5021 47.169 45.502 52.8711C45.502 58.5727 50.2368 63.1338 56 63.1338C61.7572 63.1338 66.498 58.5733 66.498 52.8711C66.4979 47.169 61.7571 42.6084 56 42.6084Z" stroke="#1D60E7" stroke-width="3"/>
<path d="M120.973 40.5381H119.021V24.6738H120.973V40.5381ZM123.328 32.5049H120.472V30.8877H123.328V32.5049ZM116.78 26.335C116.78 27.9521 116.537 29.458 116.051 30.8525C115.57 32.2412 114.794 33.5186 113.722 34.6846C112.649 35.8447 111.261 36.8496 109.556 37.6992L108.457 36.1875C109.893 35.4609 111.082 34.6318 112.025 33.7002C112.975 32.7686 113.684 31.7227 114.152 30.5625C114.621 29.3965 114.855 28.1016 114.855 26.6777V26.335H116.78ZM115.849 27.9434H109.283V26.335H115.849V27.9434ZM136.488 40.5469H134.519V24.6738H136.488V40.5469ZM138.685 32.6279H135.864V31.0107H138.685V32.6279ZM128.578 26.3438C128.578 27.8906 128.481 29.2676 128.288 30.4746C128.1 31.6758 127.754 32.8359 127.251 33.9551C126.747 35.0684 126.038 36.123 125.124 37.1191L123.585 36.0117C124.412 35.1328 125.053 34.2158 125.51 33.2607C125.973 32.3057 126.295 31.3037 126.477 30.2549C126.659 29.2002 126.75 27.9756 126.75 26.5811V26.3438H128.578ZM127.479 27.9434H124.218V26.3438H127.479V27.9434ZM132.972 26.3438C132.972 27.9785 132.887 29.4521 132.717 30.7646C132.547 32.0771 132.219 33.3633 131.733 34.623C131.247 35.877 130.552 37.0518 129.65 38.1475L128.094 37.0576C128.915 36.0674 129.547 35.0303 129.993 33.9463C130.438 32.8564 130.74 31.7227 130.898 30.5449C131.062 29.3672 131.144 28.0342 131.144 26.5459V26.3438H132.972ZM131.935 27.9434H129.105V26.3438H131.935V27.9434ZM153.611 34.0869H139.092V32.5225H153.611V34.0869ZM147.459 37.0137H145.481V33.542H147.459V37.0137ZM152.003 40.2656H140.858V38.6484H152.003V40.2656ZM142.836 39.0879H140.858V35.5371H142.836V39.0879ZM146.343 25.0166C147.48 25.0166 148.476 25.1514 149.331 25.4209C150.187 25.6904 150.849 26.0684 151.317 26.5547C151.792 27.041 152.029 27.6152 152.029 28.2773C152.029 28.9336 151.792 29.5049 151.317 29.9912C150.849 30.4775 150.187 30.8525 149.331 31.1162C148.476 31.3799 147.48 31.5117 146.343 31.5117C145.206 31.5117 144.207 31.3799 143.346 31.1162C142.484 30.8525 141.816 30.4775 141.342 29.9912C140.867 29.5049 140.63 28.9336 140.63 28.2773C140.63 27.6152 140.867 27.041 141.342 26.5547C141.816 26.0684 142.484 25.6904 143.346 25.4209C144.207 25.1514 145.206 25.0166 146.343 25.0166ZM146.343 26.5723C145.616 26.5723 144.981 26.6396 144.436 26.7744C143.891 26.9033 143.472 27.0967 143.179 27.3545C142.886 27.6123 142.739 27.9199 142.739 28.2773C142.739 28.623 142.886 28.9219 143.179 29.1738C143.472 29.4199 143.891 29.6104 144.436 29.7451C144.981 29.874 145.616 29.9385 146.343 29.9385C147.075 29.9385 147.711 29.874 148.25 29.7451C148.789 29.6104 149.202 29.4199 149.489 29.1738C149.782 28.9219 149.929 28.623 149.929 28.2773C149.929 27.9199 149.782 27.6123 149.489 27.3545C149.202 27.0967 148.789 26.9033 148.25 26.7744C147.711 26.6396 147.075 26.5723 146.343 26.5723ZM171.704 40.5469H169.762V24.6738H171.704V40.5469ZM170.676 32.4785H166.396V30.8789H170.676V32.4785ZM166.466 26.3613C166.466 28.0195 166.243 29.5312 165.798 30.8965C165.358 32.2559 164.611 33.5127 163.557 34.667C162.502 35.8154 161.093 36.8291 159.329 37.708L158.31 36.1699C159.81 35.4316 161.017 34.5967 161.931 33.665C162.851 32.7334 163.516 31.6963 163.926 30.5537C164.342 29.4053 164.55 28.1191 164.55 26.6953V26.3613H166.466ZM165.569 27.9082H159.039V26.3613H165.569V27.9082ZM186.929 40.5908H184.987V24.6738H186.929V40.5908ZM175.961 35.2119C177.443 35.2178 178.788 35.1797 179.995 35.0977C181.208 35.0156 182.45 34.8721 183.721 34.667L183.897 36.2666C182.631 36.4834 181.383 36.6328 180.153 36.7148C178.928 36.791 177.531 36.8291 175.961 36.8291H174.572V35.2119H175.961ZM182.043 32.0127H176.585V35.8184H174.572V30.4658H180.056V27.6445H174.554V26.0537H182.043V32.0127Z" fill="#1D60E7"/>
<path d="M200.821 25.8428C200.821 26.7744 200.537 27.6357 199.968 28.4268C199.406 29.2178 198.644 29.877 197.683 30.4043C196.722 30.9316 195.665 31.292 194.51 31.4854L193.878 30.1758C194.874 30.0234 195.791 29.7334 196.629 29.3057C197.472 28.8721 198.14 28.3535 198.632 27.75C199.131 27.1406 199.38 26.5049 199.38 25.8428V25.1396H200.821V25.8428ZM201.093 25.8428C201.093 26.4873 201.342 27.1113 201.84 27.7148C202.344 28.3184 203.018 28.8398 203.862 29.2793C204.712 29.7129 205.626 30 206.604 30.1406L205.954 31.459C204.799 31.2656 203.742 30.9053 202.781 30.3779C201.826 29.8447 201.064 29.1855 200.496 28.4004C199.933 27.6094 199.652 26.7568 199.652 25.8428V25.1396H201.093V25.8428ZM207.448 34.0254H193.034V32.6631H207.448V34.0254ZM201.208 37.0752H199.555V33.5156H201.208V37.0752ZM205.848 40.1777H194.827V38.7979H205.848V40.1777ZM196.497 39.2461H194.827V35.5986H196.497V39.2461ZM215.519 25.6934C216.62 25.6934 217.611 25.8779 218.489 26.2471C219.374 26.6104 220.069 27.126 220.572 27.7939C221.076 28.4561 221.328 29.2178 221.328 30.0791C221.328 30.9463 221.076 31.7168 220.572 32.3906C220.069 33.0586 219.374 33.5742 218.489 33.9375C217.611 34.2949 216.62 34.4736 215.519 34.4736C214.423 34.4736 213.433 34.2949 212.548 33.9375C211.669 33.5742 210.975 33.0586 210.465 32.3906C209.955 31.7168 209.7 30.9463 209.7 30.0791C209.7 29.2178 209.955 28.4531 210.465 27.7852C210.975 27.1172 211.669 26.6016 212.548 26.2383C213.433 25.875 214.423 25.6934 215.519 25.6934ZM215.519 27.0469C214.716 27.0352 213.995 27.1582 213.357 27.416C212.718 27.668 212.217 28.0283 211.854 28.4971C211.49 28.96 211.309 29.4873 211.309 30.0791C211.309 30.6826 211.49 31.2158 211.854 31.6787C212.217 32.1357 212.718 32.4902 213.357 32.7422C213.995 32.9941 214.716 33.1201 215.519 33.1201C216.316 33.1201 217.03 32.9941 217.663 32.7422C218.296 32.4902 218.794 32.1357 219.157 31.6787C219.521 31.2158 219.702 30.6826 219.702 30.0791C219.702 29.4873 219.521 28.96 219.157 28.4971C218.794 28.0283 218.296 27.668 217.663 27.416C217.03 27.1582 216.316 27.0352 215.519 27.0469ZM222.752 38.4551H208.338V37.084H222.752V38.4551ZM238.039 38.6045H223.625V37.2246H238.039V38.6045ZM231.614 37.8135H229.979V33.9727H231.614V37.8135ZM236.272 30.7734H227.044V33.7969H225.382V29.4375H234.629V27.2227H225.356V25.8604H236.272V30.7734ZM236.641 34.4473H225.382V33.0762H236.641V34.4473ZM114.064 53.7432C114.064 54.9854 113.874 56.1748 113.493 57.3115C113.112 58.4424 112.579 59.4414 111.894 60.3086C111.208 61.1699 110.408 61.8232 109.494 62.2686L108.448 60.8711C109.269 60.502 109.998 59.9512 110.637 59.2188C111.281 58.4805 111.782 57.6338 112.14 56.6787C112.503 55.7178 112.685 54.7393 112.685 53.7432V51.0449H114.064V53.7432ZM114.363 53.7432C114.363 54.6982 114.539 55.6328 114.891 56.5469C115.248 57.4609 115.743 58.2754 116.376 58.9902C117.015 59.7051 117.732 60.2412 118.529 60.5986L117.527 61.9258C116.643 61.5039 115.852 60.877 115.154 60.0449C114.463 59.2129 113.927 58.252 113.546 57.1621C113.165 56.0723 112.975 54.9326 112.975 53.7432V51.0449H114.363V53.7432ZM121.632 65.5293H119.953V49.7354H121.632V65.5293ZM136.936 65.4854H135.284V49.7354H136.936V65.4854ZM126.477 61.0381H124.834V51.2734H126.477V61.0381ZM126.152 60.0537C127.417 60.0537 128.68 59.998 129.94 59.8867C131.206 59.7695 132.471 59.5791 133.737 59.3154L133.957 60.7217C132.632 60.9912 131.332 61.1875 130.054 61.3105C128.783 61.4277 127.482 61.4863 126.152 61.4863H124.834V60.0537H126.152ZM143.425 50.9219C144.198 50.9219 144.884 51.1504 145.481 51.6074C146.085 52.0645 146.557 52.709 146.897 53.541C147.236 54.373 147.406 55.3428 147.406 56.4502C147.406 57.5635 147.236 58.5361 146.897 59.3682C146.557 60.2002 146.085 60.8447 145.481 61.3018C144.884 61.7529 144.198 61.9785 143.425 61.9785C142.651 61.9785 141.96 61.7529 141.351 61.3018C140.747 60.8506 140.275 60.209 139.936 59.377C139.596 58.5391 139.426 57.5635 139.426 56.4502C139.426 55.3428 139.596 54.373 139.936 53.541C140.275 52.709 140.747 52.0645 141.351 51.6074C141.96 51.1504 142.651 50.9219 143.425 50.9219ZM143.425 52.416C142.956 52.416 142.537 52.5801 142.168 52.9082C141.799 53.2363 141.515 53.7051 141.315 54.3145C141.122 54.918 141.025 55.6299 141.025 56.4502C141.025 57.2646 141.122 57.9766 141.315 58.5859C141.515 59.1953 141.799 59.6641 142.168 59.9922C142.537 60.3145 142.956 60.4756 143.425 60.4756C143.894 60.4756 144.313 60.3145 144.682 59.9922C145.051 59.6641 145.335 59.1953 145.534 58.5859C145.733 57.9766 145.833 57.2646 145.833 56.4502C145.833 55.6299 145.731 54.918 145.525 54.3145C145.326 53.7051 145.045 53.2363 144.682 52.9082C144.324 52.5801 143.905 52.416 143.425 52.416ZM152.293 65.5293H150.632V49.7354H152.293V65.5293ZM151.361 57.0127H146.879V55.6504H151.361V57.0127ZM168.836 58.252H154.422V56.9688H168.836V58.252ZM167.061 62.8223H157.815V64.5273H156.145V61.7148H165.409V60.5547H156.127V59.3418H167.061V62.8223ZM167.553 65.3008H156.145V64.123H167.553V65.3008ZM167.017 53.5586H157.929V55.1494H156.277V52.4512H165.347V51.3262H156.233V50.1484H167.017V53.5586ZM167.298 55.9316H156.277V54.7627H167.298V55.9316ZM181.999 50.7285C181.999 52.0469 181.706 53.2422 181.12 54.3145C180.534 55.3809 179.696 56.2979 178.606 57.0654C177.516 57.833 176.207 58.4336 174.677 58.8672L174.001 57.5576C175.313 57.1943 176.435 56.7139 177.367 56.1162C178.298 55.5127 179.013 54.8184 179.511 54.0332C180.009 53.248 180.258 52.3984 180.258 51.4844V50.7285H181.999ZM181.375 52.082H174.827V50.7285H181.375V52.082ZM186.982 58.6738H185.312V49.7529H186.982V58.6738ZM185.585 55.0879H182.051V53.708H185.585V55.0879ZM186.982 65.2832H176.69V59.3418H186.982V65.2832ZM178.307 63.9473H185.33V60.6602H178.307V63.9473ZM193.664 52.7061C193.664 53.5439 193.521 54.3613 193.234 55.1582C192.946 55.9551 192.525 56.6699 191.968 57.3027C191.417 57.9297 190.752 58.4102 189.973 58.7441L189.076 57.4609C189.762 57.1621 190.351 56.7549 190.843 56.2393C191.335 55.7178 191.707 55.1523 191.959 54.543C192.217 53.9277 192.346 53.3154 192.346 52.7061V50.6934H193.664V52.7061ZM193.945 52.7061C193.945 53.2979 194.066 53.8809 194.306 54.4551C194.552 55.0234 194.909 55.5361 195.378 55.9932C195.847 56.4443 196.415 56.8018 197.083 57.0654L196.187 58.3486C195.431 58.0381 194.786 57.5957 194.253 57.0215C193.72 56.4473 193.316 55.791 193.04 55.0527C192.771 54.3086 192.636 53.5264 192.636 52.7061V50.6934H193.945V52.7061ZM202.567 59.2803H200.977V49.7529H202.567V59.2803ZM201.46 55.1582H198.595V53.7695H201.46V55.1582ZM199.149 59.1924H197.593V50.0254H199.149V59.1924ZM202.567 65.4854H200.924V61.4512H191.862V60.0889H202.567V65.4854ZM216.799 58.3486H215.138V49.6914H216.799V58.3486ZM219.111 54.7363H216.096V53.3828H219.111V54.7363ZM216.799 62.752H208.292V64.5273H206.648V61.5654H215.138V60.3262H206.622V59.1045H216.799V62.752ZM217.344 65.3359H206.648V64.0791H217.344V65.3359ZM213.82 52.3896H204.442V51.0889H213.82V52.3896ZM209.135 52.9873C209.897 52.9873 210.568 53.0928 211.148 53.3037C211.728 53.5088 212.173 53.8076 212.484 54.2002C212.8 54.5869 212.959 55.0439 212.959 55.5713C212.959 56.0928 212.8 56.5498 212.484 56.9424C212.173 57.3291 211.728 57.6279 211.148 57.8389C210.574 58.0498 209.903 58.1553 209.135 58.1553C208.374 58.1553 207.7 58.0498 207.114 57.8389C206.534 57.6279 206.086 57.3291 205.769 56.9424C205.459 56.5498 205.303 56.0928 205.303 55.5713C205.303 55.0439 205.459 54.5869 205.769 54.2002C206.086 53.8076 206.534 53.5088 207.114 53.3037C207.7 53.0928 208.374 52.9873 209.135 52.9873ZM209.135 54.1914C208.696 54.1914 208.306 54.25 207.966 54.3672C207.627 54.4785 207.366 54.6396 207.184 54.8506C207.003 55.0557 206.912 55.2959 206.912 55.5713C206.912 55.8467 207.003 56.0898 207.184 56.3008C207.366 56.5059 207.624 56.6641 207.958 56.7754C208.292 56.8809 208.684 56.9336 209.135 56.9336C209.592 56.9336 209.988 56.8809 210.322 56.7754C210.656 56.6641 210.917 56.5059 211.104 56.3008C211.292 56.0898 211.385 55.8467 211.385 55.5713C211.385 55.2842 211.292 55.041 211.104 54.8418C210.917 54.6367 210.653 54.4785 210.313 54.3672C209.979 54.25 209.587 54.1914 209.135 54.1914ZM209.97 52.0029H208.309V49.5947H209.97V52.0029ZM232.236 65.4854H230.557V49.7354H232.236V65.4854ZM234.521 57.5137H231.699V56.125H234.521V57.5137ZM224.466 51.4229C224.466 52.8584 224.358 54.1768 224.141 55.3779C223.93 56.5732 223.564 57.7334 223.042 58.8584C222.527 59.9775 221.809 61.0264 220.889 62.0049L219.57 61.0557C220.402 60.1826 221.065 59.2568 221.557 58.2783C222.049 57.2939 222.398 56.2656 222.603 55.1934C222.808 54.1211 222.91 52.9287 222.91 51.6162V51.4229H224.466ZM223.526 52.8027H220.133V51.4229H223.526V52.8027ZM228.808 51.4229C228.808 52.9463 228.717 54.3613 228.535 55.668C228.36 56.9688 228.02 58.252 227.516 59.5176C227.018 60.7773 226.315 61.9492 225.406 63.0332L224.07 62.1016C224.902 61.123 225.553 60.0742 226.022 58.9551C226.49 57.8301 226.813 56.6729 226.988 55.4834C227.164 54.2881 227.252 52.9873 227.252 51.5811V51.4229H228.808ZM227.92 52.8027H224.976V51.4229H227.92V52.8027ZM240.095 62.4443H238.452V57.8301H240.095V62.4443ZM245.966 62.4443H244.288V57.8301H245.966V62.4443ZM249.412 63.5254H234.998V62.1455H249.412V63.5254ZM242.178 50.6494C243.303 50.6494 244.305 50.8223 245.184 51.168C246.063 51.5078 246.749 51.9912 247.241 52.6182C247.739 53.2393 247.988 53.9541 247.988 54.7627C247.988 55.5771 247.739 56.2949 247.241 56.916C246.749 57.5312 246.063 58.0117 245.184 58.3574C244.305 58.6973 243.303 58.8672 242.178 58.8672C241.059 58.8672 240.057 58.6973 239.173 58.3574C238.294 58.0117 237.605 57.5312 237.107 56.916C236.609 56.2949 236.36 55.5771 236.36 54.7627C236.36 53.9541 236.609 53.2393 237.107 52.6182C237.605 51.9912 238.294 51.5078 239.173 51.168C240.057 50.8223 241.059 50.6494 242.178 50.6494ZM242.178 52.0029C241.358 51.9971 240.632 52.1084 239.999 52.3369C239.372 52.5596 238.88 52.8818 238.522 53.3037C238.171 53.7197 237.995 54.2061 237.995 54.7627C237.995 55.3193 238.171 55.8086 238.522 56.2305C238.88 56.6523 239.375 56.9805 240.007 57.2148C240.64 57.4492 241.364 57.5664 242.178 57.5664C242.987 57.5664 243.708 57.4492 244.341 57.2148C244.973 56.9805 245.468 56.6523 245.826 56.2305C246.183 55.8086 246.362 55.3193 246.362 54.7627C246.362 54.2061 246.183 53.7197 245.826 53.3037C245.474 52.8818 244.982 52.5596 244.349 52.3369C243.716 52.1084 242.993 51.9971 242.178 52.0029ZM252.877 60.2119C252.889 59.4678 252.962 58.8672 253.097 58.4102C253.238 57.9531 253.437 57.5869 253.695 57.3115C253.952 57.0303 254.298 56.7578 254.732 56.4941C255.136 56.248 255.452 55.9551 255.681 55.6152C255.915 55.2754 256.032 54.8916 256.032 54.4639C256.032 54.1123 255.95 53.8018 255.786 53.5322C255.622 53.2568 255.394 53.0459 255.101 52.8994C254.808 52.7529 254.483 52.6797 254.125 52.6797C253.803 52.6797 253.498 52.7471 253.211 52.8818C252.93 53.0166 252.696 53.2275 252.508 53.5146C252.321 53.8018 252.212 54.1533 252.183 54.5693H250.284C250.314 53.8428 250.501 53.2188 250.847 52.6973C251.193 52.1699 251.65 51.7715 252.218 51.502C252.792 51.2324 253.431 51.0977 254.134 51.0977C254.89 51.0977 255.558 51.2383 256.138 51.5195C256.718 51.8008 257.166 52.1992 257.483 52.7148C257.799 53.2246 257.957 53.8135 257.957 54.4814C257.957 55.1611 257.802 55.7471 257.491 56.2393C257.181 56.7256 256.736 57.1475 256.155 57.5049C255.792 57.7217 255.505 57.9473 255.294 58.1816C255.089 58.416 254.934 58.6943 254.828 59.0166C254.723 59.333 254.667 59.7314 254.661 60.2119V60.3438H252.877V60.2119ZM253.826 64.123C253.604 64.123 253.396 64.0645 253.202 63.9473C253.009 63.8301 252.857 63.6777 252.745 63.4902C252.64 63.2969 252.587 63.0889 252.587 62.8662C252.587 62.6494 252.64 62.4443 252.745 62.251C252.857 62.0576 253.009 61.9082 253.202 61.8027C253.396 61.6914 253.604 61.6357 253.826 61.6357C254.043 61.6357 254.248 61.6914 254.442 61.8027C254.635 61.9082 254.787 62.0576 254.899 62.251C255.01 62.4443 255.066 62.6494 255.066 62.8662C255.066 63.0889 255.01 63.2969 254.899 63.4902C254.787 63.6777 254.635 63.8301 254.442 63.9473C254.248 64.0645 254.043 64.123 253.826 64.123Z" fill="#374151"/>
<path d="M117.984 85.3867H108.375V84.4609H117.984V85.3867ZM113.701 88.9961H112.605V85.0234H113.701V88.9961ZM113.156 78.8887C113.895 78.8887 114.547 78.9844 115.113 79.1758C115.68 79.3633 116.117 79.6348 116.426 79.9902C116.738 80.3418 116.895 80.7559 116.895 81.2324C116.895 81.6895 116.738 82.0918 116.426 82.4395C116.117 82.7871 115.68 83.0566 115.113 83.248C114.547 83.4355 113.895 83.5293 113.156 83.5293C112.418 83.5293 111.766 83.4355 111.199 83.248C110.637 83.0566 110.199 82.7871 109.887 82.4395C109.574 82.0918 109.418 81.6895 109.418 81.2324C109.418 80.7559 109.574 80.3418 109.887 79.9902C110.199 79.6348 110.637 79.3633 111.199 79.1758C111.766 78.9844 112.418 78.8887 113.156 78.8887ZM113.156 79.791C112.637 79.791 112.182 79.8477 111.791 79.9609C111.4 80.0742 111.098 80.2402 110.883 80.459C110.672 80.6777 110.566 80.9355 110.566 81.2324C110.566 81.5176 110.672 81.7676 110.883 81.9824C111.098 82.1934 111.4 82.3574 111.791 82.4746C112.182 82.5879 112.637 82.6445 113.156 82.6445C113.676 82.6445 114.133 82.5879 114.527 82.4746C114.922 82.3574 115.225 82.1934 115.436 81.9824C115.65 81.7676 115.758 81.5176 115.758 81.2324C115.758 80.9355 115.65 80.6777 115.436 80.459C115.225 80.2402 114.922 80.0742 114.527 79.9609C114.133 79.8477 113.676 79.791 113.156 79.791ZM127.291 89.0195H126.183V78.4902H127.291V89.0195ZM120.072 85.5684C121.045 85.5723 121.935 85.5469 122.744 85.4922C123.556 85.4375 124.394 85.3418 125.257 85.2051L125.369 86.1191C124.494 86.2637 123.646 86.3633 122.826 86.418C122.006 86.4688 121.088 86.4941 120.072 86.4941H119.175V85.5684H120.072ZM124.08 83.2773H120.312V85.9199H119.175V82.3867H122.955V80.3477H119.158V79.4395H124.08V83.2773ZM141.105 84.4961H131.519V83.6055H141.105V84.4961ZM136.851 83.9746H135.767V81.9531H136.851V83.9746ZM139.991 82.4922H132.72V81.6016H139.991V82.4922ZM139.927 79.8555H133.815V82.1582H132.72V78.9766H139.927V79.8555ZM136.3 85.1758C137.054 85.1758 137.702 85.25 138.245 85.3984C138.792 85.5469 139.208 85.7637 139.493 86.0488C139.782 86.334 139.927 86.6797 139.927 87.0859C139.927 87.4883 139.782 87.832 139.493 88.1172C139.208 88.4023 138.794 88.6191 138.251 88.7676C137.708 88.916 137.058 88.9922 136.3 88.9961C135.542 88.9922 134.89 88.916 134.343 88.7676C133.796 88.6191 133.378 88.4023 133.089 88.1172C132.8 87.832 132.655 87.4883 132.655 87.0859C132.655 86.6797 132.8 86.334 133.089 86.0488C133.378 85.7637 133.796 85.5469 134.343 85.3984C134.89 85.25 135.542 85.1758 136.3 85.1758ZM136.3 86.043C135.765 86.043 135.31 86.084 134.935 86.166C134.56 86.2441 134.274 86.3613 134.079 86.5176C133.884 86.6738 133.786 86.8633 133.786 87.0859C133.786 87.3086 133.884 87.498 134.079 87.6543C134.274 87.8105 134.56 87.9277 134.935 88.0059C135.31 88.084 135.765 88.123 136.3 88.123C136.835 88.123 137.288 88.084 137.659 88.0059C138.034 87.9277 138.319 87.8105 138.515 87.6543C138.71 87.4941 138.808 87.3047 138.808 87.0859C138.808 86.8633 138.71 86.6738 138.515 86.5176C138.319 86.3613 138.032 86.2441 137.653 86.166C137.278 86.084 136.827 86.043 136.3 86.043ZM143.298 85.7266H142.19V79.5859H143.298V85.7266ZM142.876 85.416C143.571 85.4199 144.206 85.3984 144.78 85.3516C145.354 85.3047 145.946 85.2168 146.555 85.0879L146.714 86.0371C146.077 86.1699 145.462 86.2617 144.868 86.3125C144.274 86.3594 143.61 86.3828 142.876 86.3828H142.19V85.416H142.876ZM150.733 88.9902H149.678V78.4902H150.733V88.9902ZM147.716 82.873H145.137V81.9648H147.716V82.873ZM148.489 88.4863H147.434V78.7305H148.489V88.4863ZM158.307 81.1621C158.307 81.9902 158.18 82.7832 157.926 83.541C157.672 84.2949 157.316 84.9609 156.859 85.5391C156.402 86.1133 155.869 86.5488 155.26 86.8457L154.563 85.9141C155.109 85.668 155.596 85.3008 156.022 84.8125C156.451 84.3203 156.785 83.7559 157.024 83.1191C157.266 82.4785 157.387 81.8262 157.387 81.1621V79.3633H158.307V81.1621ZM158.506 81.1621C158.506 81.7988 158.623 82.4219 158.857 83.0312C159.096 83.6406 159.426 84.1836 159.848 84.6602C160.274 85.1367 160.752 85.4941 161.283 85.7324L160.615 86.6172C160.025 86.3359 159.498 85.918 159.033 85.3633C158.572 84.8086 158.215 84.168 157.961 83.4414C157.707 82.7148 157.58 81.9551 157.58 81.1621V79.3633H158.506V81.1621ZM163.352 89.0195H162.232V78.4902H163.352V89.0195ZM173.554 88.9902H172.453V78.4902H173.554V88.9902ZM166.582 86.0254H165.486V79.5156H166.582V86.0254ZM166.365 85.3691C167.209 85.3691 168.051 85.332 168.89 85.2578C169.734 85.1797 170.578 85.0527 171.422 84.877L171.568 85.8145C170.685 85.9941 169.818 86.125 168.967 86.207C168.119 86.2852 167.252 86.3242 166.365 86.3242H165.486V85.3691H166.365ZM177.88 79.2812C178.396 79.2812 178.853 79.4336 179.251 79.7383C179.654 80.043 179.968 80.4727 180.195 81.0273C180.421 81.582 180.535 82.2285 180.535 82.9668C180.535 83.709 180.421 84.3574 180.195 84.9121C179.968 85.4668 179.654 85.8965 179.251 86.2012C178.853 86.502 178.396 86.6523 177.88 86.6523C177.365 86.6523 176.904 86.502 176.497 86.2012C176.095 85.9004 175.781 85.4727 175.554 84.918C175.328 84.3594 175.214 83.709 175.214 82.9668C175.214 82.2285 175.328 81.582 175.554 81.0273C175.781 80.4727 176.095 80.043 176.497 79.7383C176.904 79.4336 177.365 79.2812 177.88 79.2812ZM177.88 80.2773C177.568 80.2773 177.289 80.3867 177.042 80.6055C176.796 80.8242 176.607 81.1367 176.474 81.543C176.345 81.9453 176.281 82.4199 176.281 82.9668C176.281 83.5098 176.345 83.9844 176.474 84.3906C176.607 84.7969 176.796 85.1094 177.042 85.3281C177.289 85.543 177.568 85.6504 177.88 85.6504C178.193 85.6504 178.472 85.543 178.718 85.3281C178.964 85.1094 179.154 84.7969 179.287 84.3906C179.419 83.9844 179.486 83.5098 179.486 82.9668C179.486 82.4199 179.417 81.9453 179.281 81.543C179.148 81.1367 178.96 80.8242 178.718 80.6055C178.48 80.3867 178.201 80.2773 177.88 80.2773ZM183.792 89.0195H182.685V78.4902H183.792V89.0195ZM183.171 83.3418H180.183V82.4336H183.171V83.3418ZM193.405 79.1523C193.405 80.0312 193.21 80.8281 192.819 81.543C192.429 82.2539 191.87 82.8652 191.143 83.377C190.417 83.8887 189.544 84.2891 188.524 84.5781L188.073 83.7051C188.948 83.4629 189.696 83.1426 190.317 82.7441C190.938 82.3418 191.415 81.8789 191.747 81.3555C192.079 80.832 192.245 80.2656 192.245 79.6562V79.1523H193.405ZM192.989 80.0547H188.624V79.1523H192.989V80.0547ZM196.727 84.4492H195.614V78.502H196.727V84.4492ZM195.796 82.0586H193.44V81.1387H195.796V82.0586ZM196.727 88.8555H189.866V84.8945H196.727V88.8555ZM190.944 87.9648H195.626V85.7734H190.944V87.9648ZM201.182 80.4707C201.182 81.0293 201.086 81.5742 200.895 82.1055C200.704 82.6367 200.422 83.1133 200.051 83.5352C199.684 83.9531 199.241 84.2734 198.721 84.4961L198.124 83.6406C198.581 83.4414 198.973 83.1699 199.301 82.8262C199.629 82.4785 199.877 82.1016 200.045 81.6953C200.217 81.2852 200.303 80.877 200.303 80.4707V79.1289H201.182V80.4707ZM201.37 80.4707C201.37 80.8652 201.45 81.2539 201.61 81.6367C201.774 82.0156 202.012 82.3574 202.325 82.6621C202.637 82.9629 203.016 83.2012 203.461 83.377L202.864 84.2324C202.36 84.0254 201.93 83.7305 201.575 83.3477C201.219 82.9648 200.95 82.5273 200.766 82.0352C200.586 81.5391 200.497 81.0176 200.497 80.4707V79.1289H201.37V80.4707ZM207.118 84.8535H206.057V78.502H207.118V84.8535ZM206.379 82.1055H204.469V81.1797H206.379V82.1055ZM204.838 84.7949H203.801V78.6836H204.838V84.7949ZM207.118 88.9902H206.022V86.3008H199.981V85.3926H207.118V88.9902ZM216.535 88.9902H215.434V78.4902H216.535V88.9902ZM218.229 83.6699H216.283V82.75H218.229V83.6699ZM214.52 81.0449H208.297V80.1367H214.52V81.0449ZM211.455 81.8242C211.955 81.8242 212.402 81.9277 212.797 82.1348C213.195 82.3418 213.506 82.6309 213.729 83.002C213.955 83.373 214.069 83.793 214.069 84.2617C214.069 84.7344 213.955 85.1562 213.729 85.5273C213.506 85.8984 213.195 86.1875 212.797 86.3945C212.402 86.6016 211.955 86.7051 211.455 86.7051C210.951 86.7051 210.502 86.6016 210.108 86.3945C209.713 86.1875 209.402 85.8984 209.176 85.5273C208.953 85.1562 208.842 84.7344 208.842 84.2617C208.842 83.793 208.953 83.373 209.176 83.002C209.402 82.6309 209.713 82.3418 210.108 82.1348C210.502 81.9277 210.951 81.8242 211.455 81.8242ZM211.455 82.7441C211.158 82.7441 210.893 82.8086 210.658 82.9375C210.424 83.0625 210.238 83.2402 210.102 83.4707C209.969 83.7012 209.902 83.9648 209.902 84.2617C209.902 84.5625 209.969 84.8262 210.102 85.0527C210.238 85.2793 210.424 85.457 210.658 85.5859C210.893 85.7109 211.158 85.7734 211.455 85.7734C211.752 85.7734 212.018 85.7109 212.252 85.5859C212.486 85.457 212.67 85.2793 212.803 85.0527C212.936 84.8262 213.002 84.5625 213.002 84.2617C213.002 83.9648 212.936 83.7012 212.803 83.4707C212.67 83.2402 212.486 83.0625 212.252 82.9375C212.018 82.8086 211.752 82.7441 211.455 82.7441ZM212 80.5234H210.893V78.6309H212V80.5234ZM227.277 88.9902H226.152V78.4902H227.277V88.9902ZM224.16 79.6211C224.16 80.6914 223.994 81.6816 223.662 82.5918C223.334 83.498 222.806 84.334 222.08 85.0996C221.353 85.8613 220.408 86.5215 219.244 87.0801L218.646 86.1777C219.658 85.7012 220.488 85.1465 221.137 84.5137C221.789 83.8809 222.271 83.1738 222.584 82.3926C222.896 81.6113 223.053 80.748 223.053 79.8027V79.6211H224.16ZM223.533 80.5117H219.156V79.6211H223.533V80.5117Z" fill="#9CA3AF"/>
<rect x="20" y="105" width="295" height="38" rx="19" fill="#1D60E7"/>
<path d="M128.148 125.951H116.938V124.871H128.148V125.951ZM123.151 130.162H121.873V125.527H123.151V130.162ZM122.516 118.37C123.377 118.37 124.138 118.482 124.799 118.705C125.46 118.924 125.97 119.241 126.33 119.655C126.695 120.065 126.877 120.549 126.877 121.104C126.877 121.638 126.695 122.107 126.33 122.513C125.97 122.918 125.46 123.233 124.799 123.456C124.138 123.675 123.377 123.784 122.516 123.784C121.654 123.784 120.893 123.675 120.232 123.456C119.576 123.233 119.066 122.918 118.701 122.513C118.337 122.107 118.154 121.638 118.154 121.104C118.154 120.549 118.337 120.065 118.701 119.655C119.066 119.241 119.576 118.924 120.232 118.705C120.893 118.482 121.654 118.37 122.516 118.37ZM122.516 119.423C121.91 119.423 121.379 119.489 120.923 119.621C120.467 119.753 120.114 119.947 119.863 120.202C119.617 120.457 119.494 120.758 119.494 121.104C119.494 121.437 119.617 121.729 119.863 121.979C120.114 122.226 120.467 122.417 120.923 122.554C121.379 122.686 121.91 122.752 122.516 122.752C123.122 122.752 123.655 122.686 124.115 122.554C124.576 122.417 124.929 122.226 125.175 121.979C125.425 121.729 125.551 121.437 125.551 121.104C125.551 120.758 125.425 120.457 125.175 120.202C124.929 119.947 124.576 119.753 124.115 119.621C123.655 119.489 123.122 119.423 122.516 119.423ZM139.006 130.189H137.714V117.905H139.006V130.189ZM130.584 126.163C131.719 126.168 132.758 126.138 133.701 126.074C134.649 126.01 135.627 125.899 136.634 125.739L136.764 126.806C135.743 126.974 134.754 127.09 133.797 127.154C132.84 127.214 131.769 127.243 130.584 127.243H129.538V126.163H130.584ZM135.26 123.49H130.864V126.573H129.538V122.451H133.947V120.072H129.518V119.013H135.26V123.49ZM155.122 124.912H143.938V123.873H155.122V124.912ZM150.159 124.304H148.894V121.945H150.159V124.304ZM153.823 122.574H145.34V121.535H153.823V122.574ZM153.748 119.498H146.618V122.185H145.34V118.473H153.748V119.498ZM149.516 125.705C150.396 125.705 151.153 125.792 151.786 125.965C152.424 126.138 152.909 126.391 153.242 126.724C153.579 127.056 153.748 127.46 153.748 127.934C153.748 128.403 153.579 128.804 153.242 129.137C152.909 129.469 152.426 129.722 151.793 129.896C151.159 130.069 150.401 130.158 149.516 130.162C148.632 130.158 147.871 130.069 147.233 129.896C146.595 129.722 146.108 129.469 145.77 129.137C145.433 128.804 145.265 128.403 145.265 127.934C145.265 127.46 145.433 127.056 145.77 126.724C146.108 126.391 146.595 126.138 147.233 125.965C147.871 125.792 148.632 125.705 149.516 125.705ZM149.516 126.717C148.892 126.717 148.361 126.765 147.924 126.86C147.486 126.951 147.154 127.088 146.926 127.271C146.698 127.453 146.584 127.674 146.584 127.934C146.584 128.193 146.698 128.414 146.926 128.597C147.154 128.779 147.486 128.916 147.924 129.007C148.361 129.098 148.892 129.144 149.516 129.144C150.141 129.144 150.669 129.098 151.102 129.007C151.54 128.916 151.873 128.779 152.1 128.597C152.328 128.41 152.442 128.189 152.442 127.934C152.442 127.674 152.328 127.453 152.1 127.271C151.873 127.088 151.538 126.951 151.096 126.86C150.658 126.765 150.132 126.717 149.516 126.717ZM157.681 126.348H156.389V119.184H157.681V126.348ZM157.188 125.985C158 125.99 158.74 125.965 159.41 125.91C160.08 125.855 160.77 125.753 161.481 125.603L161.666 126.71C160.923 126.865 160.205 126.972 159.513 127.031C158.82 127.086 158.045 127.113 157.188 127.113H156.389V125.985H157.188ZM166.355 130.155H165.125V117.905H166.355V130.155ZM162.835 123.019H159.827V121.959H162.835V123.019ZM163.737 129.567H162.507V118.186H163.737V129.567ZM177.262 118.678C177.262 119.703 177.035 120.633 176.579 121.467C176.123 122.296 175.471 123.009 174.624 123.606C173.776 124.203 172.758 124.671 171.568 125.008L171.042 123.989C172.063 123.707 172.935 123.333 173.66 122.868C174.385 122.399 174.941 121.859 175.328 121.248C175.715 120.637 175.909 119.977 175.909 119.266V118.678H177.262ZM176.777 119.73H171.684V118.678H176.777V119.73ZM181.138 124.857H179.84V117.919H181.138V124.857ZM180.052 122.068H177.303V120.995H180.052V122.068ZM181.138 129.998H173.134V125.377H181.138V129.998ZM174.391 128.959H179.853V126.402H174.391V128.959ZM186.336 120.216C186.336 120.868 186.224 121.503 186.001 122.123C185.777 122.743 185.449 123.299 185.016 123.791C184.588 124.279 184.071 124.652 183.465 124.912L182.767 123.914C183.301 123.682 183.759 123.365 184.141 122.964C184.524 122.558 184.814 122.118 185.009 121.645C185.21 121.166 185.31 120.69 185.31 120.216V118.65H186.336V120.216ZM186.554 120.216C186.554 120.676 186.648 121.13 186.835 121.576C187.026 122.018 187.304 122.417 187.669 122.772C188.033 123.123 188.475 123.401 188.995 123.606L188.298 124.604C187.71 124.363 187.208 124.019 186.794 123.572C186.379 123.126 186.065 122.615 185.85 122.041C185.641 121.462 185.536 120.854 185.536 120.216V118.65H186.554V120.216ZM193.26 125.329H192.023V117.919H193.26V125.329ZM192.399 122.123H190.171V121.043H192.399V122.123ZM190.601 125.261H189.391V118.131H190.601V125.261ZM193.26 130.155H191.982V127.018H184.934V125.958H193.26V130.155ZM204.248 130.155H202.963V117.905H204.248V130.155ZM206.223 123.948H203.954V122.875H206.223V123.948ZM201.896 120.886H194.636V119.826H201.896V120.886ZM198.321 121.795C198.904 121.795 199.426 121.916 199.886 122.157C200.351 122.399 200.714 122.736 200.973 123.169C201.238 123.602 201.37 124.092 201.37 124.639C201.37 125.19 201.238 125.682 200.973 126.115C200.714 126.548 200.351 126.885 199.886 127.127C199.426 127.368 198.904 127.489 198.321 127.489C197.733 127.489 197.209 127.368 196.749 127.127C196.288 126.885 195.926 126.548 195.662 126.115C195.402 125.682 195.272 125.19 195.272 124.639C195.272 124.092 195.402 123.602 195.662 123.169C195.926 122.736 196.288 122.399 196.749 122.157C197.209 121.916 197.733 121.795 198.321 121.795ZM198.321 122.868C197.975 122.868 197.665 122.943 197.391 123.094C197.118 123.24 196.901 123.447 196.742 123.716C196.587 123.985 196.509 124.292 196.509 124.639C196.509 124.99 196.587 125.297 196.742 125.562C196.901 125.826 197.118 126.033 197.391 126.184C197.665 126.329 197.975 126.402 198.321 126.402C198.667 126.402 198.977 126.329 199.251 126.184C199.524 126.033 199.738 125.826 199.893 125.562C200.048 125.297 200.126 124.99 200.126 124.639C200.126 124.292 200.048 123.985 199.893 123.716C199.738 123.447 199.524 123.24 199.251 123.094C198.977 122.943 198.667 122.868 198.321 122.868ZM198.957 120.277H197.665V118.069H198.957V120.277ZM216.78 130.155H215.467V117.905H216.78V130.155ZM213.143 119.225C213.143 120.473 212.95 121.629 212.562 122.69C212.179 123.748 211.564 124.723 210.716 125.616C209.869 126.505 208.766 127.275 207.408 127.927L206.711 126.874C207.891 126.318 208.859 125.671 209.616 124.933C210.377 124.194 210.94 123.369 211.304 122.458C211.669 121.547 211.851 120.539 211.851 119.437V119.225H213.143ZM212.412 120.264H207.305V119.225H212.412V120.264Z" fill="#FEFEFE"/>
</svg>
