<svg width="96" height="24" viewBox="0 0 96 24" fill="none" xmlns="http://www.w3.org/2000/svg">
<path d="M9.5 5H7.5C6.96957 5 6.46086 5.21071 6.08579 5.58579C5.71071 5.96086 5.5 6.46957 5.5 7V19C5.5 19.5304 5.71071 20.0391 6.08579 20.4142C6.46086 20.7893 6.96957 21 7.5 21H17.5C18.0304 21 18.5391 20.7893 18.9142 20.4142C19.2893 20.0391 19.5 19.5304 19.5 19V7C19.5 6.46957 19.2893 5.96086 18.9142 5.58579C18.5391 5.21071 18.0304 5 17.5 5H15.5" stroke="#3675F3" stroke-width="1.6" stroke-linecap="round" stroke-linejoin="round"/>
<path d="M9.5 5C9.5 4.46957 9.71071 3.96086 10.0858 3.58579C10.4609 3.21071 10.9696 3 11.5 3H13.5C14.0304 3 14.5391 3.21071 14.9142 3.58579C15.2893 3.96086 15.5 4.46957 15.5 5C15.5 5.53043 15.2893 6.03914 14.9142 6.41421C14.5391 6.78929 14.0304 7 13.5 7H11.5C10.9696 7 10.4609 6.78929 10.0858 6.41421C9.71071 6.03914 9.5 5.53043 9.5 5Z" stroke="#3675F3" stroke-width="1.6" stroke-linecap="round" stroke-linejoin="round"/>
<path d="M9.5 17V12" stroke="#3675F3" stroke-width="1.6" stroke-linecap="round" stroke-linejoin="round"/>
<path d="M12.5 17V16" stroke="#3675F3" stroke-width="1.6" stroke-linecap="round" stroke-linejoin="round"/>
<path d="M15.5 17V14" stroke="#3675F3" stroke-width="1.6" stroke-linecap="round" stroke-linejoin="round"/>
<path d="M39.2457 11.7979H37.9537V9.54883H39.2457V11.7979ZM42.8619 10.0752H34.4742V9.04297H42.8619V10.0752ZM42.7525 7.42285H35.773V9.60352H34.4742V6.36328H42.7525V7.42285ZM44.1881 12.1738H33.0182V11.1348H44.1881V12.1738ZM42.773 15.9541H35.65V17.3281H34.3717V15.0176H41.5016V14.0674H34.3512V13.0898H42.773V15.9541ZM43.1285 18.0322H34.3717V17.0205H43.1285V18.0322ZM56.0777 13.0146H44.9078V11.9551H56.0777V13.0146ZM51.1353 12.3516H49.8365V10.2871H51.1353V12.3516ZM47.6627 7.4707H53.3365V6.17188H54.6216V10.7246H46.3775V6.17188H47.6627V7.4707ZM53.3365 9.69922V8.45508H47.6627V9.69922H53.3365ZM54.7173 18.0049H46.2476V14.04H54.7173V18.0049ZM47.5328 16.9521H53.4459V15.0518H47.5328V16.9521ZM70.5327 18.1553H69.2886V5.90527H70.5327V18.1553ZM67.3266 11.5996H64.2641V10.5195H67.3266V11.5996ZM67.9966 17.5537H66.7729V6.17871H67.9966V17.5537ZM61.2495 14.2041C62.243 14.2041 63.061 14.179 63.7036 14.1289C64.3462 14.0788 64.9979 13.9831 65.6587 13.8418L65.7817 14.9287C65.1164 15.0654 64.4533 15.1566 63.7925 15.2021C63.1317 15.2477 62.284 15.2751 61.2495 15.2842H60.4497V14.2041H61.2495ZM65.0913 8.43457H61.7143V14.6348H60.4497V7.38184H65.0913V8.43457ZM82.0463 18.1895H80.7407V5.90527H82.0463V18.1895ZM75.4838 6.82812C76.0945 6.82812 76.6391 7.00586 77.1176 7.36133C77.5961 7.7168 77.9698 8.2181 78.2387 8.86523C78.5076 9.51237 78.642 10.2666 78.642 11.1279C78.642 11.9938 78.5076 12.7503 78.2387 13.3975C77.9698 14.0446 77.5961 14.5459 77.1176 14.9014C76.6391 15.2523 76.0945 15.4277 75.4838 15.4277C74.8731 15.4277 74.3263 15.2523 73.8432 14.9014C73.3647 14.5459 72.991 14.0446 72.7221 13.3975C72.4532 12.7503 72.3188 11.9938 72.3188 11.1279C72.3188 10.2666 72.4532 9.51237 72.7221 8.86523C72.991 8.2181 73.3647 7.7168 73.8432 7.36133C74.3263 7.00586 74.8731 6.82812 75.4838 6.82812ZM75.4838 7.99023C75.1101 7.99023 74.7774 8.11784 74.4858 8.37305C74.1941 8.62826 73.9685 8.99284 73.809 9.4668C73.6541 9.9362 73.5766 10.4899 73.5766 11.1279C73.5766 11.7614 73.6541 12.3151 73.809 12.7891C73.9685 13.263 74.1941 13.6276 74.4858 13.8828C74.7774 14.1335 75.1101 14.2588 75.4838 14.2588C75.8575 14.2588 76.1879 14.1335 76.475 13.8828C76.7667 13.6276 76.9923 13.263 77.1518 12.7891C77.3113 12.3151 77.3911 11.7614 77.3911 11.1279C77.3911 10.4899 77.3113 9.9362 77.1518 9.4668C76.9923 8.99284 76.769 8.62826 76.4819 8.37305C76.1948 8.11784 75.8621 7.99023 75.4838 7.99023ZM94.0043 18.1895H92.7123V5.90527H94.0043V18.1895ZM92.9037 11.4902H90.2719V10.4307H92.9037V11.4902ZM85.2953 14.2178C86.4893 14.2223 87.4919 14.1995 88.3031 14.1494C89.1143 14.0993 89.9324 14.0059 90.7572 13.8691L90.8939 14.9287C90.0372 15.0609 89.1872 15.1543 88.3441 15.209C87.501 15.2591 86.4848 15.2842 85.2953 15.2842H84.3451V14.2178H85.2953ZM90.0736 8.06543H85.6508V14.5664H84.3451V6.99902H90.0736V8.06543ZM89.5609 11.4766H85.3295V10.4375H89.5609V11.4766Z" fill="black"/>
</svg>
