<svg width="335" height="162" viewBox="0 0 335 162" fill="none" xmlns="http://www.w3.org/2000/svg">
<rect x="0.5" y="0.5" width="334" height="161" rx="11.5" fill="#F2F6FD"/>
<rect x="0.5" y="0.5" width="334" height="161" rx="11.5" stroke="#D4DFF5"/>
<path d="M75.9704 50.2483C70.4178 53.6286 63.9068 55.4148 57.4066 55.3409C55.9779 55.3246 54.2148 54.9672 53.8281 53.5917C53.5527 52.6124 54.1996 51.5628 55.0734 51.0418C55.9471 50.5208 56.9957 50.4055 58.0077 50.302C59.3218 50.1675 60.6718 50.0358 61.9455 50.3856C63.2192 50.7355 64.4183 51.6806 64.6712 52.9771C65.0128 54.7292 63.6024 56.301 62.2442 57.4594C56.7044 62.1842 50.0503 65.594 42.9795 67.3311" stroke="#006AF9" stroke-width="3" stroke-linecap="round" stroke-linejoin="round"/>
<path d="M45.2998 73.0406C50.0203 72.4117 54.5772 70.6025 58.4357 67.8252" stroke="#006AF9" stroke-width="3" stroke-linecap="round" stroke-linejoin="round"/>
<path d="M49.4956 77.3473C54.6294 76.9812 59.6513 75.4021 63.9721 72.7955" stroke="#006AF9" stroke-width="3" stroke-linecap="round" stroke-linejoin="round"/>
<path d="M55.2329 81.261C58.1509 81.6195 63.279 80.3416 65.9437 79.0202C71.3664 76.3313 79.9543 69.5333 85.9998 59.5438" stroke="#006AF9" stroke-width="3" stroke-linecap="round" stroke-linejoin="round"/>
<path d="M42.2141 60.491C39.1402 57.5787 34.6389 53.1532 31.565 50.2408C29.7104 48.4836 27.8057 46.656 26.7658 44.2608C24.9193 40.0078 26.5328 34.416 30.308 31.9856C34.0831 29.5551 39.5085 30.6151 42.2179 34.3125C44.9273 30.6151 50.3527 29.5551 54.1278 31.9856C57.903 34.416 59.5165 40.0078 57.67 44.2608" stroke="#006AF9" stroke-width="3" stroke-linecap="round" stroke-linejoin="round"/>
<path d="M115.55 26.0811C115.55 27.5928 115.374 28.9844 115.022 30.2559C114.671 31.5215 114.056 32.7109 113.177 33.8242C112.298 34.9375 111.1 35.916 109.582 36.7598L108.633 35.5908C109.969 34.8525 111.026 34.0117 111.806 33.0684C112.585 32.125 113.139 31.1025 113.467 30.001C113.795 28.8994 113.959 27.6836 113.959 26.3535V26.0811H115.55ZM114.539 27.4434H109.406V26.0811H114.539V27.4434ZM108.861 31.4775L108.633 30.0186L113.836 29.7109V30.9678L108.861 31.4775ZM117.826 31.7412H114.267V30.3789H117.826V31.7412ZM122.115 39.9854H120.533V24.2354H122.115V39.9854ZM118.793 39.2295H117.211V24.6396H118.793V39.2295ZM128.138 25.4219C128.912 25.4219 129.597 25.6504 130.195 26.1074C130.798 26.5645 131.27 27.209 131.61 28.041C131.95 28.873 132.12 29.8428 132.12 30.9502C132.12 32.0635 131.95 33.0361 131.61 33.8682C131.27 34.7002 130.798 35.3447 130.195 35.8018C129.597 36.2529 128.912 36.4785 128.138 36.4785C127.365 36.4785 126.673 36.2529 126.064 35.8018C125.46 35.3506 124.989 34.709 124.649 33.877C124.309 33.0391 124.139 32.0635 124.139 30.9502C124.139 29.8428 124.309 28.873 124.649 28.041C124.989 27.209 125.46 26.5645 126.064 26.1074C126.673 25.6504 127.365 25.4219 128.138 25.4219ZM128.138 26.916C127.669 26.916 127.251 27.0801 126.881 27.4082C126.512 27.7363 126.228 28.2051 126.029 28.8145C125.835 29.418 125.739 30.1299 125.739 30.9502C125.739 31.7646 125.835 32.4766 126.029 33.0859C126.228 33.6953 126.512 34.1641 126.881 34.4922C127.251 34.8145 127.669 34.9756 128.138 34.9756C128.607 34.9756 129.026 34.8145 129.395 34.4922C129.764 34.1641 130.048 33.6953 130.248 33.0859C130.447 32.4766 130.546 31.7646 130.546 30.9502C130.546 30.1299 130.444 29.418 130.239 28.8145C130.04 28.2051 129.758 27.7363 129.395 27.4082C129.038 27.0801 128.619 26.916 128.138 26.916ZM137.006 40.0293H135.345V24.2354H137.006V40.0293ZM136.075 31.5127H131.592V30.1504H136.075V31.5127ZM151.423 39.9766H149.762V24.2354H151.423V39.9766ZM153.866 31.917H150.992V30.5283H153.866V31.917ZM147.301 25.9053C147.301 27.4814 147.055 28.9551 146.563 30.3262C146.076 31.6914 145.297 32.9512 144.225 34.1055C143.158 35.2539 141.784 36.2441 140.103 37.0762L139.171 35.7754C140.618 35.0488 141.822 34.2109 142.783 33.2617C143.744 32.3066 144.465 31.2432 144.945 30.0713C145.426 28.8936 145.666 27.6016 145.666 26.1953V25.9053H147.301ZM146.51 27.2939H139.944V25.9053H146.51V27.2939ZM171.704 40.0293H170.034V24.2354H171.704V40.0293ZM170.482 31.8467H166.782V30.4844H170.482V31.8467ZM163.838 29.3066C163.838 30.4023 163.656 31.4629 163.293 32.4883C162.93 33.5078 162.42 34.4102 161.764 35.1953C161.107 35.9805 160.349 36.5752 159.487 36.9795L158.565 35.6875C159.35 35.3184 160.041 34.7998 160.639 34.1318C161.236 33.4639 161.696 32.708 162.019 31.8643C162.347 31.0205 162.511 30.168 162.511 29.3066V28.0674H163.838V29.3066ZM164.163 29.3066C164.163 30.1328 164.33 30.9502 164.664 31.7588C164.998 32.5615 165.47 33.2852 166.079 33.9297C166.689 34.5684 167.386 35.0664 168.171 35.4238L167.248 36.707C166.375 36.3145 165.602 35.7432 164.928 34.9932C164.26 34.2373 163.744 33.3643 163.381 32.374C163.024 31.3838 162.845 30.3613 162.845 29.3066V28.0674H164.163V29.3066ZM167.608 28.2695H159.022V26.9248H167.608V28.2695ZM164.181 27.6543H162.52V24.5518H164.181V27.6543ZM181.032 24.5693C182.18 24.5693 183.176 24.6895 184.02 24.9297C184.864 25.1699 185.511 25.5186 185.963 25.9756C186.42 26.4268 186.648 26.9658 186.648 27.5928C186.648 28.2139 186.42 28.7471 185.963 29.1924C185.511 29.6318 184.864 29.9717 184.02 30.2119C183.176 30.4521 182.18 30.5723 181.032 30.5723C179.889 30.5723 178.893 30.4521 178.044 30.2119C177.2 29.9717 176.546 29.6318 176.084 29.1924C175.621 28.7471 175.389 28.2139 175.389 27.5928C175.389 26.9658 175.621 26.4268 176.084 25.9756C176.546 25.5186 177.2 25.1699 178.044 24.9297C178.893 24.6895 179.889 24.5693 181.032 24.5693ZM181.032 25.8877C180.229 25.8877 179.532 25.9551 178.94 26.0898C178.354 26.2188 177.903 26.4121 177.587 26.6699C177.276 26.9277 177.121 27.2354 177.121 27.5928C177.121 27.9443 177.273 28.2432 177.578 28.4893C177.888 28.7354 178.337 28.9258 178.922 29.0605C179.514 29.1895 180.217 29.2598 181.032 29.2715C181.829 29.2598 182.52 29.1895 183.106 29.0605C183.698 28.9258 184.149 28.7354 184.46 28.4893C184.776 28.2432 184.934 27.9443 184.934 27.5928C184.934 27.2354 184.776 26.9277 184.46 26.6699C184.149 26.4121 183.698 26.2188 183.106 26.0898C182.52 25.9551 181.829 25.8877 181.032 25.8877ZM186.463 39.792H175.574V34.5449H186.463V39.792ZM177.226 38.4385H184.829V35.8809H177.226V38.4385ZM188.213 33.1475H173.851V31.7852H188.213V33.1475ZM202.19 40.0293H200.511V24.2354H202.19V40.0293ZM193.752 25.4219C194.537 25.4219 195.237 25.6504 195.853 26.1074C196.468 26.5645 196.948 27.209 197.294 28.041C197.64 28.873 197.813 29.8428 197.813 30.9502C197.813 32.0635 197.64 33.0361 197.294 33.8682C196.948 34.7002 196.468 35.3447 195.853 35.8018C195.237 36.2529 194.537 36.4785 193.752 36.4785C192.967 36.4785 192.264 36.2529 191.643 35.8018C191.027 35.3447 190.547 34.7002 190.201 33.8682C189.856 33.0361 189.683 32.0635 189.683 30.9502C189.683 29.8428 189.856 28.873 190.201 28.041C190.547 27.209 191.027 26.5645 191.643 26.1074C192.264 25.6504 192.967 25.4219 193.752 25.4219ZM193.752 26.916C193.272 26.916 192.844 27.0801 192.469 27.4082C192.094 27.7363 191.804 28.2051 191.599 28.8145C191.4 29.418 191.3 30.1299 191.3 30.9502C191.3 31.7646 191.4 32.4766 191.599 33.0859C191.804 33.6953 192.094 34.1641 192.469 34.4922C192.844 34.8145 193.272 34.9756 193.752 34.9756C194.233 34.9756 194.657 34.8145 195.026 34.4922C195.401 34.1641 195.692 33.6953 195.897 33.0859C196.102 32.4766 196.204 31.7646 196.204 30.9502C196.204 30.1299 196.102 29.418 195.897 28.8145C195.692 28.2051 195.404 27.7363 195.035 27.4082C194.666 27.0801 194.238 26.916 193.752 26.916ZM217.485 35.793H215.824V24.2529H217.485V35.793ZM217.96 39.6777H207.193V38.2979H217.96V39.6777ZM208.863 38.9922H207.193V34.7031H208.863V38.9922ZM209.839 26.6875C209.839 27.7188 209.657 28.6914 209.294 29.6055C208.936 30.5137 208.423 31.3105 207.756 31.9961C207.088 32.6816 206.302 33.2002 205.4 33.5518L204.512 32.2422C205.321 31.9434 206.024 31.5098 206.622 30.9414C207.219 30.3672 207.673 29.7139 207.984 28.9814C208.295 28.2432 208.45 27.4785 208.45 26.6875V25.1318H209.839V26.6875ZM210.164 26.6875C210.164 27.4492 210.316 28.1787 210.621 28.876C210.925 29.5674 211.374 30.1826 211.965 30.7217C212.557 31.2549 213.246 31.6621 214.031 31.9434L213.17 33.2705C212.261 32.9307 211.476 32.4414 210.814 31.8027C210.158 31.1582 209.651 30.3994 209.294 29.5264C208.936 28.6475 208.757 27.7012 208.757 26.6875V25.1318H210.164V26.6875ZM231.981 39.9766H230.319V24.2354H231.981V39.9766ZM234.424 31.917H231.55V30.5283H234.424V31.917ZM227.859 25.9053C227.859 27.4814 227.612 28.9551 227.12 30.3262C226.634 31.6914 225.855 32.9512 224.782 34.1055C223.716 35.2539 222.342 36.2441 220.66 37.0762L219.729 35.7754C221.176 35.0488 222.38 34.2109 223.341 33.2617C224.302 32.3066 225.023 31.2432 225.503 30.0713C225.984 28.8936 226.224 27.6016 226.224 26.1953V25.9053H227.859ZM227.068 27.2939H220.502V25.9053H227.068V27.2939ZM240.095 36.9443H238.452V32.3301H240.095V36.9443ZM245.966 36.9443H244.288V32.3301H245.966V36.9443ZM249.412 38.0254H234.998V36.6455H249.412V38.0254ZM242.178 25.1494C243.303 25.1494 244.305 25.3223 245.184 25.668C246.063 26.0078 246.749 26.4912 247.241 27.1182C247.739 27.7393 247.988 28.4541 247.988 29.2627C247.988 30.0771 247.739 30.7949 247.241 31.416C246.749 32.0312 246.063 32.5117 245.184 32.8574C244.305 33.1973 243.303 33.3672 242.178 33.3672C241.059 33.3672 240.057 33.1973 239.173 32.8574C238.294 32.5117 237.605 32.0312 237.107 31.416C236.609 30.7949 236.36 30.0771 236.36 29.2627C236.36 28.4541 236.609 27.7393 237.107 27.1182C237.605 26.4912 238.294 26.0078 239.173 25.668C240.057 25.3223 241.059 25.1494 242.178 25.1494ZM242.178 26.5029C241.358 26.4971 240.632 26.6084 239.999 26.8369C239.372 27.0596 238.88 27.3818 238.522 27.8037C238.171 28.2197 237.995 28.7061 237.995 29.2627C237.995 29.8193 238.171 30.3086 238.522 30.7305C238.88 31.1523 239.375 31.4805 240.007 31.7148C240.64 31.9492 241.364 32.0664 242.178 32.0664C242.987 32.0664 243.708 31.9492 244.341 31.7148C244.973 31.4805 245.468 31.1523 245.826 30.7305C246.183 30.3086 246.362 29.8193 246.362 29.2627C246.362 28.7061 246.183 28.2197 245.826 27.8037C245.474 27.3818 244.982 27.0596 244.349 26.8369C243.716 26.6084 242.993 26.4971 242.178 26.5029ZM252.877 34.7119C252.889 33.9678 252.962 33.3672 253.097 32.9102C253.238 32.4531 253.437 32.0869 253.695 31.8115C253.952 31.5303 254.298 31.2578 254.732 30.9941C255.136 30.748 255.452 30.4551 255.681 30.1152C255.915 29.7754 256.032 29.3916 256.032 28.9639C256.032 28.6123 255.95 28.3018 255.786 28.0322C255.622 27.7568 255.394 27.5459 255.101 27.3994C254.808 27.2529 254.483 27.1797 254.125 27.1797C253.803 27.1797 253.498 27.2471 253.211 27.3818C252.93 27.5166 252.696 27.7275 252.508 28.0146C252.321 28.3018 252.212 28.6533 252.183 29.0693H250.284C250.314 28.3428 250.501 27.7188 250.847 27.1973C251.193 26.6699 251.65 26.2715 252.218 26.002C252.792 25.7324 253.431 25.5977 254.134 25.5977C254.89 25.5977 255.558 25.7383 256.138 26.0195C256.718 26.3008 257.166 26.6992 257.483 27.2148C257.799 27.7246 257.957 28.3135 257.957 28.9814C257.957 29.6611 257.802 30.2471 257.491 30.7393C257.181 31.2256 256.736 31.6475 256.155 32.0049C255.792 32.2217 255.505 32.4473 255.294 32.6816C255.089 32.916 254.934 33.1943 254.828 33.5166C254.723 33.833 254.667 34.2314 254.661 34.7119V34.8438H252.877V34.7119ZM253.826 38.623C253.604 38.623 253.396 38.5645 253.202 38.4473C253.009 38.3301 252.857 38.1777 252.745 37.9902C252.64 37.7969 252.587 37.5889 252.587 37.3662C252.587 37.1494 252.64 36.9443 252.745 36.751C252.857 36.5576 253.009 36.4082 253.202 36.3027C253.396 36.1914 253.604 36.1357 253.826 36.1357C254.043 36.1357 254.248 36.1914 254.442 36.3027C254.635 36.4082 254.787 36.5576 254.899 36.751C255.01 36.9443 255.066 37.1494 255.066 37.3662C255.066 37.5889 255.01 37.7969 254.899 37.9902C254.787 38.1777 254.635 38.3301 254.442 38.4473C254.248 38.5645 254.043 38.623 253.826 38.623ZM217.683 52.4961C217.683 53.3926 217.505 54.2305 217.147 55.0098C216.79 55.7832 216.274 56.4541 215.6 57.0225C214.932 57.5908 214.141 58.0156 213.227 58.2969L212.419 56.9873C213.216 56.7588 213.91 56.416 214.502 55.959C215.093 55.502 215.545 54.9775 215.855 54.3857C216.172 53.7881 216.33 53.1582 216.33 52.4961V51.8545H217.683V52.4961ZM217.973 52.4961C217.973 53.1055 218.129 53.6885 218.439 54.2451C218.75 54.7959 219.192 55.2852 219.766 55.7129C220.346 56.1348 221.029 56.4629 221.814 56.6973L221.041 57.998C220.132 57.7344 219.344 57.3301 218.676 56.7852C218.014 56.2402 217.505 55.6016 217.147 54.8691C216.796 54.1309 216.62 53.3398 216.62 52.4961V51.8545H217.973V52.4961ZM221.41 52.3379H212.902V51.0107H221.41V52.3379ZM218.008 51.5645H216.33V49.165H218.008V51.5645ZM224.838 58.5342H223.176V49.2354H224.838V58.5342ZM227.132 54.5264H224.372V53.1377H227.132V54.5264ZM224.838 64.792H214.774V59.2373H224.838V64.792ZM216.418 63.4385H223.185V60.5557H216.418V63.4385ZM239.447 52.1094H229.261V50.7559H239.447V52.1094ZM242.111 62.8584H227.749V61.4873H242.111V62.8584ZM234.86 62.1992H233.216V55.9326H234.86V62.1992ZM240.493 52.5049C240.488 53.7998 240.449 54.9717 240.379 56.0205C240.315 57.0635 240.156 58.2764 239.904 59.6592L238.208 59.4746C238.472 58.1738 238.639 56.999 238.709 55.9502C238.785 54.8955 238.823 53.75 238.823 52.5137V52.3027V50.7559H240.493V52.3027V52.5049ZM255.305 64.9854H253.653V49.2354H255.305V64.9854ZM257.845 57.0049H254.927V55.625H257.845V57.0049ZM252.282 53.0674H242.948V51.7051H252.282V53.0674ZM247.685 54.2363C248.435 54.2363 249.106 54.3916 249.698 54.7021C250.296 55.0127 250.761 55.4463 251.095 56.0029C251.435 56.5596 251.605 57.1895 251.605 57.8926C251.605 58.6016 251.435 59.2344 251.095 59.791C250.761 60.3477 250.296 60.7812 249.698 61.0918C249.106 61.4023 248.435 61.5576 247.685 61.5576C246.929 61.5576 246.256 61.4023 245.664 61.0918C245.072 60.7812 244.606 60.3477 244.266 59.791C243.932 59.2344 243.765 58.6016 243.765 57.8926C243.765 57.1895 243.932 56.5596 244.266 56.0029C244.606 55.4463 245.072 55.0127 245.664 54.7021C246.256 54.3916 246.929 54.2363 247.685 54.2363ZM247.685 55.6162C247.24 55.6162 246.842 55.7129 246.49 55.9062C246.138 56.0938 245.86 56.3604 245.655 56.7061C245.456 57.0518 245.356 57.4473 245.356 57.8926C245.356 58.3438 245.456 58.7393 245.655 59.0791C245.86 59.4189 246.138 59.6855 246.49 59.8789C246.842 60.0664 247.24 60.1602 247.685 60.1602C248.131 60.1602 248.529 60.0664 248.881 59.8789C249.232 59.6855 249.508 59.4189 249.707 59.0791C249.906 58.7393 250.006 58.3438 250.006 57.8926C250.006 57.4473 249.906 57.0518 249.707 56.7061C249.508 56.3604 249.232 56.0938 248.881 55.9062C248.529 55.7129 248.131 55.6162 247.685 55.6162ZM248.503 52.2852H246.842V49.4463H248.503V52.2852ZM267.533 56.1699H264.58V54.7725H267.533V56.1699ZM262.814 53.6123C262.814 54.7432 262.67 55.8359 262.383 56.8906C262.102 57.9453 261.686 58.8887 261.135 59.7207C260.584 60.5469 259.922 61.1973 259.149 61.6719L258.103 60.4238C258.823 59.9902 259.442 59.4131 259.957 58.6924C260.473 57.9658 260.86 57.166 261.117 56.293C261.381 55.4199 261.513 54.5264 261.513 53.6123V50.6768H262.814V53.6123ZM263.121 53.542C263.121 54.415 263.241 55.2676 263.482 56.0996C263.722 56.9258 264.079 57.6846 264.554 58.376C265.034 59.0674 265.612 59.6211 266.285 60.0371L265.354 61.3203C264.592 60.8633 263.95 60.2275 263.429 59.4131C262.907 58.5928 262.515 57.6816 262.251 56.6797C261.993 55.6777 261.864 54.6318 261.864 53.542V50.6768H263.121V53.542ZM271.875 64.9854H270.267V49.2354H271.875V64.9854ZM268.606 64.2119H267.032V49.5342H268.606V64.2119ZM278.707 61.9443H277.063V57.3301H278.707V61.9443ZM284.578 61.9443H282.899V57.3301H284.578V61.9443ZM288.023 63.0254H273.609V61.6455H288.023V63.0254ZM280.79 50.1494C281.915 50.1494 282.917 50.3223 283.796 50.668C284.675 51.0078 285.36 51.4912 285.852 52.1182C286.35 52.7393 286.599 53.4541 286.599 54.2627C286.599 55.0771 286.35 55.7949 285.852 56.416C285.36 57.0312 284.675 57.5117 283.796 57.8574C282.917 58.1973 281.915 58.3672 280.79 58.3672C279.671 58.3672 278.669 58.1973 277.784 57.8574C276.905 57.5117 276.217 57.0312 275.719 56.416C275.22 55.7949 274.971 55.0771 274.971 54.2627C274.971 53.4541 275.22 52.7393 275.719 52.1182C276.217 51.4912 276.905 51.0078 277.784 50.668C278.669 50.3223 279.671 50.1494 280.79 50.1494ZM280.79 51.5029C279.969 51.4971 279.243 51.6084 278.61 51.8369C277.983 52.0596 277.491 52.3818 277.134 52.8037C276.782 53.2197 276.606 53.7061 276.606 54.2627C276.606 54.8193 276.782 55.3086 277.134 55.7305C277.491 56.1523 277.986 56.4805 278.619 56.7148C279.252 56.9492 279.975 57.0664 280.79 57.0664C281.598 57.0664 282.319 56.9492 282.952 56.7148C283.585 56.4805 284.08 56.1523 284.437 55.7305C284.795 55.3086 284.973 54.8193 284.973 54.2627C284.973 53.7061 284.795 53.2197 284.437 52.8037C284.086 52.3818 283.594 52.0596 282.961 51.8369C282.328 51.6084 281.604 51.4971 280.79 51.5029ZM291.638 59.8438H289.907L289.74 50.7734H291.796L291.638 59.8438ZM290.768 63.623C290.551 63.623 290.346 63.5645 290.153 63.4473C289.959 63.3301 289.807 63.1777 289.696 62.9902C289.584 62.7969 289.529 62.5889 289.529 62.3662C289.529 62.1494 289.584 61.9443 289.696 61.751C289.807 61.5576 289.959 61.4082 290.153 61.3027C290.346 61.1914 290.551 61.1357 290.768 61.1357C290.991 61.1357 291.196 61.1914 291.383 61.3027C291.576 61.4082 291.729 61.5576 291.84 61.751C291.957 61.9443 292.016 62.1494 292.016 62.3662C292.016 62.5889 291.957 62.7969 291.84 62.9902C291.729 63.1777 291.576 63.3301 291.383 63.4473C291.196 63.5645 290.991 63.623 290.768 63.623Z" fill="#374151"/>
<path d="M116.736 56.7588H114.785V53.7881H116.736V56.7588ZM121.298 54.5879H110.373V53.0498H121.298V54.5879ZM121.166 51.3096H112.333V53.8936H110.373V49.7363H121.166V51.3096ZM123.003 57.3477H108.536V55.792H123.003V57.3477ZM121.21 62.2432H112.175V63.8604H110.241V60.8633H119.276V59.8174H110.232V58.3672H121.21V62.2432ZM121.641 64.915H110.241V63.4121H121.641V64.915ZM138.29 58.4902H123.823V56.8994H138.29V58.4902ZM132.014 57.4355H130.054V54.8691H132.014V57.4355ZM127.62 51.0723H134.475V49.5254H136.417V55.4844H125.695V49.5254H127.62V51.0723ZM134.475 53.9463V52.5488H127.62V53.9463H134.475ZM136.541 64.8623H125.528V59.6592H136.541V64.8623ZM127.453 63.2891H134.633V61.1797H127.453V63.2891ZM155.565 65.0381H153.614V49.1738H155.565V65.0381ZM157.92 57.0049H155.064V55.3877H157.92V57.0049ZM151.373 50.835C151.373 52.4521 151.129 53.958 150.643 55.3525C150.163 56.7412 149.386 58.0186 148.314 59.1846C147.242 60.3447 145.853 61.3496 144.148 62.1992L143.049 60.6875C144.485 59.9609 145.674 59.1318 146.618 58.2002C147.567 57.2686 148.276 56.2227 148.745 55.0625C149.213 53.8965 149.448 52.6016 149.448 51.1777V50.835H151.373ZM150.441 52.4434H143.876V50.835H150.441V52.4434ZM171.625 65.0908H169.648V49.1738H171.625V65.0908ZM163.065 50.334C163.861 50.334 164.573 50.5654 165.2 51.0283C165.827 51.4854 166.316 52.1387 166.668 52.9883C167.02 53.832 167.195 54.8164 167.195 55.9414C167.195 57.0723 167.02 58.0625 166.668 58.9121C166.316 59.7559 165.827 60.4092 165.2 60.8721C164.573 61.335 163.861 61.5664 163.065 61.5664C162.262 61.5664 161.547 61.335 160.92 60.8721C160.293 60.4092 159.801 59.7559 159.443 58.9121C159.092 58.0625 158.916 57.0723 158.916 55.9414C158.916 54.8164 159.092 53.832 159.443 52.9883C159.801 52.1387 160.293 51.4854 160.92 51.0283C161.547 50.5654 162.262 50.334 163.065 50.334ZM163.065 52.0918C162.619 52.0859 162.224 52.2383 161.878 52.5488C161.538 52.8535 161.274 53.2959 161.087 53.876C160.899 54.4561 160.806 55.1445 160.806 55.9414C160.806 56.7383 160.899 57.4297 161.087 58.0156C161.274 58.5957 161.538 59.0381 161.878 59.3428C162.224 59.6416 162.619 59.791 163.065 59.791C163.51 59.791 163.902 59.6416 164.242 59.3428C164.582 59.0381 164.846 58.5957 165.033 58.0156C165.221 57.4297 165.315 56.7383 165.315 55.9414C165.315 55.1445 165.221 54.4561 165.033 53.876C164.846 53.2959 164.582 52.8535 164.242 52.5488C163.908 52.2383 163.516 52.0859 163.065 52.0918ZM186.595 58.2002H175.451V56.627H186.595V58.2002ZM188.221 63.0518H173.702V61.4346H188.221V63.0518ZM186.463 52.1445H177.393V57.2949H175.451V50.5537H186.463V52.1445ZM203.49 57.8486H188.971V56.3809H203.49V57.8486ZM201.733 62.4189H192.618V63.9834H190.658V61.1621H199.79V60.1865H190.65V58.7979H201.733V62.4189ZM202.207 64.8887H190.658V63.5352H202.207V64.8887ZM201.697 53.1113H192.75V54.5791H190.808V51.8457H199.729V50.8789H190.764V49.5254H201.697V53.1113ZM201.97 55.4844H190.808V54.1484H201.97V55.4844Z" fill="#1D60E7"/>
<path d="M109.729 85.0098C110.756 85.0098 111.613 84.9863 112.301 84.9395C112.988 84.8926 113.68 84.8047 114.375 84.6758L114.504 85.584C113.781 85.7246 113.068 85.8203 112.365 85.8711C111.662 85.918 110.783 85.9414 109.729 85.9414H108.908V85.0098H109.729ZM113.719 79.8887H110.027V85.3496H108.908V78.9688H113.719V79.8887ZM117.158 88.5195H116.039V77.9902H117.158V88.5195ZM116.514 82.666H113.127V81.752H116.514V82.666ZM131.136 83.0352H129.22V82.1094H131.136V83.0352ZM129.507 88.4844H128.4V77.9902H129.507V88.4844ZM122.839 85.5254H121.732V79.0156H122.839V85.5254ZM122.593 84.9277C123.417 84.9277 124.232 84.8906 125.036 84.8164C125.841 84.7422 126.658 84.6191 127.486 84.4473L127.62 85.3848C126.781 85.5566 125.949 85.6777 125.124 85.748C124.304 85.8184 123.46 85.8535 122.593 85.8535H121.732V84.9277H122.593ZM141.093 84.3711H131.519V83.4746H141.093V84.3711ZM140.021 88.2852H132.731V87.3652H140.021V88.2852ZM133.845 87.6523H132.731V85.2207H133.845V87.6523ZM136.306 78.3535C137.056 78.3457 137.714 78.4258 138.28 78.5938C138.847 78.7617 139.282 79.0059 139.587 79.3262C139.896 79.6426 140.05 80.0176 140.05 80.4512C140.05 80.8887 139.896 81.2656 139.587 81.582C139.282 81.8984 138.847 82.1426 138.28 82.3145C137.714 82.4863 137.056 82.5723 136.306 82.5723C135.544 82.5723 134.88 82.4863 134.314 82.3145C133.751 82.1426 133.315 81.8984 133.007 81.582C132.698 81.2656 132.544 80.8887 132.544 80.4512C132.544 80.0176 132.698 79.6426 133.007 79.3262C133.315 79.0059 133.751 78.7617 134.314 78.5938C134.88 78.4258 135.544 78.3457 136.306 78.3535ZM136.306 79.2324C135.771 79.2324 135.306 79.2812 134.911 79.3789C134.521 79.4766 134.22 79.6172 134.009 79.8008C133.802 79.9805 133.698 80.1973 133.698 80.4512C133.698 80.7012 133.802 80.918 134.009 81.1016C134.22 81.2852 134.521 81.4258 134.911 81.5234C135.306 81.6172 135.771 81.6641 136.306 81.6641C136.837 81.6641 137.298 81.6172 137.689 81.5234C138.083 81.4258 138.384 81.2852 138.591 81.1016C138.802 80.918 138.907 80.7012 138.907 80.4512C138.907 80.1973 138.802 79.9805 138.591 79.8008C138.384 79.6172 138.083 79.4766 137.689 79.3789C137.298 79.2812 136.837 79.2324 136.306 79.2324ZM149.106 79.2207C149.106 80.2285 148.989 81.1562 148.754 82.0039C148.52 82.8477 148.11 83.6406 147.524 84.3828C146.938 85.125 146.139 85.7773 145.127 86.3398L144.495 85.5605C145.385 85.0684 146.09 84.5078 146.61 83.8789C147.129 83.25 147.498 82.5684 147.717 81.834C147.936 81.0996 148.045 80.2891 148.045 79.4023V79.2207H149.106ZM148.432 80.1289H145.01V79.2207H148.432V80.1289ZM144.647 82.8184L144.495 81.8457L147.963 81.6406V82.4785L144.647 82.8184ZM150.623 82.9941H148.25V82.0859H150.623V82.9941ZM153.483 88.4902H152.428V77.9902H153.483V88.4902ZM151.268 87.9863H150.213V78.2598H151.268V87.9863ZM157.498 78.7812C158.014 78.7812 158.471 78.9336 158.869 79.2383C159.272 79.543 159.586 79.9727 159.813 80.5273C160.039 81.082 160.152 81.7285 160.152 82.4668C160.152 83.209 160.039 83.8574 159.813 84.4121C159.586 84.9668 159.272 85.3965 158.869 85.7012C158.471 86.002 158.014 86.1523 157.498 86.1523C156.982 86.1523 156.522 86.002 156.115 85.7012C155.713 85.4004 155.399 84.9727 155.172 84.418C154.945 83.8594 154.832 83.209 154.832 82.4668C154.832 81.7285 154.945 81.082 155.172 80.5273C155.399 79.9727 155.713 79.543 156.115 79.2383C156.522 78.9336 156.982 78.7812 157.498 78.7812ZM157.498 79.7773C157.186 79.7773 156.906 79.8867 156.66 80.1055C156.414 80.3242 156.225 80.6367 156.092 81.043C155.963 81.4453 155.899 81.9199 155.899 82.4668C155.899 83.0098 155.963 83.4844 156.092 83.8906C156.225 84.2969 156.414 84.6094 156.66 84.8281C156.906 85.043 157.186 85.1504 157.498 85.1504C157.811 85.1504 158.09 85.043 158.336 84.8281C158.582 84.6094 158.772 84.2969 158.904 83.8906C159.037 83.4844 159.104 83.0098 159.104 82.4668C159.104 81.9199 159.035 81.4453 158.899 81.043C158.766 80.6367 158.578 80.3242 158.336 80.1055C158.098 79.8867 157.818 79.7773 157.498 79.7773ZM163.41 88.5195H162.303V77.9902H163.41V88.5195ZM162.789 82.8418H159.801V81.9336H162.789V82.8418ZM174.439 83.668H164.83V82.8125H174.439V83.668ZM173.256 86.7148H167.092V87.8516H165.978V85.9766H172.154V85.2031H165.967V84.3945H173.256V86.7148ZM173.584 88.3672H165.978V87.582H173.584V88.3672ZM173.226 80.5391H167.168V81.5996H166.066V79.8008H172.113V79.0508H166.037V78.2656H173.226V80.5391ZM173.414 82.1211H166.066V81.3418H173.414V82.1211ZM181.234 78.4824C181.753 78.4746 182.22 78.5625 182.634 78.7461C183.048 78.9258 183.37 79.1816 183.601 79.5137C183.835 79.8418 183.952 80.2207 183.952 80.6504C183.952 81.0723 183.835 81.4492 183.601 81.7812C183.37 82.1133 183.048 82.3711 182.634 82.5547C182.22 82.7383 181.753 82.8301 181.234 82.8301C180.71 82.8301 180.243 82.7383 179.833 82.5547C179.423 82.3711 179.101 82.1133 178.866 81.7812C178.632 81.4492 178.515 81.0723 178.515 80.6504C178.515 80.2207 178.632 79.8418 178.866 79.5137C179.101 79.1816 179.423 78.9258 179.833 78.7461C180.243 78.5625 180.71 78.4746 181.234 78.4824ZM181.234 79.3848C180.913 79.377 180.628 79.4258 180.378 79.5312C180.132 79.6367 179.941 79.7871 179.804 79.9824C179.667 80.1777 179.599 80.4004 179.599 80.6504C179.599 80.9004 179.667 81.123 179.804 81.3184C179.941 81.5098 180.132 81.6582 180.378 81.7637C180.628 81.8652 180.913 81.916 181.234 81.916C181.558 81.916 181.845 81.8652 182.095 81.7637C182.345 81.6582 182.54 81.5098 182.681 81.3184C182.821 81.123 182.892 80.9004 182.892 80.6504C182.892 80.4004 182.821 80.1777 182.681 79.9824C182.54 79.7871 182.345 79.6367 182.095 79.5312C181.849 79.4258 181.562 79.377 181.234 79.3848ZM181.849 88.1797H180.735V83.9668H181.849V88.1797ZM186.507 88.4961H185.405V78.002H186.507V88.4961ZM177.776 83.6387C179.054 83.6387 180.269 83.6133 181.421 83.5625C182.573 83.5117 183.663 83.4121 184.691 83.2637L184.761 84.0898C183.804 84.2656 182.819 84.3848 181.808 84.4473C180.8 84.5098 179.671 84.5488 178.421 84.5645C178.269 84.5684 178.103 84.5703 177.923 84.5703L177.776 83.6387ZM196.223 85.8594H195.116V78.002H196.223V85.8594ZM197.753 82.3027H195.884V81.3828H197.753V82.3027ZM194.237 80.1172H187.985V79.2266H194.237V80.1172ZM191.114 80.627C191.614 80.627 192.055 80.709 192.438 80.873C192.825 81.0371 193.126 81.2695 193.341 81.5703C193.555 81.8711 193.663 82.2188 193.663 82.6133C193.663 83.0039 193.555 83.3477 193.341 83.6445C193.126 83.9375 192.825 84.166 192.438 84.3301C192.055 84.4941 191.614 84.5762 191.114 84.5762C190.614 84.5762 190.169 84.4941 189.778 84.3301C189.391 84.166 189.091 83.9375 188.876 83.6445C188.665 83.3477 188.559 83.0039 188.559 82.6133C188.559 82.2188 188.665 81.8711 188.876 81.5703C189.091 81.2695 189.391 81.0371 189.778 80.873C190.169 80.709 190.614 80.627 191.114 80.627ZM191.114 81.4941C190.821 81.4941 190.561 81.5391 190.335 81.6289C190.108 81.7148 189.934 81.8438 189.813 82.0156C189.692 82.1875 189.632 82.3867 189.632 82.6133C189.632 82.8398 189.692 83.0352 189.813 83.1992C189.934 83.3633 190.108 83.4902 190.335 83.5801C190.561 83.666 190.821 83.709 191.114 83.709C191.407 83.709 191.667 83.666 191.893 83.5801C192.124 83.4902 192.302 83.3633 192.427 83.1992C192.552 83.0352 192.614 82.8398 192.614 82.6133C192.614 82.3867 192.552 82.1875 192.427 82.0156C192.302 81.8438 192.124 81.7148 191.893 81.6289C191.667 81.5391 191.407 81.4941 191.114 81.4941ZM191.671 79.6777H190.563V77.9961H191.671V79.6777ZM196.669 88.2852H189.573V87.3652H196.669V88.2852ZM190.675 87.7461H189.573V85.2441H190.675V87.7461ZM209.029 80.7031H206.34V79.8066H209.029V80.7031ZM209.668 83.3926H208.555V77.9902H209.668V83.3926ZM209.668 86.5039H203.92V88.0156H202.824V85.666H208.567V84.7695H202.807V83.8906H209.668V86.5039ZM210.026 88.3613H202.824V87.4766H210.026V88.3613ZM204.401 79.25C204.401 79.8984 204.283 80.502 204.049 81.0605C203.819 81.6152 203.483 82.0977 203.041 82.5078C202.604 82.9141 202.082 83.2246 201.477 83.4395L200.879 82.5488C201.418 82.3809 201.883 82.1309 202.274 81.7988C202.668 81.4629 202.973 81.0781 203.188 80.6445C203.402 80.207 203.51 79.7422 203.51 79.25V78.3359H204.401V79.25ZM204.611 79.25C204.611 79.6953 204.713 80.1211 204.916 80.5273C205.123 80.9336 205.418 81.293 205.801 81.6055C206.188 81.918 206.639 82.1602 207.154 82.332L206.563 83.1934C205.985 82.9863 205.479 82.6895 205.045 82.3027C204.611 81.9121 204.277 81.457 204.043 80.9375C203.813 80.4141 203.697 79.8516 203.697 79.25V78.3359H204.611V79.25ZM219.144 80.5449H216.174V79.6426H219.144V80.5449ZM219.168 82.6484H216.174V81.7227H219.168V82.6484ZM219.859 84.1895H218.746V77.9902H219.859V84.1895ZM216.461 83.498H211.58V78.7812H216.461V83.498ZM212.687 82.6016H215.365V79.6777H212.687V82.6016ZM216.338 84.4883C217.076 84.4883 217.711 84.5664 218.242 84.7227C218.777 84.875 219.185 85.1035 219.467 85.4082C219.752 85.709 219.894 86.0703 219.894 86.4922C219.894 86.9062 219.752 87.2617 219.467 87.5586C219.185 87.8594 218.779 88.0879 218.248 88.2441C217.717 88.4004 217.08 88.4785 216.338 88.4785C215.607 88.4785 214.976 88.4004 214.445 88.2441C213.914 88.0879 213.506 87.8594 213.221 87.5586C212.935 87.2617 212.793 86.9062 212.793 86.4922C212.793 86.0703 212.935 85.709 213.221 85.4082C213.506 85.1035 213.914 84.875 214.445 84.7227C214.976 84.5664 215.607 84.4883 216.338 84.4883ZM216.338 85.3438C215.826 85.3438 215.387 85.3887 215.019 85.4785C214.656 85.5684 214.377 85.6992 214.181 85.8711C213.99 86.043 213.894 86.25 213.894 86.4922C213.894 86.7188 213.99 86.916 214.181 87.084C214.377 87.252 214.658 87.3828 215.025 87.4766C215.396 87.5664 215.834 87.6113 216.338 87.6113C216.853 87.6113 217.293 87.5664 217.656 87.4766C218.023 87.3828 218.303 87.2539 218.494 87.0898C218.689 86.9258 218.787 86.7266 218.787 86.4922C218.787 86.25 218.689 86.043 218.494 85.8711C218.303 85.6992 218.023 85.5684 217.656 85.4785C217.293 85.3887 216.853 85.3438 216.338 85.3438ZM229.505 82.3848H226.605V81.4883H229.505V82.3848ZM224.871 80.6621C224.871 81.4668 224.75 82.2441 224.507 82.9941C224.265 83.7402 223.923 84.4023 223.482 84.9805C223.041 85.5586 222.529 86.002 221.947 86.3105L221.238 85.4082C221.773 85.1543 222.246 84.7793 222.656 84.2832C223.07 83.7832 223.39 83.2168 223.617 82.584C223.843 81.9512 223.957 81.3105 223.957 80.6621V78.8633H224.871V80.6621ZM225.087 80.6621C225.087 81.3066 225.199 81.9336 225.421 82.543C225.648 83.1484 225.962 83.6875 226.365 84.1602C226.771 84.6289 227.236 84.9824 227.759 85.2207L227.091 86.123C226.505 85.8223 225.994 85.3965 225.556 84.8457C225.123 84.291 224.785 83.6543 224.543 82.9355C224.304 82.2129 224.185 81.4551 224.185 80.6621V78.8633H225.087V80.6621ZM230.056 88.5195H228.949V77.9902H230.056V88.5195Z" fill="#9CA3AF"/>
<rect x="20" y="104" width="295" height="38" rx="19" fill="#1D60E7"/>
<path d="M132.494 129.148H131.202V116.905H132.494V129.148ZM134.395 122.88H132.159V121.8H134.395V122.88ZM129.288 118.204C129.288 119.43 129.097 120.576 128.714 121.643C128.336 122.704 127.729 123.684 126.896 124.582C126.066 125.475 124.997 126.245 123.689 126.893L122.965 125.881C124.09 125.316 125.027 124.664 125.774 123.926C126.522 123.183 127.082 122.356 127.456 121.444C127.83 120.528 128.017 119.523 128.017 118.43V118.204H129.288ZM128.673 119.284H123.566V118.204H128.673V119.284ZM144.992 129.189H143.686V116.905H144.992V129.189ZM138.43 117.828C139.04 117.828 139.585 118.006 140.063 118.361C140.542 118.717 140.916 119.218 141.185 119.865C141.453 120.512 141.588 121.267 141.588 122.128C141.588 122.994 141.453 123.75 141.185 124.397C140.916 125.045 140.542 125.546 140.063 125.901C139.585 126.252 139.04 126.428 138.43 126.428C137.819 126.428 137.272 126.252 136.789 125.901C136.311 125.546 135.937 125.045 135.668 124.397C135.399 123.75 135.265 122.994 135.265 122.128C135.265 121.267 135.399 120.512 135.668 119.865C135.937 119.218 136.311 118.717 136.789 118.361C137.272 118.006 137.819 117.828 138.43 117.828ZM138.43 118.99C138.056 118.99 137.723 119.118 137.432 119.373C137.14 119.628 136.914 119.993 136.755 120.467C136.6 120.936 136.522 121.49 136.522 122.128C136.522 122.761 136.6 123.315 136.755 123.789C136.914 124.263 137.14 124.628 137.432 124.883C137.723 125.133 138.056 125.259 138.43 125.259C138.803 125.259 139.134 125.133 139.421 124.883C139.713 124.628 139.938 124.263 140.098 123.789C140.257 123.315 140.337 122.761 140.337 122.128C140.337 121.49 140.257 120.936 140.098 120.467C139.938 119.993 139.715 119.628 139.428 119.373C139.141 119.118 138.808 118.99 138.43 118.99ZM156.656 123.789H148.125V122.729H156.656V123.789ZM157.941 127.549H146.73V126.469H157.941V127.549ZM156.54 119.072H149.41V123.188H148.125V118.013H156.54V119.072ZM173.039 127.638H161.828V126.571H173.039V127.638ZM168.042 126.872H166.77V123.714H168.042V126.872ZM164.412 119.858H170.428V117.746H171.706V124.056H163.106V117.746H164.412V119.858ZM170.428 123.003V120.904H164.412V123.003H170.428ZM183.917 129.189H182.632V116.905H183.917V129.189ZM182.932 122.593H180.389V121.52H182.932V122.593ZM175.133 125.177C176.331 125.177 177.338 125.152 178.154 125.102C178.974 125.051 179.804 124.949 180.642 124.794L180.745 125.874C179.888 126.024 179.036 126.127 178.188 126.182C177.341 126.232 176.322 126.261 175.133 126.271H174.176V125.177H175.133ZM179.665 122.401H175.468V125.519H174.176V121.349H178.4V119.072H174.135V118.013H179.665V122.401ZM198.358 129.148H197.066V116.905H198.358V129.148ZM200.259 122.88H198.023V121.8H200.259V122.88ZM195.152 118.204C195.152 119.43 194.961 120.576 194.578 121.643C194.2 122.704 193.593 123.684 192.759 124.582C191.93 125.475 190.861 126.245 189.553 126.893L188.829 125.881C189.954 125.316 190.891 124.664 191.638 123.926C192.386 123.183 192.946 122.356 193.32 121.444C193.694 120.528 193.881 119.523 193.881 118.43V118.204H195.152ZM194.537 119.284H189.43V118.204H194.537V119.284ZM210.89 129.155H209.578V116.905H210.89V129.155ZM207.254 118.225C207.254 119.473 207.06 120.629 206.673 121.69C206.29 122.748 205.674 123.723 204.827 124.616C203.979 125.505 202.876 126.275 201.518 126.927L200.821 125.874C202.001 125.318 202.97 124.671 203.726 123.933C204.487 123.194 205.05 122.369 205.415 121.458C205.779 120.547 205.962 119.539 205.962 118.437V118.225H207.254ZM206.522 119.264H201.416V118.225H206.522V119.264Z" fill="#FEFEFE"/>
</svg>
