<svg width="335" height="163" viewBox="0 0 335 163" fill="none" xmlns="http://www.w3.org/2000/svg">
<rect x="0.5" y="0.5" width="334" height="162" rx="11.5" fill="#F2F6FD"/>
<rect x="0.5" y="0.5" width="334" height="162" rx="11.5" stroke="#D4DFF5"/>
<path d="M44.2677 69.3372H30.641C28.1671 69.3372 26.1616 67.3317 26.1616 64.8578V31.5691C26.1616 29.0952 28.1671 27.0898 30.641 27.0898H59.5918C62.0657 27.0898 64.0711 29.0952 64.0711 31.5691V44.4414" stroke="#006AF9" stroke-width="3" stroke-miterlimit="10" stroke-linecap="round"/>
<path d="M49 48C48.2348 42.8375 45.9815 41.3729 44.4664 40.3677C43.5382 39.7519 42.6662 39.6583 41.844 38.919C41.04 38.1727 40.379 37.1864 40.4169 36.1348C40.4422 35.0759 41.3488 34.0008 42.4969 34C43.6375 33.9993 44.5447 35.0806 44.5827 36.1322C44.6207 37.1838 43.9599 38.1673 43.1559 38.9136C42.3338 39.6529 41.4618 39.7464 40.5336 40.3622C39.0185 41.3675 36.7652 42.8321 36 47.9946" stroke="#1D60E7" stroke-width="2.5" stroke-linecap="round" stroke-linejoin="round"/>
<path d="M34.665 53.5309H42.983" stroke="#006AF9" stroke-width="3" stroke-miterlimit="10" stroke-linecap="round"/>
<path d="M34.665 60.9359H42.983" stroke="#006AF9" stroke-width="3" stroke-miterlimit="10" stroke-linecap="round"/>
<path d="M51.5972 52.3329C51.9789 52.3016 52.3832 52.4234 52.7437 52.7714C56.7498 56.6508 60.1506 61.1861 62.6968 66.1493L63.1948 67.1474C63.8077 68.4213 64.3437 70.0097 64.5649 71.6024C64.7863 73.196 64.6918 74.7877 64.0522 76.0732L64.0347 76.1073L64.0571 76.1396C65.7891 78.5347 67.4059 81.0069 68.9126 83.5439C69.1691 83.976 69.192 84.3937 69.0698 84.7509C68.9471 85.1098 68.6759 85.4124 68.3394 85.6083C68.0028 85.8042 67.6045 85.8914 67.229 85.8232C66.8552 85.7552 66.4998 85.5328 66.2466 85.1024C64.8604 82.7685 63.3839 80.4918 61.8042 78.2802L61.772 78.2362L61.7231 78.2597C61.4893 78.3734 61.2355 78.4625 60.9663 78.5458C58.5359 79.2647 55.9615 78.0259 54.0054 76.6103V76.6093C53.0392 75.9104 51.9951 75.1248 51.1382 74.203C50.2815 73.2815 49.6152 72.2274 49.3989 70.994C48.9778 68.5952 50.325 65.9746 52.9165 65.7597C54.2659 65.6425 55.4293 66.2069 56.4565 67.039C57.4848 67.8718 58.3692 68.9661 59.1636 69.8993C59.9814 70.8588 60.7803 71.8314 61.5464 72.8163L61.6694 72.9745L61.6616 72.7743C61.6291 71.9738 61.4269 71.123 61.2007 70.3925C60.6053 68.5093 59.5512 66.7311 58.5532 65.0507C56.353 61.3341 53.6555 57.9599 50.5522 54.9599C50.1918 54.6103 50.0619 54.2145 50.0874 53.8398C50.1132 53.463 50.2969 53.1015 50.5728 52.8261C50.8485 52.5507 51.2136 52.3644 51.5972 52.3329ZM53.1431 68.8339C52.9052 68.8558 52.73 68.9985 52.6108 69.1913C52.4922 69.3834 52.426 69.6294 52.4028 69.871V69.872C52.3495 70.5061 52.6106 71.0946 53.021 71.6483V71.6493C53.5323 72.3363 54.6498 73.4005 55.9175 74.2626C56.5518 74.694 57.2255 75.0768 57.8823 75.3358C58.5385 75.5946 59.1826 75.7316 59.7544 75.6689L59.8687 75.6571L59.7983 75.5663C59.0052 74.5346 58.1935 73.5279 57.3618 72.5351H57.3608C56.725 71.781 56.0908 70.9987 55.4009 70.2821L55.1021 69.9794C54.8713 69.7518 54.5705 69.448 54.2368 69.2108C53.9457 69.0039 53.6208 68.841 53.2866 68.829L53.1431 68.8339Z" fill="#006AF9" stroke="#F2F6FD" stroke-width="0.128867"/>
<path d="M60.7612 56.5775C66.0228 56.9691 70.9498 60.1785 73.2202 64.976C73.5832 65.7396 73.4359 66.6467 72.6665 67.0961C72.3316 67.2927 71.8913 67.3433 71.4888 67.2484C71.0867 67.1535 70.7298 66.9155 70.5532 66.5443C70.3073 66.02 70.029 65.5152 69.7183 65.0297V65.0287C69.5721 64.8007 69.4141 64.5735 69.2515 64.3549C69.2494 64.3497 69.2466 64.3461 69.2466 64.3461L69.2437 64.3402C69.243 64.3393 69.2423 64.3382 69.2417 64.3373C69.2392 64.3338 69.235 64.3283 69.23 64.3217L69.145 64.2162C69.0427 64.0883 68.9389 63.9586 68.8286 63.8353C68.4662 63.4212 68.0785 63.0328 67.6714 62.6644C67.4707 62.4831 67.2563 62.3017 67.0425 62.1332L67.0405 62.1351C66.9919 62.0973 66.929 62.0481 66.9146 62.0365L66.9126 62.0355C66.802 61.9509 66.6914 61.8731 66.5747 61.7953H66.5757C66.0966 61.4651 65.5977 61.1681 65.0864 60.9027L65.0854 60.9017C64.8422 60.7801 64.5969 60.6581 64.3452 60.5482L64.3472 60.5453C64.3198 60.534 64.2986 60.5256 64.2847 60.5199C64.2779 60.5171 64.2728 60.5146 64.269 60.5131C64.2673 60.5124 64.2656 60.5117 64.2642 60.5111C64.2635 60.5109 64.2615 60.5106 64.2603 60.5101C64.2596 60.5099 64.2586 60.5095 64.2573 60.5092C64.2566 60.5089 64.2552 60.5086 64.2534 60.5082C64.2529 60.5081 64.2497 60.5076 64.2456 60.5072L64.1899 60.4867H64.189C64.1253 60.4644 64.0611 60.4406 63.9966 60.4164C63.9323 60.3923 63.8674 60.3669 63.8022 60.3441H63.8013C63.2582 60.1502 62.702 59.9885 62.1392 59.8656C61.9077 59.8148 61.6707 59.7695 61.4331 59.7328H61.4321C61.4291 59.7316 61.4261 59.7311 61.4253 59.7308L61.4233 59.7299C61.4217 59.7295 61.42 59.729 61.4194 59.7289C61.4134 59.7278 61.3855 59.7241 61.3286 59.7162L61.3276 59.7181C61.2775 59.7122 61.2176 59.706 61.1831 59.7035H61.1841C61.1125 59.697 61.0424 59.6917 60.9741 59.6869C60.9057 59.6821 60.8386 59.6776 60.772 59.6713H60.77C59.9263 59.6086 59.2192 59.0112 59.2192 58.1244C59.2192 57.7306 59.3962 57.3268 59.6802 57.0297C59.9639 56.7328 60.3495 56.547 60.7612 56.5775ZM69.2358 64.3314C69.2371 64.3327 69.2383 64.3339 69.2388 64.3344L69.2397 64.3363L69.2358 64.3314ZM64.271 60.515L64.272 60.516L64.2681 60.514H64.269C64.2693 60.5142 64.27 60.5145 64.271 60.515Z" fill="#006AF9" stroke="#F2F6FD" stroke-width="0.128867"/>
<path d="M64.7231 53.0322C65.077 52.8199 65.4983 52.7417 65.8853 52.8818C74.4394 56.0077 81.655 62.4269 85.5845 70.6777C85.9475 71.4414 85.8001 72.3484 85.0308 72.7979V72.7988C84.6959 72.9954 84.2555 73.0461 83.853 72.9512C83.4509 72.8563 83.094 72.6175 82.9175 72.2461C79.3474 64.7445 72.8981 58.7276 65.0728 55.8672L64.9858 55.835V55.8369C64.235 55.5213 63.7598 54.791 63.9849 53.9668C64.0894 53.5885 64.369 53.2447 64.7231 53.0322Z" fill="#006AF9" stroke="#F2F6FD" stroke-width="0.128867"/>
<path d="M123.056 38.6484H108.536V37.0137H123.056V38.6484ZM121.781 27.7236H109.714V26.1416H121.781V27.7236ZM121.72 34.333H109.775V32.7686H121.72V34.333ZM113.968 32.9355H112.008V27.5654H113.968V32.9355ZM119.461 32.9355H117.536V27.5654H119.461V32.9355ZM138.342 38.7188H123.823V37.1104H138.342V38.7188ZM132.005 37.7959H130.081V33.9727H132.005V37.7959ZM136.611 30.8613H127.488V33.7441H125.537V29.3232H134.686V27.3369H125.51V25.7549H136.611V30.8613ZM136.989 34.5088H125.537V32.918H136.989V34.5088ZM152.355 32.8564H150.395V24.6738H152.355V32.8564ZM152.355 37.6289H143.671V39.7383H141.737V36.2139H150.421V35.0625H141.693V33.5332H152.355V37.6289ZM152.856 40.4238H141.737V38.8682H152.856V40.4238ZM148.408 27.2051H139.795V25.6934H148.408V27.2051ZM139.364 30.9053C141.157 30.9053 142.877 30.873 144.523 30.8086C146.17 30.7383 147.69 30.6211 149.085 30.457L149.173 31.8721C147.737 32.0947 146.199 32.25 144.559 32.3379C142.918 32.4199 141.26 32.4609 139.584 32.4609L139.364 30.9053ZM143.056 31.6611H141.175V26.3789H143.056V31.6611ZM147.002 31.6611H145.121V26.3789H147.002V31.6611ZM115.567 51.502C115.567 53.0723 115.395 54.502 115.049 55.791C114.709 57.0742 114.103 58.2725 113.229 59.3857C112.356 60.499 111.155 61.4863 109.626 62.3477L108.527 61.0029C109.84 60.2529 110.874 59.4209 111.63 58.5068C112.386 57.5869 112.919 56.585 113.229 55.501C113.546 54.4111 113.704 53.1865 113.704 51.8271V51.502H115.567ZM114.354 53.084H109.345V51.502H114.354V53.084ZM108.817 57.1006L108.571 55.4219L113.651 55.1318V56.6084L108.817 57.1006ZM117.712 57.3555H114.258V55.7822H117.712V57.3555ZM122.229 65.5469H120.384V49.6738H122.229V65.5469ZM118.863 64.8174H117.018V50.0605H118.863V64.8174ZM128.156 50.834C128.941 50.834 129.638 51.0654 130.248 51.5283C130.863 51.9854 131.343 52.6387 131.689 53.4883C132.041 54.332 132.216 55.3164 132.216 56.4414C132.216 57.5723 132.041 58.5625 131.689 59.4121C131.343 60.2559 130.863 60.9092 130.248 61.3721C129.638 61.835 128.941 62.0664 128.156 62.0664C127.365 62.0664 126.662 61.8379 126.046 61.3809C125.431 60.918 124.948 60.2617 124.596 59.4121C124.251 58.5625 124.078 57.5723 124.078 56.4414C124.078 55.3164 124.251 54.332 124.596 53.4883C124.948 52.6387 125.431 51.9854 126.046 51.5283C126.662 51.0654 127.365 50.834 128.156 50.834ZM128.156 52.5918C127.722 52.5859 127.335 52.7383 126.996 53.0488C126.662 53.3594 126.404 53.8047 126.222 54.3848C126.041 54.959 125.95 55.6445 125.95 56.4414C125.95 57.2383 126.041 57.9297 126.222 58.5156C126.404 59.0957 126.662 59.5381 126.996 59.8428C127.335 60.1416 127.722 60.291 128.156 60.291C128.589 60.291 128.973 60.1416 129.307 59.8428C129.647 59.5381 129.908 59.0957 130.089 58.5156C130.271 57.9297 130.362 57.2383 130.362 56.4414C130.362 55.6387 130.271 54.9502 130.089 54.376C129.908 53.7959 129.65 53.3535 129.316 53.0488C128.988 52.7383 128.601 52.5859 128.156 52.5918ZM137.129 65.5908H135.196V49.6738H137.129V65.5908ZM136.04 57.1006H131.619V55.5186H136.04V57.1006Z" fill="#1D60E7"/>
<path d="M161.621 24.999C162.804 24.999 163.815 25.1045 164.653 25.3154C165.491 25.5205 166.129 25.8252 166.569 26.2295C167.014 26.6338 167.237 27.123 167.237 27.6973C167.237 28.2832 167.014 28.7812 166.569 29.1914C166.129 29.5957 165.491 29.9033 164.653 30.1143C163.815 30.3252 162.804 30.4365 161.621 30.4482C160.437 30.4365 159.423 30.3252 158.58 30.1143C157.742 29.9033 157.097 29.5957 156.646 29.1914C156.201 28.7812 155.978 28.2832 155.978 27.6973C155.978 27.123 156.201 26.6338 156.646 26.2295C157.097 25.8252 157.742 25.5205 158.58 25.3154C159.423 25.1045 160.437 24.999 161.621 24.999ZM161.621 26.2383C160.789 26.2383 160.08 26.2939 159.494 26.4053C158.914 26.5166 158.474 26.6836 158.175 26.9062C157.877 27.1289 157.727 27.3926 157.727 27.6973C157.727 28.0312 157.874 28.3096 158.167 28.5322C158.46 28.749 158.896 28.9131 159.476 29.0244C160.056 29.1357 160.771 29.1914 161.621 29.1914C162.47 29.1914 163.185 29.1357 163.765 29.0244C164.345 28.9131 164.782 28.7461 165.075 28.5234C165.374 28.2949 165.523 28.0195 165.523 27.6973C165.523 27.3926 165.371 27.1318 165.066 26.915C164.767 26.6982 164.325 26.5312 163.739 26.4141C163.159 26.2969 162.453 26.2383 161.621 26.2383ZM168.801 32.7422H154.44V31.4062H168.801V32.7422ZM166.982 37.6465H157.824V39.3955H156.18V36.4424H165.347V35.2031H156.154V33.9551H166.982V37.6465ZM167.439 40.3359H156.18V39.0439H167.439V40.3359ZM179.511 33.6299H177.833V31.2305H179.511V33.6299ZM178.632 25.4473C179.4 25.4473 180.08 25.5791 180.671 25.8428C181.263 26.1064 181.726 26.4756 182.06 26.9502C182.4 27.4189 182.57 27.9668 182.57 28.5938C182.57 29.1973 182.4 29.7363 182.06 30.2109C181.726 30.6855 181.263 31.0547 180.671 31.3184C180.08 31.582 179.4 31.7139 178.632 31.7139C177.877 31.7139 177.197 31.582 176.593 31.3184C175.996 31.0547 175.533 30.6855 175.205 30.2109C174.877 29.7363 174.713 29.1973 174.713 28.5938C174.713 27.9785 174.877 27.4336 175.205 26.959C175.533 26.4785 175.996 26.1064 176.593 25.8428C177.197 25.5791 177.877 25.4473 178.632 25.4473ZM178.632 26.7305C178.175 26.7305 177.768 26.8066 177.411 26.959C177.053 27.1113 176.775 27.3281 176.576 27.6094C176.377 27.8906 176.277 28.2188 176.277 28.5938C176.277 28.957 176.377 29.2764 176.576 29.5518C176.775 29.8271 177.053 30.0439 177.411 30.2021C177.774 30.3545 178.181 30.4336 178.632 30.4395C179.095 30.4336 179.505 30.3545 179.863 30.2021C180.22 30.0439 180.499 29.8271 180.698 29.5518C180.897 29.2764 180.997 28.957 180.997 28.5938C180.997 28.2188 180.897 27.8906 180.698 27.6094C180.504 27.3223 180.226 27.1055 179.863 26.959C179.505 26.8066 179.095 26.7305 178.632 26.7305ZM186.253 36.7939H184.574V24.7529H186.253V36.7939ZM188.494 31.3623H185.593V29.9561H188.494V31.3623ZM186.806 40.1514H176.048V38.7803H186.806V40.1514ZM177.736 39.3955H176.048V35.748H177.736V39.3955ZM173.825 33.1816C175.583 33.1934 177.294 33.1641 178.958 33.0938C180.622 33.0234 182.171 32.8799 183.607 32.6631L183.73 33.8936C182.271 34.1514 180.745 34.3242 179.151 34.4121C177.563 34.4941 175.852 34.5352 174.018 34.5352L173.825 33.1816ZM194.429 27.1787C194.429 28.2041 194.25 29.1592 193.893 30.0439C193.541 30.9229 193.031 31.6904 192.363 32.3467C191.695 32.9971 190.901 33.4951 189.982 33.8408L189.076 32.4873C189.902 32.2061 190.617 31.7988 191.221 31.2656C191.824 30.7324 192.284 30.1143 192.601 29.4111C192.917 28.708 193.075 27.9639 193.075 27.1787V25.6143H194.429V27.1787ZM194.736 27.0996C194.736 27.832 194.886 28.5293 195.185 29.1914C195.489 29.8535 195.929 30.4336 196.503 30.9316C197.077 31.4238 197.757 31.7988 198.542 32.0566L197.619 33.3574C196.74 33.0352 195.984 32.5693 195.352 31.96C194.719 31.3506 194.23 30.6328 193.884 29.8066C193.544 28.9746 193.374 28.0723 193.374 27.0996V25.6143H194.736V27.0996ZM202.269 34.0342H200.599V24.7354H202.269V34.0342ZM196.986 34.4824C198.094 34.4824 199.046 34.5996 199.843 34.834C200.646 35.0625 201.258 35.4053 201.68 35.8623C202.108 36.3135 202.321 36.8555 202.321 37.4883C202.321 38.1094 202.108 38.6426 201.68 39.0879C201.258 39.5391 200.646 39.8818 199.843 40.1162C199.046 40.3506 198.094 40.4678 196.986 40.4678C195.891 40.4678 194.944 40.3506 194.148 40.1162C193.351 39.8818 192.738 39.5391 192.311 39.0879C191.883 38.6426 191.669 38.1094 191.669 37.4883C191.669 36.8555 191.883 36.3135 192.311 35.8623C192.738 35.4053 193.351 35.0625 194.148 34.834C194.944 34.5996 195.891 34.4824 196.986 34.4824ZM196.986 35.7832C196.231 35.7832 195.574 35.8506 195.018 35.9854C194.467 36.1143 194.045 36.3076 193.752 36.5654C193.465 36.8174 193.321 37.125 193.321 37.4883C193.321 37.8281 193.465 38.124 193.752 38.376C194.045 38.6221 194.467 38.8125 195.018 38.9473C195.574 39.082 196.231 39.1494 196.986 39.1494C197.76 39.1494 198.419 39.082 198.964 38.9473C199.515 38.8125 199.934 38.6221 200.221 38.376C200.514 38.124 200.66 37.8281 200.66 37.4883C200.66 37.125 200.514 36.8174 200.221 36.5654C199.934 36.3076 199.515 36.1143 198.964 35.9854C198.419 35.8506 197.76 35.7832 196.986 35.7832ZM200.898 29.3232H197.276V27.9521H200.898V29.3232ZM216.694 40.4854H215.042V24.7354H216.694V40.4854ZM219.234 32.5049H216.316V31.125H219.234V32.5049ZM213.671 28.5674H204.337V27.2051H213.671V28.5674ZM209.074 29.7363C209.824 29.7363 210.495 29.8916 211.087 30.2021C211.684 30.5127 212.15 30.9463 212.484 31.5029C212.824 32.0596 212.994 32.6895 212.994 33.3926C212.994 34.1016 212.824 34.7344 212.484 35.291C212.15 35.8477 211.684 36.2812 211.087 36.5918C210.495 36.9023 209.824 37.0576 209.074 37.0576C208.318 37.0576 207.644 36.9023 207.052 36.5918C206.461 36.2812 205.995 35.8477 205.655 35.291C205.321 34.7344 205.154 34.1016 205.154 33.3926C205.154 32.6895 205.321 32.0596 205.655 31.5029C205.995 30.9463 206.461 30.5127 207.052 30.2021C207.644 29.8916 208.318 29.7363 209.074 29.7363ZM209.074 31.1162C208.629 31.1162 208.23 31.2129 207.879 31.4062C207.527 31.5938 207.249 31.8604 207.044 32.2061C206.844 32.5518 206.745 32.9473 206.745 33.3926C206.745 33.8438 206.844 34.2393 207.044 34.5791C207.249 34.9189 207.527 35.1855 207.879 35.3789C208.23 35.5664 208.629 35.6602 209.074 35.6602C209.519 35.6602 209.918 35.5664 210.269 35.3789C210.621 35.1855 210.896 34.9189 211.095 34.5791C211.295 34.2393 211.394 33.8438 211.394 33.3926C211.394 32.9473 211.295 32.5518 211.095 32.2061C210.896 31.8604 210.621 31.5938 210.269 31.4062C209.918 31.2129 209.519 31.1162 209.074 31.1162ZM209.891 27.7852H208.23V24.9463H209.891V27.7852ZM231.409 27.6094H221.223V26.2559H231.409V27.6094ZM234.072 38.3584H219.711V36.9873H234.072V38.3584ZM226.821 37.6992H225.178V31.4326H226.821V37.6992ZM232.455 28.0049C232.449 29.2998 232.411 30.4717 232.341 31.5205C232.277 32.5635 232.118 33.7764 231.866 35.1592L230.17 34.9746C230.434 33.6738 230.601 32.499 230.671 31.4502C230.747 30.3955 230.785 29.25 230.785 28.0137V27.8027V26.2559H232.455V27.8027V28.0049ZM153.55 58.252H139.136V56.9688H153.55V58.252ZM151.774 62.8223H142.528V64.5273H140.858V61.7148H150.122V60.5547H140.841V59.3418H151.774V62.8223ZM152.267 65.3008H140.858V64.123H152.267V65.3008ZM151.731 53.5586H142.643V55.1494H140.99V52.4512H150.061V51.3262H140.946V50.1484H151.731V53.5586ZM152.012 55.9316H140.99V54.7627H152.012V55.9316ZM171.625 61.293H169.964V49.7529H171.625V61.293ZM172.1 65.1777H161.333V63.7979H172.1V65.1777ZM163.003 64.4922H161.333V60.2031H163.003V64.4922ZM163.979 52.1875C163.979 53.2188 163.797 54.1914 163.434 55.1055C163.076 56.0137 162.564 56.8105 161.896 57.4961C161.228 58.1816 160.442 58.7002 159.54 59.0518L158.652 57.7422C159.461 57.4434 160.164 57.0098 160.762 56.4414C161.359 55.8672 161.814 55.2139 162.124 54.4814C162.435 53.7432 162.59 52.9785 162.59 52.1875V50.6318H163.979V52.1875ZM164.304 52.1875C164.304 52.9492 164.456 53.6787 164.761 54.376C165.066 55.0674 165.514 55.6826 166.106 56.2217C166.697 56.7549 167.386 57.1621 168.171 57.4434L167.31 58.7705C166.401 58.4307 165.616 57.9414 164.954 57.3027C164.298 56.6582 163.791 55.8994 163.434 55.0264C163.076 54.1475 162.898 53.2012 162.898 52.1875V50.6318H164.304V52.1875ZM179.072 53.1104C179.072 54.0186 178.893 54.874 178.536 55.6768C178.178 56.4736 177.666 57.165 176.998 57.751C176.336 58.3311 175.55 58.7676 174.642 59.0605L173.851 57.7773C174.636 57.5254 175.322 57.1621 175.908 56.6875C176.494 56.207 176.942 55.6592 177.253 55.0439C177.563 54.4229 177.718 53.7783 177.718 53.1104V52.4512H179.072V53.1104ZM179.362 53.1104C179.362 53.7197 179.523 54.3086 179.845 54.877C180.173 55.4453 180.633 55.9463 181.225 56.3799C181.817 56.8076 182.505 57.1357 183.291 57.3643L182.5 58.6562C181.586 58.3984 180.792 57.9971 180.118 57.4521C179.45 56.9072 178.931 56.2598 178.562 55.5098C178.193 54.7598 178.008 53.96 178.008 53.1104V52.4512H179.362V53.1104ZM182.798 52.8994H174.291V51.5723H182.798V52.8994ZM179.397 52.0645H177.718V49.665H179.397V52.0645ZM185.76 55.5186H182.315V54.1562H185.76V55.5186ZM186.982 59.2803H185.312V49.7354H186.982V59.2803ZM181.7 59.6494C182.807 59.6494 183.759 59.7637 184.556 59.9922C185.359 60.2148 185.971 60.543 186.393 60.9766C186.821 61.4043 187.035 61.9287 187.035 62.5498C187.035 63.1592 186.821 63.6836 186.393 64.123C185.971 64.5625 185.359 64.8965 184.556 65.125C183.759 65.3535 182.807 65.4678 181.7 65.4678C180.61 65.4678 179.664 65.3535 178.861 65.125C178.064 64.8965 177.452 64.5625 177.024 64.123C176.596 63.6836 176.382 63.1592 176.382 62.5498C176.382 61.9287 176.596 61.4043 177.024 60.9766C177.452 60.543 178.064 60.2148 178.861 59.9922C179.658 59.7637 180.604 59.6494 181.7 59.6494ZM181.7 60.9326C180.932 60.9326 180.273 60.9971 179.722 61.126C179.177 61.249 178.758 61.4336 178.465 61.6797C178.178 61.9199 178.035 62.21 178.035 62.5498C178.035 62.8779 178.178 63.165 178.465 63.4111C178.758 63.6572 179.18 63.8447 179.731 63.9736C180.288 64.1025 180.944 64.167 181.7 64.167C182.473 64.167 183.132 64.1025 183.677 63.9736C184.228 63.8447 184.647 63.6602 184.934 63.4199C185.227 63.1797 185.374 62.8896 185.374 62.5498C185.374 62.21 185.23 61.9199 184.943 61.6797C184.662 61.4336 184.246 61.249 183.695 61.126C183.144 60.9971 182.479 60.9326 181.7 60.9326ZM196.916 53.6992H189.103V52.3545H196.916V53.6992ZM193.023 54.6396C193.685 54.6396 194.274 54.7949 194.789 55.1055C195.311 55.4102 195.718 55.8379 196.011 56.3887C196.304 56.9395 196.45 57.5693 196.45 58.2783C196.45 58.9814 196.304 59.6113 196.011 60.168C195.718 60.7188 195.311 61.1523 194.789 61.4688C194.274 61.7852 193.685 61.9434 193.023 61.9434C192.366 61.9434 191.777 61.7852 191.256 61.4688C190.74 61.1523 190.336 60.7158 190.043 60.1592C189.756 59.6025 189.612 58.9756 189.612 58.2783C189.612 57.5811 189.756 56.9541 190.043 56.3975C190.336 55.8408 190.74 55.4102 191.256 55.1055C191.777 54.7949 192.366 54.6396 193.023 54.6396ZM193.023 56.0371C192.653 56.0371 192.319 56.1338 192.021 56.3271C191.728 56.5146 191.499 56.7783 191.335 57.1182C191.171 57.4521 191.089 57.8389 191.089 58.2783C191.089 58.7119 191.171 59.0986 191.335 59.4385C191.505 59.7783 191.736 60.0391 192.029 60.2207C192.322 60.4023 192.653 60.4932 193.023 60.4932C193.398 60.4932 193.732 60.4023 194.025 60.2207C194.323 60.0391 194.558 59.7783 194.728 59.4385C194.898 59.0986 194.983 58.7119 194.983 58.2783C194.983 57.8389 194.898 57.4521 194.728 57.1182C194.558 56.7783 194.323 56.5146 194.025 56.3271C193.732 56.1338 193.398 56.0371 193.023 56.0371ZM202.62 65.4854H201.029V49.7354H202.62V65.4854ZM201.557 57.6631H198.674V56.3008H201.557V57.6631ZM199.219 64.7471H197.646V50.1045H199.219V64.7471ZM193.858 53.1895H192.205V50.2012H193.858V53.1895ZM218.839 63.5342H204.424V62.1631H218.839V63.5342ZM212.414 62.5498H210.779V58.4893H212.414V62.5498ZM207.747 53.5322H215.481V50.8164H217.125V58.9287H206.068V50.8164H207.747V53.5322ZM215.481 57.5752V54.877H207.747V57.5752H215.481ZM228.922 56.6699H225.969V55.2725H228.922V56.6699ZM224.202 54.1123C224.202 55.2432 224.059 56.3359 223.772 57.3906C223.49 58.4453 223.074 59.3887 222.524 60.2207C221.973 61.0469 221.311 61.6973 220.537 62.1719L219.491 60.9238C220.212 60.4902 220.83 59.9131 221.346 59.1924C221.861 58.4658 222.248 57.666 222.506 56.793C222.77 55.9199 222.902 55.0264 222.902 54.1123V51.1768H224.202V54.1123ZM224.51 54.042C224.51 54.915 224.63 55.7676 224.87 56.5996C225.111 57.4258 225.468 58.1846 225.943 58.876C226.423 59.5674 227 60.1211 227.674 60.5371L226.742 61.8203C225.981 61.3633 225.339 60.7275 224.818 59.9131C224.296 59.0928 223.903 58.1816 223.64 57.1797C223.382 56.1777 223.253 55.1318 223.253 54.042V51.1768H224.51V54.042ZM233.264 65.4854H231.655V49.7354H233.264V65.4854ZM229.994 64.7119H228.421V50.0342H229.994V64.7119ZM240.095 62.4443H238.452V57.8301H240.095V62.4443ZM245.966 62.4443H244.288V57.8301H245.966V62.4443ZM249.412 63.5254H234.998V62.1455H249.412V63.5254ZM242.178 50.6494C243.303 50.6494 244.305 50.8223 245.184 51.168C246.063 51.5078 246.749 51.9912 247.241 52.6182C247.739 53.2393 247.988 53.9541 247.988 54.7627C247.988 55.5771 247.739 56.2949 247.241 56.916C246.749 57.5312 246.063 58.0117 245.184 58.3574C244.305 58.6973 243.303 58.8672 242.178 58.8672C241.059 58.8672 240.057 58.6973 239.173 58.3574C238.294 58.0117 237.605 57.5312 237.107 56.916C236.609 56.2949 236.36 55.5771 236.36 54.7627C236.36 53.9541 236.609 53.2393 237.107 52.6182C237.605 51.9912 238.294 51.5078 239.173 51.168C240.057 50.8223 241.059 50.6494 242.178 50.6494ZM242.178 52.0029C241.358 51.9971 240.632 52.1084 239.999 52.3369C239.372 52.5596 238.88 52.8818 238.522 53.3037C238.171 53.7197 237.995 54.2061 237.995 54.7627C237.995 55.3193 238.171 55.8086 238.522 56.2305C238.88 56.6523 239.375 56.9805 240.007 57.2148C240.64 57.4492 241.364 57.5664 242.178 57.5664C242.987 57.5664 243.708 57.4492 244.341 57.2148C244.973 56.9805 245.468 56.6523 245.826 56.2305C246.183 55.8086 246.362 55.3193 246.362 54.7627C246.362 54.2061 246.183 53.7197 245.826 53.3037C245.474 52.8818 244.982 52.5596 244.349 52.3369C243.716 52.1084 242.993 51.9971 242.178 52.0029ZM253.027 60.3438H251.295L251.128 51.2734H253.185L253.027 60.3438ZM252.156 64.123C251.94 64.123 251.735 64.0645 251.541 63.9473C251.348 63.8301 251.196 63.6777 251.084 63.4902C250.973 63.2969 250.917 63.0889 250.917 62.8662C250.917 62.6494 250.973 62.4443 251.084 62.251C251.196 62.0576 251.348 61.9082 251.541 61.8027C251.735 61.6914 251.94 61.6357 252.156 61.6357C252.379 61.6357 252.584 61.6914 252.772 61.8027C252.965 61.9082 253.117 62.0576 253.229 62.251C253.346 62.4443 253.404 62.6494 253.404 62.8662C253.404 63.0889 253.346 63.2969 253.229 63.4902C253.117 63.6777 252.965 63.8301 252.772 63.9473C252.584 64.0645 252.379 64.123 252.156 64.123Z" fill="#374151"/>
<path d="M111.205 79.2812C111.729 79.2812 112.191 79.4336 112.594 79.7383C113 80.043 113.318 80.4727 113.549 81.0273C113.783 81.582 113.9 82.2285 113.9 82.9668C113.9 83.709 113.783 84.3574 113.549 84.9121C113.318 85.4668 113 85.8965 112.594 86.2012C112.188 86.502 111.725 86.6523 111.205 86.6523C110.686 86.6523 110.221 86.502 109.811 86.2012C109.404 85.8965 109.086 85.4668 108.855 84.9121C108.629 84.3574 108.516 83.709 108.516 82.9668C108.516 82.2285 108.629 81.582 108.855 81.0273C109.086 80.4727 109.404 80.043 109.811 79.7383C110.221 79.4336 110.686 79.2812 111.205 79.2812ZM111.205 80.2773C110.885 80.2773 110.602 80.3867 110.355 80.6055C110.109 80.8242 109.918 81.1367 109.781 81.543C109.645 81.9453 109.576 82.4199 109.576 82.9668C109.576 83.5098 109.645 83.9844 109.781 84.3906C109.918 84.7969 110.111 85.1094 110.361 85.3281C110.611 85.543 110.893 85.6504 111.205 85.6504C111.525 85.6504 111.809 85.543 112.055 85.3281C112.301 85.1094 112.49 84.7969 112.623 84.3906C112.76 83.9844 112.828 83.5098 112.828 82.9668C112.828 82.4199 112.76 81.9453 112.623 81.543C112.49 81.1367 112.301 80.8242 112.055 80.6055C111.809 80.3867 111.525 80.2773 111.205 80.2773ZM116.566 88.9902H115.459V78.4902H116.566V88.9902ZM118.26 83.5527H116.314V82.6035H118.26V83.5527ZM122.263 80.377C122.263 81.0137 122.14 81.6133 121.894 82.1758C121.652 82.7383 121.306 83.2305 120.857 83.6523C120.408 84.0703 119.881 84.3867 119.275 84.6016L118.695 83.7402C119.226 83.5527 119.693 83.2871 120.095 82.9434C120.498 82.5957 120.804 82.2012 121.015 81.7598C121.23 81.3145 121.338 80.8535 121.338 80.377V79.5742H122.263V80.377ZM122.463 80.377C122.463 80.8301 122.568 81.2676 122.779 81.6895C122.994 82.1074 123.3 82.4785 123.699 82.8027C124.097 83.123 124.562 83.3691 125.093 83.541L124.525 84.4023C123.924 84.2031 123.398 83.9043 122.949 83.5059C122.504 83.1035 122.158 82.6348 121.912 82.0996C121.67 81.5605 121.549 80.9863 121.549 80.377V79.5742H122.463V80.377ZM127.285 84.8359H126.177V78.4902H127.285V84.8359ZM127.285 88.9902H126.177V86.2656H120.172V85.3574H127.285V88.9902ZM124.783 80.0898H118.982V79.1934H124.783V80.0898ZM134.976 80.377C134.976 81.0176 134.856 81.6211 134.618 82.1875C134.384 82.75 134.046 83.2383 133.605 83.6523C133.163 84.0664 132.64 84.3809 132.034 84.5957L131.442 83.7344C131.978 83.5469 132.442 83.2812 132.837 82.9375C133.235 82.5938 133.542 82.2012 133.757 81.7598C133.972 81.3145 134.079 80.8535 134.079 80.377V79.5742H134.976V80.377ZM135.181 80.377C135.181 80.8262 135.282 81.2598 135.485 81.6777C135.689 82.0918 135.98 82.4609 136.358 82.7852C136.741 83.1094 137.194 83.3613 137.718 83.541L137.155 84.4023C136.562 84.1953 136.048 83.8926 135.614 83.4941C135.181 83.0918 134.849 82.625 134.618 82.0938C134.392 81.5586 134.278 80.9863 134.278 80.377V79.5742H135.181V80.377ZM137.454 80.0898H131.765V79.1934H137.454V80.0898ZM139.769 84.8242H138.661V78.4902H139.769V84.8242ZM141.298 82.1289H139.458V81.1914H141.298V82.1289ZM139.769 88.9902H138.661V86.2422H132.831V85.3457H139.769V88.9902ZM145.237 80.1191C145.237 80.8027 145.118 81.4395 144.88 82.0293C144.645 82.6152 144.305 83.127 143.86 83.5645C143.415 83.998 142.885 84.3301 142.272 84.5605L141.669 83.6582C142.219 83.4707 142.696 83.1992 143.098 82.8438C143.501 82.4883 143.807 82.0762 144.018 81.6074C144.229 81.1387 144.335 80.6426 144.335 80.1191V79.0762H145.237V80.1191ZM145.442 80.0664C145.442 80.5547 145.542 81.0195 145.741 81.4609C145.944 81.9023 146.237 82.2891 146.62 82.6211C147.003 82.9492 147.456 83.1992 147.979 83.3711L147.364 84.2383C146.778 84.0234 146.274 83.7129 145.852 83.3066C145.43 82.9004 145.104 82.4219 144.874 81.8711C144.647 81.3164 144.534 80.7148 144.534 80.0664V79.0762H145.442V80.0664ZM150.464 84.6895H149.35V78.4902H150.464V84.6895ZM146.942 84.9883C147.68 84.9883 148.315 85.0664 148.846 85.2227C149.382 85.375 149.79 85.6035 150.071 85.9082C150.356 86.209 150.499 86.5703 150.499 86.9922C150.499 87.4062 150.356 87.7617 150.071 88.0586C149.79 88.3594 149.382 88.5879 148.846 88.7441C148.315 88.9004 147.68 88.9785 146.942 88.9785C146.212 88.9785 145.581 88.9004 145.05 88.7441C144.518 88.5879 144.11 88.3594 143.825 88.0586C143.54 87.7617 143.397 87.4062 143.397 86.9922C143.397 86.5703 143.54 86.209 143.825 85.9082C144.11 85.6035 144.518 85.375 145.05 85.2227C145.581 85.0664 146.212 84.9883 146.942 84.9883ZM146.942 85.8555C146.438 85.8555 146.001 85.9004 145.63 85.9902C145.262 86.0762 144.981 86.2051 144.786 86.377C144.594 86.5449 144.499 86.75 144.499 86.9922C144.499 87.2188 144.594 87.416 144.786 87.584C144.981 87.748 145.262 87.875 145.63 87.9648C146.001 88.0547 146.438 88.0996 146.942 88.0996C147.458 88.0996 147.897 88.0547 148.26 87.9648C148.628 87.875 148.907 87.748 149.098 87.584C149.294 87.416 149.391 87.2188 149.391 86.9922C149.391 86.75 149.294 86.5449 149.098 86.377C148.907 86.2051 148.628 86.0762 148.26 85.9902C147.897 85.9004 147.458 85.8555 146.942 85.8555ZM149.55 81.5488H147.135V80.6348H149.55V81.5488ZM160.602 89.0195H159.483V78.4902H160.602V89.0195ZM154.977 79.2812C155.5 79.2812 155.967 79.4336 156.377 79.7383C156.787 80.043 157.108 80.4727 157.338 81.0273C157.569 81.582 157.684 82.2285 157.684 82.9668C157.684 83.709 157.569 84.3574 157.338 84.9121C157.108 85.4668 156.787 85.8965 156.377 86.2012C155.967 86.502 155.5 86.6523 154.977 86.6523C154.454 86.6523 153.985 86.502 153.571 86.2012C153.161 85.8965 152.84 85.4668 152.61 84.9121C152.379 84.3574 152.264 83.709 152.264 82.9668C152.264 82.2285 152.379 81.582 152.61 81.0273C152.84 80.4727 153.161 80.043 153.571 79.7383C153.985 79.4336 154.454 79.2812 154.977 79.2812ZM154.977 80.2773C154.657 80.2773 154.371 80.3867 154.121 80.6055C153.871 80.8242 153.678 81.1367 153.541 81.543C153.409 81.9453 153.342 82.4199 153.342 82.9668C153.342 83.5098 153.409 83.9844 153.541 84.3906C153.678 84.7969 153.871 85.1094 154.121 85.3281C154.371 85.543 154.657 85.6504 154.977 85.6504C155.297 85.6504 155.58 85.543 155.827 85.3281C156.077 85.1094 156.27 84.7969 156.407 84.3906C156.543 83.9844 156.612 83.5098 156.612 82.9668C156.612 82.4199 156.543 81.9453 156.407 81.543C156.27 81.1367 156.079 80.8242 155.832 80.6055C155.586 80.3867 155.301 80.2773 154.977 80.2773ZM173.092 84.4258H171.984V78.502H173.092V84.4258ZM174.633 81.7715H172.804V80.8457H174.633V81.7715ZM173.092 88.8555H166.365V84.9707H173.092V88.8555ZM167.455 87.9648H172.008V85.8438H167.455V87.9648ZM166.435 83.248H165.322V79.0234H166.435V83.248ZM166.178 82.7852C166.974 82.7852 167.765 82.748 168.551 82.6738C169.336 82.5996 170.138 82.4824 170.959 82.3223L171.094 83.248C170.258 83.4121 169.439 83.5312 168.638 83.6055C167.838 83.6758 167.017 83.7109 166.178 83.7109H165.322V82.7852H166.178ZM184.607 84.8711H175.033V83.9746H184.607V84.8711ZM183.535 88.7852H176.246V87.8652H183.535V88.7852ZM177.359 88.1523H176.246V85.7207H177.359V88.1523ZM179.82 78.8535C180.57 78.8457 181.228 78.9258 181.794 79.0938C182.361 79.2617 182.796 79.5059 183.101 79.8262C183.41 80.1426 183.564 80.5176 183.564 80.9512C183.564 81.3887 183.41 81.7656 183.101 82.082C182.796 82.3984 182.361 82.6426 181.794 82.8145C181.228 82.9863 180.57 83.0723 179.82 83.0723C179.058 83.0723 178.394 82.9863 177.828 82.8145C177.265 82.6426 176.83 82.3984 176.521 82.082C176.212 81.7656 176.058 81.3887 176.058 80.9512C176.058 80.5176 176.212 80.1426 176.521 79.8262C176.83 79.5059 177.265 79.2617 177.828 79.0938C178.394 78.9258 179.058 78.8457 179.82 78.8535ZM179.82 79.7324C179.285 79.7324 178.82 79.7812 178.425 79.8789C178.035 79.9766 177.734 80.1172 177.523 80.3008C177.316 80.4805 177.212 80.6973 177.212 80.9512C177.212 81.2012 177.316 81.418 177.523 81.6016C177.734 81.7852 178.035 81.9258 178.425 82.0234C178.82 82.1172 179.285 82.1641 179.82 82.1641C180.351 82.1641 180.812 82.1172 181.203 82.0234C181.597 81.9258 181.898 81.7852 182.105 81.6016C182.316 81.418 182.421 81.2012 182.421 80.9512C182.421 80.6973 182.316 80.4805 182.105 80.3008C181.898 80.1172 181.597 79.9766 181.203 79.8789C180.812 79.7812 180.351 79.7324 179.82 79.7324ZM196.223 85.2344H195.116V78.4902H196.223V85.2344ZM197.753 82.2754H195.913V81.3379H197.753V82.2754ZM192.866 85.3105C193.577 85.3105 194.194 85.3828 194.718 85.5273C195.241 85.6719 195.641 85.8848 195.919 86.166C196.2 86.4434 196.341 86.7715 196.341 87.1504C196.341 87.5293 196.2 87.8555 195.919 88.1289C195.637 88.4062 195.235 88.6172 194.712 88.7617C194.192 88.9062 193.577 88.9785 192.866 88.9785C192.151 88.9785 191.532 88.9062 191.009 88.7617C190.489 88.6172 190.089 88.4062 189.807 88.1289C189.53 87.8555 189.391 87.5293 189.391 87.1504C189.391 86.7715 189.53 86.4434 189.807 86.166C190.089 85.8848 190.489 85.6719 191.009 85.5273C191.532 85.3828 192.151 85.3105 192.866 85.3105ZM192.866 86.1777C192.366 86.1777 191.938 86.2148 191.583 86.2891C191.227 86.3594 190.956 86.4688 190.768 86.6172C190.585 86.7656 190.493 86.9434 190.493 87.1504C190.493 87.3496 190.585 87.5254 190.768 87.6777C190.956 87.8262 191.227 87.9375 191.583 88.0117C191.942 88.0898 192.37 88.1289 192.866 88.1289C193.362 88.1289 193.786 88.0898 194.137 88.0117C194.493 87.9375 194.762 87.8281 194.946 87.6836C195.134 87.5352 195.227 87.3574 195.227 87.1504C195.227 86.9434 195.136 86.7656 194.952 86.6172C194.768 86.4688 194.501 86.3594 194.149 86.2891C193.798 86.2148 193.37 86.1777 192.866 86.1777ZM194.237 80.5H187.985V79.627H194.237V80.5ZM191.114 80.9805C191.618 80.9805 192.061 81.0586 192.444 81.2148C192.827 81.3711 193.126 81.5898 193.341 81.8711C193.555 82.1523 193.663 82.4785 193.663 82.8496C193.663 83.2168 193.555 83.541 193.341 83.8223C193.126 84.1035 192.827 84.3223 192.444 84.4785C192.061 84.6309 191.618 84.709 191.114 84.7129C190.61 84.709 190.165 84.6309 189.778 84.4785C189.391 84.3223 189.091 84.1035 188.876 83.8223C188.665 83.541 188.559 83.2168 188.559 82.8496C188.559 82.4785 188.665 82.1523 188.876 81.8711C189.091 81.5898 189.391 81.3711 189.778 81.2148C190.165 81.0586 190.61 80.9805 191.114 80.9805ZM191.114 81.8066C190.821 81.8066 190.561 81.8496 190.335 81.9355C190.108 82.0215 189.934 82.1426 189.813 82.2988C189.692 82.4551 189.632 82.6387 189.632 82.8496C189.632 83.0488 189.692 83.2266 189.813 83.3828C189.934 83.5391 190.108 83.6582 190.335 83.7402C190.561 83.8223 190.821 83.8633 191.114 83.8633C191.407 83.8633 191.667 83.8223 191.893 83.7402C192.124 83.6582 192.302 83.5391 192.427 83.3828C192.552 83.2266 192.614 83.0488 192.614 82.8496C192.614 82.6387 192.552 82.4551 192.427 82.2988C192.302 82.1426 192.124 82.0215 191.893 81.9355C191.667 81.8496 191.407 81.8066 191.114 81.8066ZM191.671 80.1191H190.563V78.4141H191.671V80.1191ZM206.52 82.5273H199.389V78.9297H206.52V82.5273ZM200.479 81.6426H205.424V79.8086H200.479V81.6426ZM207.739 84.6543H198.165V83.7578H207.739V84.6543ZM203.502 84.0742H202.389V82.3164H203.502V84.0742ZM206.561 88.9902H205.448V86.5293H199.225V85.6445H206.561V88.9902ZM217.057 89.0195H215.938V78.4902H217.057V89.0195ZM211.432 79.2812C211.955 79.2812 212.422 79.4336 212.832 79.7383C213.242 80.043 213.563 80.4727 213.793 81.0273C214.024 81.582 214.139 82.2285 214.139 82.9668C214.139 83.709 214.024 84.3574 213.793 84.9121C213.563 85.4668 213.242 85.8965 212.832 86.2012C212.422 86.502 211.955 86.6523 211.432 86.6523C210.908 86.6523 210.44 86.502 210.026 86.2012C209.615 85.8965 209.295 85.4668 209.065 84.9121C208.834 84.3574 208.719 83.709 208.719 82.9668C208.719 82.2285 208.834 81.582 209.065 81.0273C209.295 80.4727 209.615 80.043 210.026 79.7383C210.44 79.4336 210.908 79.2812 211.432 79.2812ZM211.432 80.2773C211.111 80.2773 210.826 80.3867 210.576 80.6055C210.326 80.8242 210.133 81.1367 209.996 81.543C209.863 81.9453 209.797 82.4199 209.797 82.9668C209.797 83.5098 209.863 83.9844 209.996 84.3906C210.133 84.7969 210.326 85.1094 210.576 85.3281C210.826 85.543 211.111 85.6504 211.432 85.6504C211.752 85.6504 212.035 85.543 212.281 85.3281C212.531 85.1094 212.725 84.7969 212.861 84.3906C212.998 83.9844 213.067 83.5098 213.067 82.9668C213.067 82.4199 212.998 81.9453 212.861 81.543C212.725 81.1367 212.533 80.8242 212.287 80.6055C212.041 80.3867 211.756 80.2773 211.432 80.2773ZM224.73 85.4395C224.73 85.9238 224.636 86.3926 224.449 86.8457C224.265 87.2949 223.994 87.6934 223.634 88.041C223.279 88.3887 222.847 88.6562 222.339 88.8438L221.783 88.0293C222.22 87.8691 222.593 87.6523 222.902 87.3789C223.214 87.1016 223.453 86.7949 223.617 86.459C223.781 86.123 223.863 85.7832 223.863 85.4395V84.9355H224.73V85.4395ZM224.941 85.4395C224.941 85.791 225.011 86.1406 225.152 86.4883C225.293 86.832 225.503 87.1445 225.785 87.4258C226.066 87.707 226.414 87.9316 226.828 88.0996L226.371 88.9316C225.867 88.7402 225.447 88.4629 225.111 88.0996C224.779 87.7363 224.533 87.3262 224.373 86.8691C224.216 86.4121 224.138 85.9355 224.138 85.4395V84.9355H224.941V85.4395ZM228.585 85.4395C228.585 85.8926 228.503 86.3496 228.339 86.8105C228.179 87.2676 227.933 87.6836 227.601 88.0586C227.269 88.4375 226.859 88.7285 226.371 88.9316L225.902 88.0996C226.304 87.916 226.646 87.6758 226.927 87.3789C227.212 87.0781 227.423 86.7578 227.56 86.418C227.701 86.0781 227.771 85.752 227.771 85.4395V84.9355H228.585V85.4395ZM228.867 85.4395C228.867 85.8066 228.947 86.1602 229.107 86.5C229.267 86.8359 229.503 87.1387 229.816 87.4082C230.132 87.6777 230.509 87.8848 230.947 88.0293L230.402 88.8438C229.886 88.6641 229.449 88.4043 229.089 88.0645C228.73 87.7246 228.459 87.3301 228.275 86.8809C228.091 86.4277 228 85.9473 228 85.4395V84.9355H228.867V85.4395ZM230.003 84.4785H228.896V78.502H230.003V84.4785ZM224.308 79.0879C224.839 79.0879 225.316 79.1934 225.738 79.4043C226.164 79.6113 226.498 79.9043 226.74 80.2832C226.982 80.6582 227.103 81.0879 227.103 81.5723C227.103 82.0449 226.982 82.4688 226.74 82.8438C226.498 83.2188 226.164 83.5098 225.738 83.7168C225.316 83.9238 224.839 84.0273 224.308 84.0273C223.777 84.0273 223.298 83.9238 222.873 83.7168C222.451 83.5098 222.119 83.2188 221.876 82.8438C221.634 82.4688 221.513 82.0449 221.513 81.5723C221.513 81.0879 221.634 80.6582 221.876 80.2832C222.119 79.9043 222.451 79.6113 222.873 79.4043C223.298 79.1934 223.777 79.0879 224.308 79.0879ZM224.308 80.0312C223.98 80.0234 223.685 80.084 223.423 80.2129C223.166 80.3418 222.964 80.5254 222.82 80.7637C222.675 80.998 222.603 81.2676 222.603 81.5723C222.603 81.8652 222.675 82.1289 222.82 82.3633C222.964 82.5938 223.166 82.7734 223.423 82.9023C223.685 83.0312 223.98 83.0996 224.308 83.1074C224.636 83.0996 224.927 83.0312 225.181 82.9023C225.439 82.7734 225.64 82.5938 225.785 82.3633C225.933 82.1289 226.007 81.8652 226.007 81.5723C226.007 81.2676 225.935 80.998 225.791 80.7637C225.646 80.5254 225.445 80.3418 225.187 80.2129C224.929 80.084 224.636 80.0234 224.308 80.0312ZM234.335 79.2812C234.851 79.2812 235.308 79.4336 235.706 79.7383C236.109 80.043 236.423 80.4727 236.65 81.0273C236.876 81.582 236.989 82.2285 236.989 82.9668C236.989 83.709 236.876 84.3574 236.65 84.9121C236.423 85.4668 236.109 85.8965 235.706 86.2012C235.308 86.502 234.851 86.6523 234.335 86.6523C233.82 86.6523 233.359 86.502 232.952 86.2012C232.55 85.9004 232.236 85.4727 232.009 84.918C231.782 84.3594 231.669 83.709 231.669 82.9668C231.669 82.2285 231.782 81.582 232.009 81.0273C232.236 80.4727 232.55 80.043 232.952 79.7383C233.359 79.4336 233.82 79.2812 234.335 79.2812ZM234.335 80.2773C234.023 80.2773 233.743 80.3867 233.497 80.6055C233.251 80.8242 233.062 81.1367 232.929 81.543C232.8 81.9453 232.736 82.4199 232.736 82.9668C232.736 83.5098 232.8 83.9844 232.929 84.3906C233.062 84.7969 233.251 85.1094 233.497 85.3281C233.743 85.543 234.023 85.6504 234.335 85.6504C234.648 85.6504 234.927 85.543 235.173 85.3281C235.419 85.1094 235.609 84.7969 235.741 84.3906C235.874 83.9844 235.941 83.5098 235.941 82.9668C235.941 82.4199 235.872 81.9453 235.736 81.543C235.603 81.1367 235.415 80.8242 235.173 80.6055C234.935 80.3867 234.655 80.2773 234.335 80.2773ZM240.247 89.0195H239.14V78.4902H240.247V89.0195ZM239.626 83.3418H236.638V82.4336H239.626V83.3418ZM245.077 86.9629H243.981V83.8867H245.077V86.9629ZM248.991 86.9629H247.872V83.8867H248.991V86.9629ZM251.288 87.6836H241.679V86.7637H251.288V87.6836ZM246.466 79.0996C247.216 79.0996 247.884 79.2148 248.47 79.4453C249.056 79.6719 249.513 79.9941 249.841 80.4121C250.173 80.8262 250.339 81.3027 250.339 81.8418C250.339 82.3848 250.173 82.8633 249.841 83.2773C249.513 83.6875 249.056 84.0078 248.47 84.2383C247.884 84.4648 247.216 84.5781 246.466 84.5781C245.72 84.5781 245.052 84.4648 244.462 84.2383C243.876 84.0078 243.417 83.6875 243.085 83.2773C242.753 82.8633 242.587 82.3848 242.587 81.8418C242.587 81.3027 242.753 80.8262 243.085 80.4121C243.417 79.9941 243.876 79.6719 244.462 79.4453C245.052 79.2148 245.72 79.0996 246.466 79.0996ZM246.466 80.002C245.919 79.998 245.434 80.0723 245.013 80.2246C244.595 80.373 244.266 80.5879 244.028 80.8691C243.794 81.1465 243.677 81.4707 243.677 81.8418C243.677 82.2129 243.794 82.5391 244.028 82.8203C244.266 83.1016 244.597 83.3203 245.018 83.4766C245.44 83.6328 245.923 83.7109 246.466 83.7109C247.005 83.7109 247.485 83.6328 247.907 83.4766C248.329 83.3203 248.659 83.1016 248.897 82.8203C249.136 82.5391 249.255 82.2129 249.255 81.8418C249.255 81.4707 249.136 81.1465 248.897 80.8691C248.663 80.5879 248.335 80.373 247.913 80.2246C247.491 80.0723 247.009 79.998 246.466 80.002ZM253.698 85.5625H252.544L252.432 79.5156H253.803L253.698 85.5625ZM253.118 88.082C252.973 88.082 252.836 88.043 252.708 87.9648C252.579 87.8867 252.477 87.7852 252.403 87.6602C252.329 87.5312 252.292 87.3926 252.292 87.2441C252.292 87.0996 252.329 86.9629 252.403 86.834C252.477 86.7051 252.579 86.6055 252.708 86.5352C252.836 86.4609 252.973 86.4238 253.118 86.4238C253.266 86.4238 253.403 86.4609 253.528 86.5352C253.657 86.6055 253.758 86.7051 253.833 86.834C253.911 86.9629 253.95 87.0996 253.95 87.2441C253.95 87.3926 253.911 87.5312 253.833 87.6602C253.758 87.7852 253.657 87.8867 253.528 87.9648C253.403 88.043 253.266 88.082 253.118 88.082Z" fill="#9CA3AF"/>
<rect x="20" y="105" width="295" height="38" rx="19" fill="#1D60E7"/>
<path d="M122.162 128.638H110.951V127.544H122.162V128.638ZM121.137 120.147H111.901V119.088H121.137V120.147ZM121.103 125.281H111.942V124.242H121.103V125.281ZM115.053 124.358H113.761V120.052H115.053V124.358ZM119.271 124.358H117.992V120.052H119.271V124.358ZM134.052 128.692H122.841V127.619H134.052V128.692ZM129.055 128.077H127.783V125.09H129.055V128.077ZM132.678 122.602H125.5V124.953H124.208V121.562H131.399V119.84H124.187V118.78H132.678V122.602ZM132.965 125.459H124.208V124.393H132.965V125.459ZM144.909 124.249H143.603V117.905H144.909V124.249ZM144.909 127.845H138.101V129.595H136.822V126.888H143.624V125.828H136.788V124.803H144.909V127.845ZM145.34 130.039H136.822V129H145.34V130.039ZM141.915 119.737H135.277V118.719H141.915V119.737ZM134.935 122.827C136.284 122.823 137.606 122.795 138.9 122.745C140.199 122.69 141.391 122.599 142.476 122.472L142.537 123.415C141.425 123.584 140.224 123.702 138.934 123.771C137.645 123.839 136.364 123.873 135.093 123.873L134.935 122.827ZM137.67 123.319H136.419V119.184H137.67V123.319ZM140.746 123.319H139.502V119.184H140.746V123.319ZM154.23 124.823H152.925V122.957H154.23V124.823ZM153.547 118.459C154.144 118.459 154.672 118.562 155.133 118.767C155.593 118.972 155.953 119.259 156.213 119.628C156.477 119.993 156.609 120.419 156.609 120.906C156.609 121.376 156.477 121.795 156.213 122.164C155.953 122.533 155.593 122.82 155.133 123.025C154.672 123.23 154.144 123.333 153.547 123.333C152.959 123.333 152.43 123.23 151.961 123.025C151.496 122.82 151.136 122.533 150.881 122.164C150.625 121.795 150.498 121.376 150.498 120.906C150.498 120.428 150.625 120.004 150.881 119.635C151.136 119.261 151.496 118.972 151.961 118.767C152.43 118.562 152.959 118.459 153.547 118.459ZM153.547 119.457C153.191 119.457 152.875 119.516 152.597 119.635C152.319 119.753 152.102 119.922 151.947 120.141C151.792 120.359 151.715 120.615 151.715 120.906C151.715 121.189 151.792 121.437 151.947 121.651C152.102 121.866 152.319 122.034 152.597 122.157C152.879 122.276 153.196 122.337 153.547 122.342C153.907 122.337 154.226 122.276 154.504 122.157C154.782 122.034 154.998 121.866 155.153 121.651C155.308 121.437 155.386 121.189 155.386 120.906C155.386 120.615 155.308 120.359 155.153 120.141C155.003 119.917 154.786 119.749 154.504 119.635C154.226 119.516 153.907 119.457 153.547 119.457ZM159.473 127.284H158.168V117.919H159.473V127.284ZM161.217 123.06H158.961V121.966H161.217V123.06ZM159.904 129.896H151.537V128.829H159.904V129.896ZM152.849 129.308H151.537V126.471H152.849V129.308ZM149.807 124.475C151.175 124.484 152.505 124.461 153.8 124.406C155.094 124.352 156.299 124.24 157.416 124.071L157.512 125.028C156.377 125.229 155.19 125.363 153.95 125.432C152.715 125.495 151.384 125.527 149.958 125.527L149.807 124.475ZM165.833 119.806C165.833 120.603 165.694 121.346 165.416 122.034C165.142 122.718 164.746 123.315 164.226 123.825C163.707 124.331 163.089 124.718 162.374 124.987L161.67 123.935C162.312 123.716 162.868 123.399 163.338 122.984C163.807 122.57 164.165 122.089 164.411 121.542C164.657 120.995 164.78 120.416 164.78 119.806V118.589H165.833V119.806ZM166.072 119.744C166.072 120.314 166.188 120.856 166.421 121.371C166.658 121.886 166.999 122.337 167.446 122.725C167.893 123.107 168.421 123.399 169.032 123.6L168.314 124.611C167.631 124.361 167.043 123.998 166.551 123.524C166.058 123.05 165.678 122.492 165.409 121.85C165.145 121.202 165.013 120.501 165.013 119.744V118.589H166.072V119.744ZM171.93 125.138H170.632V117.905H171.93V125.138ZM167.822 125.486C168.683 125.486 169.424 125.577 170.044 125.76C170.668 125.938 171.144 126.204 171.472 126.56C171.805 126.91 171.971 127.332 171.971 127.824C171.971 128.307 171.805 128.722 171.472 129.068C171.144 129.419 170.668 129.686 170.044 129.868C169.424 130.05 168.683 130.142 167.822 130.142C166.97 130.142 166.234 130.05 165.614 129.868C164.994 129.686 164.518 129.419 164.185 129.068C163.853 128.722 163.686 128.307 163.686 127.824C163.686 127.332 163.853 126.91 164.185 126.56C164.518 126.204 164.994 125.938 165.614 125.76C166.234 125.577 166.97 125.486 167.822 125.486ZM167.822 126.498C167.234 126.498 166.724 126.55 166.291 126.655C165.862 126.756 165.534 126.906 165.306 127.106C165.083 127.302 164.971 127.542 164.971 127.824C164.971 128.089 165.083 128.319 165.306 128.515C165.534 128.706 165.862 128.854 166.291 128.959C166.724 129.064 167.234 129.116 167.822 129.116C168.424 129.116 168.936 129.064 169.36 128.959C169.789 128.854 170.114 128.706 170.338 128.515C170.566 128.319 170.679 128.089 170.679 127.824C170.679 127.542 170.566 127.302 170.338 127.106C170.114 126.906 169.789 126.756 169.36 126.655C168.936 126.55 168.424 126.498 167.822 126.498ZM170.864 121.474H168.048V120.407H170.864V121.474ZM183.15 130.155H181.865V117.905H183.15V130.155ZM185.126 123.948H182.856V122.875H185.126V123.948ZM180.799 120.886H173.539V119.826H180.799V120.886ZM177.223 121.795C177.807 121.795 178.329 121.916 178.789 122.157C179.254 122.399 179.616 122.736 179.876 123.169C180.14 123.602 180.272 124.092 180.272 124.639C180.272 125.19 180.14 125.682 179.876 126.115C179.616 126.548 179.254 126.885 178.789 127.127C178.329 127.368 177.807 127.489 177.223 127.489C176.636 127.489 176.111 127.368 175.651 127.127C175.191 126.885 174.829 126.548 174.564 126.115C174.304 125.682 174.175 125.19 174.175 124.639C174.175 124.092 174.304 123.602 174.564 123.169C174.829 122.736 175.191 122.399 175.651 122.157C176.111 121.916 176.636 121.795 177.223 121.795ZM177.223 122.868C176.877 122.868 176.567 122.943 176.294 123.094C176.02 123.24 175.804 123.447 175.644 123.716C175.489 123.985 175.412 124.292 175.412 124.639C175.412 124.99 175.489 125.297 175.644 125.562C175.804 125.826 176.02 126.033 176.294 126.184C176.567 126.329 176.877 126.402 177.223 126.402C177.57 126.402 177.88 126.329 178.153 126.184C178.427 126.033 178.641 125.826 178.796 125.562C178.951 125.297 179.028 124.99 179.028 124.639C179.028 124.292 178.951 123.985 178.796 123.716C178.641 123.447 178.427 123.24 178.153 123.094C177.88 122.943 177.57 122.868 177.223 122.868ZM177.859 120.277H176.567V118.069H177.859V120.277ZM195.696 130.189H194.411V117.905H195.696V130.189ZM194.712 123.593H192.169V122.52H194.712V123.593ZM186.912 126.177C188.11 126.177 189.118 126.152 189.933 126.102C190.754 126.051 191.583 125.949 192.422 125.794L192.524 126.874C191.667 127.024 190.815 127.127 189.967 127.182C189.12 127.232 188.101 127.261 186.912 127.271H185.955V126.177H186.912ZM191.444 123.401H187.247V126.519H185.955V122.349H190.179V120.072H185.914V119.013H191.444V123.401ZM210.137 130.148H208.845V117.905H210.137V130.148ZM212.038 123.88H209.802V122.8H212.038V123.88ZM206.931 119.204C206.931 120.43 206.74 121.576 206.357 122.643C205.979 123.704 205.373 124.684 204.539 125.582C203.709 126.475 202.641 127.245 201.333 127.893L200.608 126.881C201.734 126.316 202.67 125.664 203.418 124.926C204.165 124.183 204.726 123.356 205.099 122.444C205.473 121.528 205.66 120.523 205.66 119.43V119.204H206.931ZM206.316 120.284H201.21V119.204H206.316V120.284ZM222.67 130.155H221.357V117.905H222.67V130.155ZM219.033 119.225C219.033 120.473 218.839 121.629 218.452 122.69C218.069 123.748 217.454 124.723 216.606 125.616C215.758 126.505 214.656 127.275 213.297 127.927L212.6 126.874C213.781 126.318 214.749 125.671 215.505 124.933C216.267 124.194 216.829 123.369 217.194 122.458C217.559 121.547 217.741 120.539 217.741 119.437V119.225H219.033ZM218.301 120.264H213.195V119.225H218.301V120.264Z" fill="#FEFEFE"/>
</svg>
