<svg width="72" height="20" viewBox="0 0 72 20" fill="none" xmlns="http://www.w3.org/2000/svg">
<path d="M15.3659 16.9373C13.7339 15.0833 11.1782 12.0471 11.1178 10.0514C11.0917 9.1729 11.4358 8.42803 12.3011 8.4422C13.271 8.4584 13.5266 9.55951 13.4602 10.2517C13.3596 11.2942 12.7096 12.3325 12.2246 12.8203C10.9508 14.1016 9.03308 14.7088 7.39706 12.9499C7.061 12.5896 6.52371 11.8103 6.52371 10.8792C6.52371 10.102 7.05094 9.75584 7.47755 9.74775C8.16577 9.73358 8.44347 10.2943 8.45755 10.9622C8.50182 13.0491 5.13319 16.9981 2 18V10.2335C2 9.54129 2.27971 8.87739 2.77475 8.39767L8.92039 2.43265C9.51402 1.85578 10.486 1.85578 11.0796 2.43265L17.2253 8.39363C17.7203 8.87536 18 9.53724 18 10.2295V17.996" stroke="#006AF9" stroke-width="1.4" stroke-linecap="round" stroke-linejoin="round"/>
<path d="M36.6579 5.11739H38.7344V6.7267H36.6579V9.75496H34.9448V2.52174H36.6579V5.11739ZM32.1761 4.39061C32.1761 8.00722 28.7498 9.53 23.6623 9.53V8.09374C27.8154 8.07643 30.4629 7.05548 30.4629 4.66748V4.32139H23.6623V2.88513H32.1761V4.39061ZM26.0157 14.479V15.7596H36.8136V17.1093H24.3199V10.5683H36.6579V11.918H26.0157V13.1985H36.4502V14.479H26.0157ZM50.794 17.2997V2.52174H52.5245V17.2997H50.794ZM43.8204 16.6075C41.1901 16.6075 39.3386 14.4271 39.3386 9.73765C39.3386 5.04817 41.1901 2.86783 43.8204 2.86783C46.4334 2.86783 48.2849 5.04817 48.2849 9.73765C48.2849 14.4271 46.4334 16.6075 43.8204 16.6075ZM43.8204 15.0328C45.3605 15.0328 46.5718 13.4927 46.5718 9.73765C46.5718 5.99991 45.3605 4.44252 43.8204 4.44252C42.2457 4.44252 41.0517 5.99991 41.0517 9.73765C41.0517 13.4927 42.2457 15.0328 43.8204 15.0328ZM69.4293 8.50904V10.153H67.3528V17.2997H65.6397V2.52174H67.3528V8.50904H69.4293ZM54.513 4.63287V3.05817H62.5595V6.62287C62.5595 12.5063 59.5313 16.3825 54.513 16.3825V14.7559C58.5276 14.7386 60.8118 11.6065 60.8118 6.65748V4.63287H54.513Z" fill="#4B5563"/>
</svg>
