<svg width="68" height="22" viewBox="0 0 68 22" fill="none" xmlns="http://www.w3.org/2000/svg">
<rect y="0.5" width="68" height="21" rx="10.5" fill="#B9CFF9"/>
<path d="M16.3529 10.311H13.6943V9.48926H16.3529V10.311ZM12.1044 8.73193C12.1044 9.46956 11.9934 10.1821 11.7714 10.8696C11.5494 11.5535 11.2361 12.1605 10.8315 12.6904C10.4268 13.2204 9.95777 13.6268 9.42424 13.9097L8.77434 13.0825C9.2649 12.8498 9.69816 12.506 10.0741 12.0513C10.4537 11.5929 10.7473 11.0737 10.955 10.4937C11.1627 9.91357 11.2665 9.32633 11.2665 8.73193V7.08301H12.1044V8.73193ZM12.3031 8.73193C12.3031 9.32275 12.4052 9.89746 12.6093 10.4561C12.817 11.0111 13.1052 11.5052 13.474 11.9385C13.8464 12.3682 14.2725 12.6922 14.7524 12.9106L14.1401 13.7378C13.6029 13.4621 13.1339 13.0718 12.7328 12.5669C12.3354 12.0584 12.0256 11.4748 11.8036 10.8159C11.5852 10.1535 11.476 9.45882 11.476 8.73193V7.08301H12.3031V8.73193ZM16.8578 15.9346H15.8427V6.28271H16.8578V15.9346ZM26.9677 12.8086H18.1591V11.9976H26.9677V12.8086ZM21.4033 15.9077H20.3828V12.4326H21.4033V15.9077ZM24.7495 15.9077H23.729V12.4326H24.7495V15.9077ZM25.9204 9.21533H20.2539V10.8213H19.228V8.44189H24.8784V7.46973H19.2065V6.63184H25.9204V9.21533ZM26.1298 11.106H19.228V10.2734H26.1298V11.106ZM38.0137 13.292H36.9986V6.29346H38.0137V13.292ZM38.3037 15.7197H31.7242V14.8765H38.3037V15.7197ZM32.7447 15.1826H31.7242V12.583H32.7447V15.1826ZM32.793 6.94336C33.2728 6.94336 33.7079 7.04541 34.0982 7.24951C34.4921 7.45003 34.8 7.73291 35.022 8.09814C35.244 8.4598 35.355 8.86979 35.355 9.32812C35.355 9.79362 35.244 10.2072 35.022 10.5688C34.8 10.9305 34.4921 11.2134 34.0982 11.4175C33.7079 11.6216 33.2728 11.7236 32.793 11.7236C32.3132 11.7236 31.8781 11.6216 31.4878 11.4175C31.1011 11.2134 30.795 10.9305 30.5694 10.5688C30.3438 10.2072 30.231 9.79362 30.231 9.32812C30.231 8.86979 30.3438 8.4598 30.5694 8.09814C30.795 7.73291 31.1011 7.45003 31.4878 7.24951C31.8781 7.04541 32.3132 6.94336 32.793 6.94336ZM32.793 7.83496C32.4994 7.83496 32.2326 7.89762 31.9927 8.02295C31.7528 8.14827 31.5648 8.32373 31.4287 8.54932C31.2963 8.7749 31.23 9.03451 31.23 9.32812C31.23 9.62174 31.2963 9.88314 31.4287 10.1123C31.5648 10.3415 31.7528 10.5187 31.9927 10.644C32.2326 10.7694 32.4994 10.832 32.793 10.832C33.0866 10.832 33.3516 10.7694 33.5879 10.644C33.8243 10.5187 34.0105 10.3415 34.1465 10.1123C34.2826 9.88314 34.3506 9.62174 34.3506 9.32812C34.3506 9.03451 34.2826 8.7749 34.1465 8.54932C34.0105 8.32373 33.8243 8.14827 33.5879 8.02295C33.3516 7.89762 33.0866 7.83496 32.793 7.83496ZM48.1505 11.6484H39.3741V10.8159H48.1505V11.6484ZM43.7569 12.3896C44.4444 12.3896 45.0388 12.4595 45.5401 12.5991C46.0414 12.7352 46.4228 12.9357 46.6842 13.2007C46.9491 13.4621 47.0816 13.7772 47.0816 14.146C47.0816 14.5184 46.9491 14.8353 46.6842 15.0967C46.4228 15.3581 46.0432 15.5568 45.5455 15.6929C45.0478 15.8289 44.4516 15.897 43.7569 15.897C43.0623 15.897 42.4643 15.8289 41.963 15.6929C41.4617 15.5568 41.0785 15.3581 40.8136 15.0967C40.5486 14.8353 40.4161 14.5184 40.4161 14.146C40.4161 13.7772 40.5504 13.4621 40.8189 13.2007C41.0875 12.9357 41.4724 12.7352 41.9737 12.5991C42.475 12.4595 43.0694 12.3896 43.7569 12.3896ZM43.7569 13.1846C43.2664 13.1846 42.8474 13.2222 42.5001 13.2974C42.1563 13.369 41.8949 13.4782 41.7159 13.625C41.5404 13.7682 41.4527 13.9419 41.4527 14.146C41.4527 14.3429 41.5422 14.513 41.7213 14.6562C41.9003 14.7995 42.1617 14.9087 42.5054 14.9839C42.8492 15.0555 43.2664 15.0913 43.7569 15.0913C44.2475 15.0913 44.6628 15.0555 45.003 14.9839C45.3468 14.9087 45.6082 14.7995 45.7872 14.6562C45.9662 14.513 46.0557 14.3429 46.0557 14.146C46.0557 13.9419 45.9662 13.7682 45.7872 13.625C45.6082 13.4782 45.3468 13.369 45.003 13.2974C44.6628 13.2222 44.2475 13.1846 43.7569 13.1846ZM43.9879 7.46436C43.9879 7.9585 43.8232 8.40788 43.4937 8.8125C43.1643 9.21354 42.7113 9.54476 42.1348 9.80615C41.5583 10.064 40.9084 10.234 40.1851 10.3164L39.836 9.50537C40.4412 9.44092 40.9908 9.31022 41.4849 9.11328C41.9827 8.91276 42.373 8.66927 42.6558 8.38281C42.9387 8.09635 43.0802 7.7902 43.0802 7.46436V7.18506H43.9879V7.46436ZM44.439 7.46436C44.439 7.7902 44.5787 8.09635 44.858 8.38281C45.1409 8.66927 45.5312 8.91276 46.0289 9.11328C46.5266 9.31022 47.0834 9.44092 47.6993 9.50537L47.3287 10.3164C46.6125 10.234 45.9662 10.064 45.3897 9.80615C44.8132 9.54476 44.3585 9.21354 44.0255 8.8125C43.6925 8.40788 43.526 7.9585 43.526 7.46436V7.18506H44.439V7.46436ZM47.3663 7.59326H40.1744V6.76611H47.3663V7.59326Z" fill="#1D60E7"/>
<path d="M53 10.5833L55.5789 13.5L60 8.5" stroke="#1D60E7" stroke-width="1.2" stroke-linecap="round"/>
</svg>
