<svg width="20" height="20" viewBox="0 0 20 20" fill="none" xmlns="http://www.w3.org/2000/svg">
<path d="M3.33337 15.8929H6.46481L14.6848 7.67292C14.8904 7.46731 15.0535 7.22321 15.1648 6.95457C15.2761 6.68592 15.3334 6.39799 15.3334 6.1072C15.3334 5.81642 15.2761 5.52849 15.1648 5.25984C15.0535 4.9912 14.8904 4.7471 14.6848 4.54149C14.4792 4.33587 14.2351 4.17277 13.9665 4.0615C13.6978 3.95022 13.4099 3.89294 13.1191 3.89294C12.8283 3.89294 12.5404 3.95022 12.2718 4.0615C12.0031 4.17277 11.759 4.33587 11.5534 4.54149L3.33337 12.7615V15.8929Z" stroke="#4B5563" stroke-width="1.2" stroke-linecap="round" stroke-linejoin="round"/>
<path d="M10.7705 5.32434L13.9019 8.45578" stroke="#4B5563" stroke-width="1.2" stroke-linecap="round" stroke-linejoin="round"/>
</svg>
