<svg width="76" height="76" viewBox="0 0 76 76" fill="none" xmlns="http://www.w3.org/2000/svg">
<g filter="url(#filter0_d_136_855)">
<rect x="10" y="6" width="56" height="56" rx="15" fill="#1D60E7" shape-rendering="crispEdges"/>
<path fill-rule="evenodd" clip-rule="evenodd" d="M25.4219 27.6836V24.5391C25.4219 22.8202 26.8203 21.4219 28.5391 21.4219H31.6836C32.0762 21.4219 32.3945 21.1036 32.3945 20.7109C32.3945 20.3183 32.0762 20 31.6836 20H28.5391C26.0362 20 24 22.0362 24 24.5391V27.6836C24 28.0762 24.3183 28.3945 24.7109 28.3945C25.1036 28.3945 25.4219 28.0762 25.4219 27.6836ZM31.6836 46.5781C32.0762 46.5781 32.3945 46.8964 32.3945 47.2891C32.3945 47.6817 32.0762 48 31.6836 48H28.5391C26.0362 48 24 45.9638 24 43.4609V40.3164C24 39.9238 24.3183 39.6055 24.7109 39.6055C25.1036 39.6055 25.4219 39.9238 25.4219 40.3164V43.4609C25.4219 45.1797 26.8203 46.5781 28.5391 46.5781H31.6836ZM52 40.3164V43.4609C52 45.9638 49.9638 48 47.4609 48H44.3164C43.9238 48 43.6055 47.6817 43.6055 47.2891C43.6055 46.8964 43.9238 46.5781 44.3164 46.5781H47.4609C49.1797 46.5781 50.5781 45.1797 50.5781 43.4609V40.3164C50.5781 39.9238 50.8964 39.6055 51.2891 39.6055C51.6817 39.6055 52 39.9238 52 40.3164ZM52 24.5391V27.6836C52 28.0762 51.6817 28.3945 51.2891 28.3945C50.8964 28.3945 50.5781 28.0762 50.5781 27.6836V24.5391C50.5781 22.8202 49.1797 21.4219 47.4609 21.4219H44.3164C43.9238 21.4219 43.6055 21.1036 43.6055 20.7109C43.6055 20.3183 43.9238 20 44.3164 20H47.4609C49.9638 20 52 22.0362 52 24.5391ZM42.9062 40.6947C43.2057 40.418 43.2242 39.9509 42.9476 39.6514C42.6709 39.3519 42.2038 39.3334 41.9043 39.61C40.8385 40.5945 39.4519 41.1367 37.9999 41.1367C36.5479 41.1367 35.1613 40.5945 34.0956 39.61C33.796 39.3334 33.329 39.3519 33.0523 39.6514C32.7756 39.9509 32.7941 40.418 33.0937 40.6947C34.4331 41.9319 36.1755 42.6132 37.9999 42.6132C39.8244 42.6132 41.5668 41.9319 42.9062 40.6947ZM39.4766 30.5547V35.8047C39.4766 36.845 38.6302 37.6914 37.5898 37.6914H36.9883C36.5805 37.6914 36.25 37.3609 36.25 36.9531C36.25 36.5454 36.5805 36.2148 36.9883 36.2148H37.5898C37.816 36.2148 38 36.0308 38 35.8047V30.5547C38 30.1469 38.3305 29.8164 38.7383 29.8164C39.146 29.8164 39.4766 30.1469 39.4766 30.5547ZM44.5625 32.6191V30.5137C44.5625 30.1286 44.2503 29.8164 43.8652 29.8164C43.4802 29.8164 43.168 30.1286 43.168 30.5137V32.6191C43.168 33.0042 43.4802 33.3164 43.8652 33.3164C44.2503 33.3164 44.5625 33.0042 44.5625 32.6191ZM31.6016 32.6191C31.6016 33.0042 31.9137 33.3164 32.2988 33.3164C32.6839 33.3164 32.9961 33.0042 32.9961 32.6191V30.5137C32.9961 30.1286 32.6839 29.8164 32.2988 29.8164C31.9137 29.8164 31.6016 30.1286 31.6016 30.5137V32.6191Z" fill="#F3F4F6"/>
</g>
<defs>
<filter id="filter0_d_136_855" x="0" y="0" width="76" height="76" filterUnits="userSpaceOnUse" color-interpolation-filters="sRGB">
<feFlood flood-opacity="0" result="BackgroundImageFix"/>
<feColorMatrix in="SourceAlpha" type="matrix" values="0 0 0 0 0 0 0 0 0 0 0 0 0 0 0 0 0 0 127 0" result="hardAlpha"/>
<feOffset dy="4"/>
<feGaussianBlur stdDeviation="5"/>
<feComposite in2="hardAlpha" operator="out"/>
<feColorMatrix type="matrix" values="0 0 0 0 0.254927 0 0 0 0 0.503123 0 0 0 0 0.999512 0 0 0 0.5 0"/>
<feBlend mode="normal" in2="BackgroundImageFix" result="effect1_dropShadow_136_855"/>
<feBlend mode="normal" in="SourceGraphic" in2="effect1_dropShadow_136_855" result="shape"/>
</filter>
</defs>
</svg>
