<svg width="164" height="70" viewBox="0 0 164 70" fill="none" xmlns="http://www.w3.org/2000/svg">
<path d="M13.2525 63.1536C19.9143 55.6293 30.3464 43.3078 30.5929 35.2086C30.6996 31.6436 29.295 28.6207 25.7629 28.6782C21.8036 28.7439 20.7604 33.2125 21.0314 36.0218C21.4421 40.2521 24.0954 44.4661 26.075 46.4457C31.2746 51.6453 39.1029 54.1096 45.7811 46.9714C47.1529 45.5093 49.3461 42.3468 49.3461 38.5682C49.3461 35.4139 47.1939 34.0093 45.4525 33.9764C42.6432 33.9189 41.5096 36.1943 41.4521 38.905C41.2714 47.3739 55.0221 63.4 67.8118 67.4661V35.9478C67.8118 33.1386 66.67 30.4443 64.6493 28.4975L39.5629 4.28998C37.1396 1.94891 33.1721 1.94891 30.7489 4.28998L5.6625 28.4811C3.64179 30.4361 2.5 33.1221 2.5 35.9314V67.4496" stroke="#006AF9" stroke-width="4.10714" stroke-linecap="round" stroke-linejoin="round"/>
<path d="M110.03 44.7153H113.38V47.3117H110.03V52.1973H107.266V40.5276H110.03V44.7153ZM102.799 43.5427C102.799 49.3776 97.2717 51.8344 89.0638 51.8344V49.5172C95.7641 49.4893 100.036 47.8421 100.036 43.9894V43.4311H89.0638V41.1139H102.799V43.5427ZM92.8607 59.8189V61.8848H110.281V64.0624H90.1247V53.5094H110.03V55.687H92.8607V57.753H109.695V59.8189H92.8607ZM132.837 64.3695V40.5276H135.629V64.3695H132.837ZM121.586 63.2528C117.342 63.2528 114.355 59.7352 114.355 52.1694C114.355 44.6036 117.342 41.086 121.586 41.086C125.801 41.086 128.789 44.6036 128.789 52.1694C128.789 59.7352 125.801 63.2528 121.586 63.2528ZM121.586 60.7123C124.071 60.7123 126.025 58.2276 126.025 52.1694C126.025 46.1391 124.071 43.6265 121.586 43.6265C119.045 43.6265 117.119 46.1391 117.119 52.1694C117.119 58.2276 119.045 60.7123 121.586 60.7123ZM162.902 50.1872V52.8394H159.552V64.3695H156.788V40.5276H159.552V50.1872H162.902ZM138.837 43.9336V41.3931H151.819V47.1442C151.819 56.6363 146.933 62.8899 138.837 62.8899V60.2656C145.314 60.2377 148.999 55.1845 148.999 47.2V43.9336H138.837Z" fill="#4B5563"/>
</svg>
