<svg width="85" height="85" viewBox="0 0 85 85" fill="none" xmlns="http://www.w3.org/2000/svg">
<path d="M16.09 76.7975C24.2 67.6375 36.9 52.6375 37.2 42.7775C37.33 38.4375 35.62 34.7575 31.32 34.8275C26.5 34.9075 25.23 40.3475 25.56 43.7675C26.06 48.9175 29.29 54.0475 31.7 56.4575C38.03 62.7875 47.56 65.7875 55.69 57.0975C57.36 55.3175 60.03 51.4675 60.03 46.8675C60.03 43.0275 57.41 41.3175 55.29 41.2775C51.87 41.2075 50.49 43.9775 50.42 47.2775C50.2 57.5875 66.94 77.0975 82.51 82.0475V43.6775C82.51 40.2575 81.12 36.9775 78.66 34.6075L48.12 5.1375C45.17 2.2875 40.34 2.2875 37.39 5.1375L6.85 34.5875C4.39 36.9675 3 40.2375 3 43.6575V82.0275" stroke="#006AF9" stroke-width="5" stroke-linecap="round" stroke-linejoin="round"/>
</svg>
