<svg width="181" height="30" viewBox="0 0 181 30" fill="none" xmlns="http://www.w3.org/2000/svg">
<rect x="0.5" y="0.5" width="180" height="29" rx="14.5" stroke="#374151"/>
<circle cx="55" cy="15" r="2.5" fill="#1D60E7"/>
<path d="M71.255 20.5781H69.8136V9.90234H71.255V20.5781ZM70.2062 15.2461H68.3956V14.0332H70.2062V15.2461ZM68.8175 20.0625H67.4171V10.0957H68.8175V20.0625ZM63.9835 17.2559H62.4894V11.0977H63.9835V17.2559ZM63.2042 16.6816C63.8214 16.6816 64.423 16.6582 65.0089 16.6113C65.5948 16.5645 66.1945 16.4844 66.8077 16.3711L66.9659 17.6602C66.2941 17.7734 65.6495 17.8555 65.0323 17.9062C64.4191 17.9531 63.8097 17.9766 63.2042 17.9766H62.4894V16.6816H63.2042ZM84.6001 19.3359H74.8501V18.1055H84.6001V19.3359ZM83.7856 12.0469H75.6059V10.8457H83.7856V12.0469ZM83.7388 16.459H75.6587V15.2754H83.7388V16.459ZM78.5766 15.3926H77.0825V11.9297H78.5766V15.3926ZM82.2856 15.3926H80.8149V11.9297H82.2856V15.3926ZM94.7912 19.3945H85.0412V18.1699H94.7912V19.3945ZM90.631 18.6797H89.1603V16.1484H90.631V18.6797ZM93.6662 14.1387H87.6545V15.9609H86.1662V12.9668H92.1896V11.8066H86.1486V10.6055H93.6662V14.1387ZM93.9181 16.5527H86.1662V15.3398H93.9181V16.5527ZM104.18 15.3867H102.674V9.90234H104.18V15.3867ZM104.18 18.6562H98.4315V19.9746H96.9491V17.5898H102.697V16.9688H96.9256V15.8086H104.18V18.6562ZM104.478 20.502H96.9491V19.3301H104.478V20.502ZM101.484 11.707H95.6893V10.5645H101.484V11.707ZM95.4022 14.0039C96.6366 14 97.7948 13.9766 98.8768 13.9336C99.9627 13.8906 100.971 13.8145 101.9 13.7051L101.965 14.7773C101.008 14.9297 99.9862 15.0352 98.9002 15.0938C97.8143 15.1484 96.703 15.1758 95.5662 15.1758L95.4022 14.0039ZM97.9803 14.5898H96.5448V11.0859H97.9803V14.5898ZM100.599 14.5898H99.1698V11.0859H100.599V14.5898ZM117.771 19.3359H108.021V18.1289H117.771V19.3359ZM113.611 18.4277H112.14V15.8145H113.611V18.4277ZM110.552 12.252H115.198V10.5879H116.687V16.1484H109.052V10.5879H110.552V12.252ZM115.198 14.9531V13.4355H110.552V14.9531H115.198ZM127.171 20.5781H125.653V9.90234H127.171V20.5781ZM123.977 11.0273C123.977 12.1719 123.823 13.2109 123.515 14.1445C123.21 15.0742 122.692 15.9297 121.962 16.7109C121.231 17.4883 120.253 18.168 119.026 18.75L118.241 17.5547C119.268 17.0703 120.093 16.5254 120.714 15.9199C121.335 15.3145 121.786 14.6348 122.067 13.8809C122.349 13.127 122.489 12.2637 122.489 11.291V11.0273H123.977ZM123.175 12.2051H118.809V11.0273H123.175V12.2051Z" fill="#374151"/>
</svg>
