<svg width="181" height="30" viewBox="0 0 181 30" fill="none" xmlns="http://www.w3.org/2000/svg">
<rect x="0.5" y="0.5" width="180" height="29" rx="14.5" stroke="#374151"/>
<path d="M66.755 20.5781H65.3136V9.90234H66.755V20.5781ZM65.7062 15.2461H63.8956V14.0332H65.7062V15.2461ZM64.3175 20.0625H62.9171V10.0957H64.3175V20.0625ZM59.4835 17.2559H57.9894V11.0977H59.4835V17.2559ZM58.7042 16.6816C59.3214 16.6816 59.923 16.6582 60.5089 16.6113C61.0948 16.5645 61.6945 16.4844 62.3077 16.3711L62.4659 17.6602C61.7941 17.7734 61.1495 17.8555 60.5323 17.9062C59.9191 17.9531 59.3097 17.9766 58.7042 17.9766H57.9894V16.6816H58.7042ZM80.1001 19.3359H70.3501V18.1055H80.1001V19.3359ZM79.2856 12.0469H71.1059V10.8457H79.2856V12.0469ZM79.2388 16.459H71.1587V15.2754H79.2388V16.459ZM74.0766 15.3926H72.5825V11.9297H74.0766V15.3926ZM77.7856 15.3926H76.3149V11.9297H77.7856V15.3926ZM90.2912 19.3945H80.5412V18.1699H90.2912V19.3945ZM86.131 18.6797H84.6603V16.1484H86.131V18.6797ZM89.1662 14.1387H83.1545V15.9609H81.6662V12.9668H87.6896V11.8066H81.6486V10.6055H89.1662V14.1387ZM89.4181 16.5527H81.6662V15.3398H89.4181V16.5527ZM99.6795 15.3867H98.1737V9.90234H99.6795V15.3867ZM99.6795 18.6562H93.9315V19.9746H92.4491V17.5898H98.1971V16.9688H92.4256V15.8086H99.6795V18.6562ZM99.9784 20.502H92.4491V19.3301H99.9784V20.502ZM96.9842 11.707H91.1893V10.5645H96.9842V11.707ZM90.9022 14.0039C92.1366 14 93.2948 13.9766 94.3768 13.9336C95.4627 13.8906 96.4705 13.8145 97.4002 13.7051L97.4647 14.7773C96.5077 14.9297 95.4862 15.0352 94.4002 15.0938C93.3143 15.1484 92.203 15.1758 91.0662 15.1758L90.9022 14.0039ZM93.4803 14.5898H92.0448V11.0859H93.4803V14.5898ZM96.0995 14.5898H94.6698V11.0859H96.0995V14.5898ZM113.271 19.3359H103.521V18.1289H113.271V19.3359ZM109.111 18.4277H107.64V15.8145H109.111V18.4277ZM106.052 12.252H110.698V10.5879H112.187V16.1484H104.552V10.5879H106.052V12.252ZM110.698 14.9531V13.4355H106.052V14.9531H110.698ZM122.671 20.5781H121.153V9.90234H122.671V20.5781ZM119.477 11.0273C119.477 12.1719 119.323 13.2109 119.015 14.1445C118.71 15.0742 118.192 15.9297 117.462 16.7109C116.731 17.4883 115.753 18.168 114.526 18.75L113.741 17.5547C114.768 17.0703 115.593 16.5254 116.214 15.9199C116.835 15.3145 117.286 14.6348 117.567 13.8809C117.849 13.127 117.989 12.2637 117.989 11.291V11.0273H119.477ZM118.675 12.2051H114.309V11.0273H118.675V12.2051Z" fill="#374151"/>
</svg>
