<svg width="84" height="24" viewBox="0 0 84 24" fill="none" xmlns="http://www.w3.org/2000/svg">
<path d="M8.5 9H16.5" stroke="#3675F3" stroke-width="1.6" stroke-linecap="round" stroke-linejoin="round"/>
<path d="M8.5 13H12" stroke="#3675F3" stroke-width="1.6" stroke-linecap="round" stroke-linejoin="round"/>
<path d="M10.98 19.512L8.5 21V18H6.5C5.70435 18 4.94129 17.6839 4.37868 17.1213C3.81607 16.5587 3.5 15.7956 3.5 15V7C3.5 6.20435 3.81607 5.44129 4.37868 4.87868C4.94129 4.31607 5.70435 4 6.5 4H18.5C19.2956 4 20.0587 4.31607 20.6213 4.87868C21.1839 5.44129 21.5 6.20435 21.5 7V11" stroke="#3675F3" stroke-width="1.6" stroke-linecap="round" stroke-linejoin="round"/>
<path d="M18.5001 22L21.8501 18.716C22.0556 18.5166 22.219 18.2782 22.3307 18.0146C22.4425 17.7511 22.5003 17.4678 22.5007 17.1815C22.5012 16.8953 22.4443 16.6118 22.3334 16.3479C22.2225 16.084 22.0599 15.845 21.8551 15.645C21.4373 15.2363 20.8763 15.007 20.2918 15.0059C19.7074 15.0048 19.1455 15.2319 18.7261 15.639L18.5021 15.859L18.2791 15.639C17.8613 15.2306 17.3006 15.0015 16.7163 15.0004C16.1321 14.9992 15.5705 15.2262 15.1511 15.633C14.9456 15.8323 14.7821 16.0707 14.6703 16.3342C14.5585 16.5977 14.5006 16.881 14.5 17.1672C14.4994 17.4535 14.5562 17.7369 14.667 18.0009C14.7778 18.2648 14.9404 18.5039 15.1451 18.704L18.5001 22Z" stroke="#3675F3" stroke-width="1.6" stroke-linecap="round" stroke-linejoin="round"/>
<path d="M43.1212 14.8945H41.8292V5.91895H43.1212V14.8945ZM43.4903 17.916H35.1163V16.8428H43.4903V17.916ZM36.4151 17.3828H35.1163V14.0469H36.4151V17.3828ZM37.1739 7.8125C37.1739 8.61458 37.0326 9.37109 36.7501 10.082C36.4721 10.7884 36.0733 11.4082 35.5538 11.9414C35.0343 12.4746 34.4236 12.8779 33.7218 13.1514L33.0313 12.1328C33.6602 11.9004 34.2071 11.5632 34.672 11.1211C35.1368 10.6745 35.49 10.1663 35.7315 9.59668C35.9731 9.02246 36.0938 8.42773 36.0938 7.8125V6.60254H37.1739V7.8125ZM37.4268 7.8125C37.4268 8.40495 37.5453 8.97233 37.7823 9.51465C38.0193 10.0524 38.3679 10.5309 38.8282 10.9502C39.2885 11.3649 39.824 11.6816 40.4346 11.9004L39.7647 12.9326C39.0583 12.6683 38.4477 12.2878 37.9327 11.791C37.4223 11.2897 37.0281 10.6995 36.7501 10.0205C36.4721 9.33691 36.3331 8.60091 36.3331 7.8125V6.60254H37.4268V7.8125ZM48.9131 8.53027C48.9131 9.23665 48.7741 9.90202 48.4961 10.5264C48.2181 11.1462 47.8194 11.6839 47.2998 12.1396C46.7849 12.5908 46.1742 12.9303 45.4678 13.1582L44.8526 12.1602C45.4633 11.9642 45.9965 11.6816 46.4522 11.3125C46.9079 10.9388 47.2565 10.5127 47.4981 10.0342C47.7396 9.55111 47.8604 9.0498 47.8604 8.53027V8.01758H48.9131V8.53027ZM49.1387 8.53027C49.1387 9.00423 49.264 9.46224 49.5147 9.9043C49.7699 10.3464 50.1276 10.736 50.5879 11.0732C51.0482 11.4059 51.5837 11.6611 52.1944 11.8389L51.5791 12.8438C50.8682 12.6432 50.2507 12.3311 49.7266 11.9072C49.2071 11.4834 48.8038 10.9798 48.5166 10.3965C48.2295 9.81315 48.086 9.19108 48.086 8.53027V8.01758H49.1387V8.53027ZM51.8116 8.36621H45.1944V7.33398H51.8116V8.36621ZM49.1661 7.7168H47.8604V5.85059H49.1661V7.7168ZM54.1153 10.4033H51.4356V9.34375H54.1153V10.4033ZM55.0655 13.3291H53.7666V5.90527H55.0655V13.3291ZM50.9571 13.6162C51.8184 13.6162 52.559 13.7051 53.1788 13.8828C53.8031 14.056 54.2793 14.3112 54.6075 14.6484C54.9401 14.9811 55.1065 15.389 55.1065 15.8721C55.1065 16.346 54.9401 16.7539 54.6075 17.0957C54.2793 17.4375 53.8031 17.6973 53.1788 17.875C52.559 18.0527 51.8184 18.1416 50.9571 18.1416C50.1094 18.1416 49.3734 18.0527 48.7491 17.875C48.1293 17.6973 47.653 17.4375 47.3204 17.0957C46.9877 16.7539 46.8213 16.346 46.8213 15.8721C46.8213 15.389 46.9877 14.9811 47.3204 14.6484C47.653 14.3112 48.1293 14.056 48.7491 13.8828C49.3689 13.7051 50.1049 13.6162 50.9571 13.6162ZM50.9571 14.6143C50.3601 14.6143 49.8474 14.6644 49.419 14.7646C48.9952 14.8604 48.6693 15.0039 48.4414 15.1953C48.2181 15.3822 48.1065 15.6077 48.1065 15.8721C48.1065 16.1273 48.2181 16.3506 48.4414 16.542C48.6693 16.7334 48.9974 16.8792 49.4258 16.9795C49.8588 17.0798 50.3692 17.1299 50.9571 17.1299C51.5586 17.1299 52.0713 17.0798 52.4952 16.9795C52.9235 16.8792 53.2494 16.7357 53.4727 16.5488C53.7006 16.362 53.8145 16.1364 53.8145 15.8721C53.8145 15.6077 53.7028 15.3822 53.4795 15.1953C53.2608 15.0039 52.9372 14.8604 52.5088 14.7646C52.0804 14.6644 51.5632 14.6143 50.9571 14.6143ZM69.6982 10.6152H61.3789V6.41797H69.6982V10.6152ZM62.6504 9.58301H68.4199V7.44336H62.6504V9.58301ZM71.1201 13.0967H59.9502V12.0508H71.1201V13.0967ZM66.1777 12.4199H64.8789V10.3691H66.1777V12.4199ZM69.7461 18.1553H68.4472V15.2842H61.1875V14.252H69.7461V18.1553ZM83.037 13.6572H71.8261V12.5977H83.037V13.6572ZM81.622 9.28223H74.5536V10.834H73.2685V8.3252H80.3232V7.23145H73.2343V6.19238H81.622V9.28223ZM81.8749 11.4424H73.2685V10.4238H81.8749V11.4424ZM78.0673 13.1445H76.789V10.9229H78.0673V13.1445ZM81.6904 18.0664H80.3847V15.5508H73.0771V14.5117H81.6904V18.0664Z" fill="black"/>
</svg>
