<svg width="375" height="123" viewBox="0 0 375 123" fill="none" xmlns="http://www.w3.org/2000/svg">
<path d="M149.023 72.8811V35.642C149.023 33.5921 149.856 31.6303 151.331 30.2067L169.62 14.9818C171.388 13.2756 174.281 13.2756 176.049 14.9818L194.338 30.2067" stroke="#9CA3AF" stroke-width="4" stroke-linecap="round" stroke-linejoin="round"/>
<path d="M185.198 14.7283L198.95 3.27968C200.718 1.57344 203.611 1.57344 205.379 3.27968L223.668 18.5046C225.143 19.9281 225.976 21.89 225.976 23.9399V59.9763" stroke="#9CA3AF" stroke-width="4" stroke-linecap="round" stroke-linejoin="round"/>
<path d="M171.681 75.1314C174.635 75.1314 177.51 74.0966 179.737 72.1563C186.538 66.2302 191.784 58.3978 192.038 50.0176C192.169 45.6725 190.458 41.9858 186.149 42.0557C181.329 42.1339 180.056 47.5817 180.385 51.0051C180.881 56.1628 184.121 61.2947 186.532 63.7059C192.871 70.0448 202.404 73.0435 210.546 64.3416C212.217 62.5557 214.889 58.7078 214.889 54.0993C214.889 50.2511 212.263 48.5442 210.142 48.5034C206.719 48.4376 205.336 51.2026 205.265 54.512C205.044 64.8288 210.389 72.9453 225.977 77.8991" stroke="#9CA3AF" stroke-width="4" stroke-miterlimit="10" stroke-linecap="round"/>
<path d="M150.371 109.287H146.064V107.714H150.371V109.287ZM143.489 106.387C143.489 107.676 143.319 108.903 142.979 110.069C142.639 111.229 142.138 112.258 141.476 113.154C140.814 114.051 140.02 114.736 139.094 115.211L137.855 113.62C138.699 113.228 139.425 112.653 140.035 111.897C140.644 111.142 141.107 110.289 141.424 109.34C141.74 108.385 141.898 107.4 141.898 106.387V103.847H143.489V106.387ZM143.884 106.387C143.884 107.395 144.037 108.358 144.341 109.278C144.652 110.198 145.103 111.016 145.695 111.73C146.293 112.445 147.002 112.987 147.822 113.356L146.644 114.921C145.718 114.464 144.93 113.808 144.28 112.952C143.635 112.091 143.146 111.101 142.812 109.981C142.478 108.862 142.311 107.664 142.311 106.387V103.847H143.884V106.387ZM151.329 118.489H149.395V102.572H151.329V118.489ZM166.519 118.489H164.541V102.572H166.519V118.489ZM156.086 107.846H159.945V103.873H161.869V114.736H154.144V103.873H156.086V107.846ZM159.945 113.137V109.375H156.086V113.137H159.945ZM176.435 104.743C176.435 105.874 176.151 106.935 175.583 107.925C175.02 108.915 174.241 109.756 173.245 110.447C172.255 111.139 171.133 111.616 169.879 111.88L169.035 110.254C170.107 110.049 171.077 109.668 171.944 109.111C172.817 108.555 173.497 107.893 173.983 107.125C174.475 106.357 174.721 105.563 174.721 104.743V103.583H176.435V104.743ZM176.787 104.743C176.787 105.563 177.033 106.36 177.525 107.134C178.023 107.901 178.709 108.566 179.582 109.129C180.461 109.686 181.439 110.061 182.517 110.254L181.647 111.88C180.405 111.616 179.289 111.142 178.299 110.456C177.308 109.771 176.529 108.936 175.961 107.951C175.398 106.961 175.117 105.892 175.117 104.743V103.583H176.787V104.743ZM183.115 116.433H168.595V114.824H183.115V116.433ZM195.53 104.611C195.53 105.467 195.275 106.252 194.765 106.967C194.261 107.676 193.541 108.268 192.603 108.742C191.672 109.217 190.582 109.533 189.334 109.691L188.622 108.145C189.677 108.021 190.594 107.781 191.373 107.424C192.158 107.066 192.759 106.642 193.175 106.149C193.591 105.657 193.799 105.145 193.799 104.611V104.189H195.53V104.611ZM196.444 104.611C196.444 105.145 196.655 105.657 197.077 106.149C197.499 106.642 198.105 107.066 198.896 107.424C199.687 107.781 200.604 108.021 201.647 108.145L200.918 109.691C199.676 109.533 198.583 109.217 197.639 108.742C196.702 108.268 195.975 107.676 195.46 106.967C194.95 106.252 194.695 105.467 194.695 104.611V104.189H196.444V104.611ZM201.067 104.849H189.211V103.302H201.067V104.849ZM202.403 112.152H187.884V110.57H202.403V112.152ZM196.268 115.053H194.335V111.563H196.268V115.053ZM200.795 118.164H189.633V116.564H200.795V118.164ZM191.593 117.136H189.633V113.585H191.593V117.136ZM216.398 118.489H214.42V102.572H216.398V118.489ZM205.965 107.846H209.824V103.873H211.748V114.736H204.023V103.873H205.965V107.846ZM209.824 113.137V109.375H205.965V113.137H209.824ZM230.676 113.321H228.751V110.518H230.676V113.321ZM236.96 111.432H222.493V109.858H236.96V111.432ZM229.709 112.759C230.858 112.759 231.842 112.87 232.662 113.093C233.489 113.31 234.118 113.632 234.552 114.06C234.992 114.487 235.211 115.003 235.211 115.606C235.211 116.204 234.992 116.714 234.552 117.136C234.118 117.558 233.489 117.88 232.662 118.103C231.842 118.325 230.858 118.437 229.709 118.437C228.555 118.437 227.565 118.325 226.739 118.103C225.912 117.88 225.277 117.558 224.831 117.136C224.392 116.714 224.172 116.204 224.172 115.606C224.172 115.003 224.392 114.487 224.831 114.06C225.271 113.632 225.904 113.31 226.73 113.093C227.562 112.87 228.555 112.759 229.709 112.759ZM229.709 114.244C228.936 114.244 228.285 114.297 227.758 114.402C227.237 114.508 226.841 114.66 226.572 114.859C226.302 115.059 226.167 115.308 226.167 115.606C226.167 115.888 226.302 116.131 226.572 116.336C226.841 116.535 227.24 116.69 227.767 116.802C228.294 116.907 228.942 116.96 229.709 116.96C230.465 116.96 231.11 116.907 231.643 116.802C232.176 116.69 232.577 116.535 232.847 116.336C233.117 116.131 233.251 115.888 233.251 115.606C233.251 115.308 233.117 115.059 232.847 114.859C232.577 114.66 232.179 114.508 231.652 114.402C231.124 114.297 230.477 114.244 229.709 114.244ZM230.122 104.436C230.122 105.244 229.865 105.982 229.349 106.65C228.839 107.312 228.11 107.86 227.16 108.294C226.217 108.728 225.113 109.009 223.847 109.138L223.188 107.6C224.237 107.494 225.154 107.286 225.939 106.976C226.73 106.665 227.336 106.287 227.758 105.842C228.18 105.391 228.391 104.922 228.391 104.436V103.996H230.122V104.436ZM231.036 104.436C231.036 104.922 231.244 105.391 231.66 105.842C232.082 106.287 232.692 106.665 233.489 106.976C234.285 107.286 235.217 107.494 236.284 107.6L235.589 109.138C234.341 109.009 233.24 108.728 232.285 108.294C231.329 107.86 230.591 107.312 230.07 106.65C229.548 105.982 229.287 105.244 229.287 104.436V103.996H231.036V104.436ZM235.66 104.831H223.803V103.275H235.66V104.831Z" fill="#9CA3AF"/>
</svg>
