<svg width="58" height="58" viewBox="0 0 58 58" fill="none" xmlns="http://www.w3.org/2000/svg">
<rect x="0.600001" y="0.600001" width="56.8" height="56.8" rx="28.4" fill="#F2F6FD" stroke="#D1D5DB" stroke-width="0.799999"/>
<mask id="mask0_303_1411" style="mask-type:alpha" maskUnits="userSpaceOnUse" x="1" y="1" width="56" height="56">
<ellipse cx="29" cy="29" rx="28" ry="28" fill="#F2F6FD"/>
</mask>
<g mask="url(#mask0_303_1411)">
<rect x="1" y="0.999985" width="56" height="56" fill="#F2F6FD"/>
<path d="M48.7303 53.8602C46.4093 38.1921 39.574 33.747 34.9781 30.6962C32.1625 28.8272 29.5174 28.5431 27.0236 26.2992C24.5846 24.0344 22.5795 21.041 22.6947 17.8495C22.7713 14.6357 25.5213 11.3726 29.0041 11.3703C32.4638 11.3681 35.2158 14.6499 35.331 17.8414C35.4461 21.0329 33.4419 24.0181 31.0029 26.2829C28.5091 28.5268 25.8642 28.8106 23.0486 30.6796C18.4527 33.7304 11.6174 38.1755 9.29639 53.8437" stroke="#1D60E7" stroke-width="2.00013" stroke-linecap="round" stroke-linejoin="round"/>
</g>
</svg>
