<svg width="57" height="56" viewBox="0 0 57 56" fill="none" xmlns="http://www.w3.org/2000/svg">
<path d="M18.5273 28.6777V18.8649C18.5273 18.3247 18.7469 17.8077 19.1355 17.4326L23.9549 13.4207C24.4208 12.9711 25.1831 12.9711 25.649 13.4207L30.4684 17.4326" stroke="#9CA3AF" stroke-width="1.4" stroke-linecap="round" stroke-linejoin="round"/>
<path d="M28.0601 13.354L31.6841 10.3372C32.15 9.8876 32.9123 9.8876 33.3781 10.3372L38.1975 14.3491C38.5862 14.7242 38.8057 15.2412 38.8057 15.7814V25.2773" stroke="#9CA3AF" stroke-width="1.4" stroke-linecap="round" stroke-linejoin="round"/>
<path d="M24.498 29.2707C25.2764 29.2707 26.034 28.998 26.6208 28.4867C28.413 26.9252 29.7953 24.8612 29.8622 22.653C29.8969 21.508 29.4459 20.5365 28.3105 20.5549C27.0404 20.5755 26.7049 22.0111 26.7916 22.9132C26.9223 24.2723 27.776 25.6246 28.4114 26.26C30.0818 27.9304 32.5939 28.7205 34.7395 26.4275C35.1799 25.9569 35.8839 24.9429 35.8839 23.7286C35.8839 22.7145 35.1918 22.2647 34.6329 22.254C33.7308 22.2366 33.3665 22.9653 33.3478 23.8373C33.2895 26.5559 34.698 28.6947 38.8057 30" stroke="#9CA3AF" stroke-width="1.4" stroke-miterlimit="10" stroke-linecap="round"/>
<path d="M7.04678 43.4751C7.04678 43.9478 6.96084 44.3882 6.78897 44.7964C6.62067 45.201 6.37002 45.5591 6.03701 45.8706C5.704 46.1785 5.29938 46.4131 4.82314 46.5742L4.32363 45.8115C4.72826 45.6826 5.07738 45.5 5.371 45.2637C5.6682 45.0238 5.8902 44.7498 6.03701 44.4419C6.1874 44.1304 6.2626 43.8081 6.2626 43.4751V42.9702H7.04678V43.4751ZM7.24551 43.4751C7.24551 43.7902 7.31712 44.0892 7.46035 44.3721C7.60358 44.6514 7.81305 44.8984 8.08877 45.1133C8.36807 45.3281 8.6957 45.491 9.07168 45.6021L8.57217 46.3486C8.12458 46.2126 7.74323 46.0031 7.42813 45.7202C7.1166 45.4338 6.88206 45.099 6.72451 44.7158C6.56696 44.3327 6.48818 43.9191 6.48818 43.4751V42.9702H7.24551V43.4751ZM12.6112 51.9077H11.6444V42.2827H12.6112V51.9077ZM10.7313 51.4243H9.77529V42.4814H10.7313V51.4243ZM10.1083 49.2598H8.04043V48.4541H10.1083V49.2598ZM7.20254 51.145H6.24648V47.4604H7.20254V51.145ZM4.18936 47.0952C5.11676 47.0952 6.01016 47.0773 6.86953 47.0415C7.73249 47.0057 8.50592 46.9395 9.18984 46.8428L9.2543 47.6055C8.53815 47.7451 7.75397 47.84 6.90176 47.8901C6.05313 47.9367 5.19196 47.9582 4.31826 47.9546L4.18936 47.0952ZM16.2758 43.0078C16.7485 43.0078 17.1674 43.1475 17.5327 43.4268C17.9015 43.7061 18.1897 44.0999 18.3974 44.6084C18.6051 45.1169 18.7089 45.7095 18.7089 46.3862C18.7089 47.0666 18.6051 47.661 18.3974 48.1694C18.1897 48.6779 17.9015 49.0718 17.5327 49.3511C17.1674 49.6268 16.7485 49.7646 16.2758 49.7646C15.8032 49.7646 15.3806 49.6268 15.0082 49.3511C14.6394 49.0754 14.3512 48.6833 14.1435 48.1748C13.9358 47.6628 13.832 47.0666 13.832 46.3862C13.832 45.7095 13.9358 45.1169 14.1435 44.6084C14.3512 44.0999 14.6394 43.7061 15.0082 43.4268C15.3806 43.1475 15.8032 43.0078 16.2758 43.0078ZM16.2758 43.9209C15.9894 43.9209 15.7333 44.0212 15.5078 44.2217C15.2822 44.4222 15.1085 44.7087 14.9868 45.0811C14.8686 45.4499 14.8095 45.8849 14.8095 46.3862C14.8095 46.884 14.8686 47.319 14.9868 47.6914C15.1085 48.0638 15.2822 48.3503 15.5078 48.5508C15.7333 48.7477 15.9894 48.8462 16.2758 48.8462C16.5623 48.8462 16.8183 48.7477 17.0439 48.5508C17.2695 48.3503 17.4431 48.0638 17.5649 47.6914C17.6866 47.319 17.7475 46.884 17.7475 46.3862C17.7475 45.8849 17.6848 45.4499 17.5595 45.0811C17.4378 44.7087 17.2659 44.4222 17.0439 44.2217C16.8255 44.0212 16.5694 43.9209 16.2758 43.9209ZM21.6953 51.9346H20.6801V42.2827H21.6953V51.9346ZM21.1259 46.73H18.3867V45.8975H21.1259V46.73ZM33.0259 51.9077H32.0161V42.2827H33.0259V51.9077ZM34.5781 47.0308H32.7949V46.1875H34.5781V47.0308ZM31.1782 44.6245H25.4741V43.792H31.1782V44.6245ZM28.3692 45.3389C28.8275 45.3389 29.2375 45.4338 29.5991 45.6235C29.9644 45.8133 30.249 46.0783 30.4531 46.4185C30.6608 46.7586 30.7647 47.1436 30.7647 47.5732C30.7647 48.0065 30.6608 48.3932 30.4531 48.7334C30.249 49.0736 29.9644 49.3385 29.5991 49.5283C29.2375 49.7181 28.8275 49.813 28.3692 49.813C27.9072 49.813 27.4955 49.7181 27.1338 49.5283C26.7722 49.3385 26.4875 49.0736 26.2798 48.7334C26.0757 48.3932 25.9737 48.0065 25.9737 47.5732C25.9737 47.1436 26.0757 46.7586 26.2798 46.4185C26.4875 46.0783 26.7722 45.8133 27.1338 45.6235C27.4955 45.4338 27.9072 45.3389 28.3692 45.3389ZM28.3692 46.1821C28.097 46.1821 27.8535 46.2412 27.6387 46.3594C27.4238 46.474 27.2538 46.6369 27.1284 46.8481C27.0067 47.0594 26.9458 47.3011 26.9458 47.5732C26.9458 47.849 27.0067 48.0907 27.1284 48.2983C27.2538 48.506 27.4238 48.6689 27.6387 48.7871C27.8535 48.9017 28.097 48.959 28.3692 48.959C28.6413 48.959 28.8848 48.9017 29.0996 48.7871C29.3145 48.6689 29.4828 48.506 29.6045 48.2983C29.7263 48.0907 29.7871 47.849 29.7871 47.5732C29.7871 47.3011 29.7263 47.0594 29.6045 46.8481C29.4828 46.6369 29.3145 46.474 29.0996 46.3594C28.8848 46.2412 28.6413 46.1821 28.3692 46.1821ZM28.8687 44.1465H27.8535V42.4116H28.8687V44.1465ZM43.6675 48.6045H34.8589V47.7559H43.6675V48.6045ZM39.7413 51.9131H38.7369V48.2715H39.7413V51.9131ZM39.2418 42.6479C39.9185 42.6479 40.5165 42.7357 41.0357 42.9111C41.5549 43.083 41.956 43.3319 42.2388 43.6577C42.5253 43.98 42.6685 44.3595 42.6685 44.7964C42.6685 45.2153 42.5253 45.5841 42.2388 45.9028C41.956 46.2215 41.5549 46.4686 41.0357 46.644C40.5165 46.8159 39.9185 46.9019 39.2418 46.9019C38.565 46.9019 37.967 46.8159 37.4478 46.644C36.9322 46.4686 36.5311 46.2215 36.2447 45.9028C35.9582 45.5841 35.815 45.2153 35.815 44.7964C35.815 44.3595 35.9582 43.98 36.2447 43.6577C36.5311 43.3319 36.9322 43.083 37.4478 42.9111C37.967 42.7357 38.565 42.6479 39.2418 42.6479ZM39.2418 43.4751C38.7655 43.4751 38.3484 43.527 37.9903 43.6309C37.6322 43.7347 37.3547 43.8869 37.1578 44.0874C36.9644 44.2879 36.8677 44.5243 36.8677 44.7964C36.8677 45.0578 36.9644 45.2869 37.1578 45.4839C37.3547 45.6772 37.6322 45.8276 37.9903 45.9351C38.3484 46.0389 38.7655 46.0908 39.2418 46.0908C39.718 46.0908 40.1369 46.0389 40.4986 45.9351C40.8602 45.8276 41.1378 45.6772 41.3311 45.4839C41.5281 45.2869 41.6265 45.0578 41.6265 44.7964C41.6265 44.5243 41.5281 44.2879 41.3311 44.0874C41.1378 43.8869 40.8602 43.7347 40.4986 43.6309C40.1369 43.527 39.718 43.4751 39.2418 43.4751ZM48.922 43.6523C48.922 44.3255 48.7411 44.9575 48.3795 45.5483C48.0214 46.1356 47.5434 46.6333 46.9454 47.0415C46.3474 47.4497 45.6939 47.7326 44.985 47.8901L44.5284 47.0361C45.1407 46.9144 45.7154 46.6852 46.2525 46.3486C46.7896 46.012 47.2193 45.6056 47.5416 45.1294C47.8639 44.6532 48.025 44.1608 48.025 43.6523V42.9326H48.922V43.6523ZM49.0992 43.6523C49.0992 44.1572 49.2621 44.6496 49.588 45.1294C49.9138 45.6092 50.3471 46.0192 50.8878 46.3594C51.4285 46.696 52.0032 46.9215 52.6119 47.0361L52.1554 47.8901C51.4535 47.7326 50.8036 47.4515 50.2057 47.0469C49.6077 46.6423 49.1279 46.1445 48.7662 45.5537C48.4046 44.9629 48.2237 44.3291 48.2237 43.6523V42.9326H49.0992V43.6523ZM53.0201 50.6455H44.2115V49.8022H53.0201V50.6455Z" fill="#9CA3AF"/>
</svg>
