<svg width="56" height="56" viewBox="0 0 56 56" fill="none" xmlns="http://www.w3.org/2000/svg">
<path d="M37.5 30C36.3817 22.625 33.0883 20.5327 30.8739 19.0967C29.5173 18.217 28.2428 18.0832 27.0413 17.027C25.8661 15.961 24.9 14.552 24.9555 13.0497C24.9925 11.537 26.3175 10.001 27.9955 10C29.6625 9.99896 30.9884 11.5437 31.0439 13.0459C31.0994 14.5482 30.1338 15.9533 28.9586 17.0194C27.757 18.0756 26.4827 18.2092 25.1261 19.0889C22.9117 20.5249 19.6183 22.6172 18.5 29.9922" stroke="#1D60E7" stroke-width="1.4" stroke-linecap="round" stroke-linejoin="round"/>
<path d="M17.8705 49.4961H13.3696V43.2388H17.8705V49.4961ZM14.3632 48.6743H16.8554V44.0444H14.3632V48.6743ZM20.497 51.9077H19.4819V42.2827H20.497V51.9077ZM22.0493 46.9233H20.2661V46.0532H22.0493V46.9233ZM30.3169 51.9346H29.291V42.2827H30.3169V51.9346ZM25.1606 43.0078C25.6404 43.0078 26.0683 43.1475 26.4443 43.4268C26.8203 43.7061 27.1139 44.0999 27.3252 44.6084C27.5364 45.1169 27.6421 45.7095 27.6421 46.3862C27.6421 47.0666 27.5364 47.661 27.3252 48.1694C27.1139 48.6779 26.8203 49.0718 26.4443 49.3511C26.0683 49.6268 25.6404 49.7646 25.1606 49.7646C24.6808 49.7646 24.2511 49.6268 23.8716 49.3511C23.4956 49.0718 23.202 48.6779 22.9907 48.1694C22.7794 47.661 22.6738 47.0666 22.6738 46.3862C22.6738 45.7095 22.7794 45.1169 22.9907 44.6084C23.202 44.0999 23.4956 43.7061 23.8716 43.4268C24.2511 43.1475 24.6808 43.0078 25.1606 43.0078ZM25.1606 43.9209C24.867 43.9209 24.6056 44.0212 24.3764 44.2217C24.1473 44.4222 23.97 44.7087 23.8447 45.0811C23.723 45.4499 23.6621 45.8849 23.6621 46.3862C23.6621 46.884 23.723 47.319 23.8447 47.6914C23.97 48.0638 24.1473 48.3503 24.3764 48.5508C24.6056 48.7477 24.867 48.8462 25.1606 48.8462C25.4542 48.8462 25.7138 48.7477 25.9394 48.5508C26.1686 48.3503 26.3458 48.0638 26.4712 47.6914C26.5965 47.319 26.6592 46.884 26.6592 46.3862C26.6592 45.8849 26.5965 45.4499 26.4712 45.0811C26.3458 44.7087 26.1704 44.4222 25.9448 44.2217C25.7192 44.0212 25.4578 43.9209 25.1606 43.9209ZM41.9107 51.7896H35.2559V49.0127H41.9107V51.7896ZM36.2657 51.0107H40.9117V49.7915H36.2657V51.0107ZM42.4854 43.835H34.6436V43.0562H42.4854V43.835ZM38.5914 44.1787C39.6155 44.1823 40.3961 44.2987 40.9332 44.5278C41.4739 44.7534 41.7442 45.0918 41.7442 45.543C41.7442 45.9906 41.4739 46.3307 40.9332 46.5635C40.3961 46.7962 39.6155 46.9126 38.5914 46.9126C37.5744 46.9126 36.792 46.7962 36.2442 46.5635C35.6963 46.3307 35.4224 45.9906 35.4224 45.543C35.4224 45.0954 35.6963 44.757 36.2442 44.5278C36.792 44.2987 37.5744 44.1823 38.5914 44.1787ZM38.5914 44.877C38.1295 44.877 37.7445 44.9038 37.4366 44.9575C37.1322 45.0076 36.9013 45.0811 36.7437 45.1777C36.5897 45.2744 36.5128 45.3962 36.5128 45.543C36.5128 45.6826 36.5915 45.8026 36.7491 45.9028C36.9102 46.0031 37.1448 46.0801 37.4527 46.1338C37.7606 46.1839 38.1402 46.209 38.5914 46.209C39.0425 46.209 39.4221 46.1839 39.73 46.1338C40.038 46.0801 40.2707 46.0031 40.4283 45.9028C40.5858 45.8026 40.6646 45.6826 40.6646 45.543C40.6646 45.3962 40.5858 45.2744 40.4283 45.1777C40.2707 45.0811 40.0398 45.0076 39.7354 44.9575C39.4346 44.9038 39.0533 44.877 38.5914 44.877ZM39.0962 43.5879H38.0811V42.1646H39.0962V43.5879ZM42.9795 48.3628H34.2032V47.5518H42.9795V48.3628ZM39.0962 48.0029H38.0811V46.6494H39.0962V48.0029Z" fill="#1D60E7"/>
</svg>
