<svg width="57" height="56" viewBox="0 0 57 56" fill="none" xmlns="http://www.w3.org/2000/svg">
<path d="M36.2938 17.7289C34.0805 19.0638 31.4852 19.7691 28.8942 19.74C28.3247 19.7336 27.622 19.5924 27.4678 19.0492C27.3581 18.6625 27.6159 18.248 27.9642 18.0422C28.3125 17.8365 28.7305 17.791 29.1339 17.7501C29.6576 17.697 30.1957 17.6449 30.7035 17.7831C31.2112 17.9213 31.6891 18.2945 31.7899 18.8065C31.9261 19.4984 31.3639 20.1191 30.8225 20.5766C28.6143 22.4425 25.962 23.789 23.1436 24.475" stroke="#1D60E7" stroke-width="1.4" stroke-linecap="round" stroke-linejoin="round"/>
<path d="M24.0684 26.7294C25.95 26.481 27.7663 25.7666 29.3043 24.6698" stroke="#1D60E7" stroke-width="1.4" stroke-linecap="round" stroke-linejoin="round"/>
<path d="M25.7412 28.4303C27.7875 28.2857 29.7893 27.6621 31.5116 26.6327" stroke="#1D60E7" stroke-width="1.4" stroke-linecap="round" stroke-linejoin="round"/>
<path d="M28.0278 29.9758C29.1909 30.1174 31.235 29.6127 32.2972 29.0909C34.4587 28.029 37.8818 25.3445 40.2916 21.3995" stroke="#1D60E7" stroke-width="1.4" stroke-linecap="round" stroke-linejoin="round"/>
<path d="M22.8385 21.7734C21.6132 20.6233 19.819 18.8757 18.5937 17.7255C17.8545 17.0316 17.0953 16.3099 16.6807 15.364C15.9447 13.6845 16.5879 11.4763 18.0927 10.5165C19.5974 9.55665 21.76 9.97526 22.84 11.4354C23.92 9.97526 26.0826 9.55665 27.5873 10.5165C29.0921 11.4763 29.7353 13.6845 28.9992 15.364" stroke="#1D60E7" stroke-width="1.4" stroke-linecap="round" stroke-linejoin="round"/>
<path d="M23.5229 43.4106C23.5229 44.3345 23.4155 45.1849 23.2007 45.9619C22.9858 46.7354 22.6098 47.4622 22.0727 48.1426C21.5356 48.8229 20.8034 49.4209 19.876 49.9365L19.2959 49.2222C20.1123 48.771 20.7586 48.2572 21.2348 47.6807C21.7111 47.1042 22.0495 46.4793 22.25 45.8062C22.4505 45.133 22.5508 44.39 22.5508 43.5771V43.4106H23.5229ZM22.9053 44.2432H19.7685V43.4106H22.9053V44.2432ZM19.4355 46.7085L19.2959 45.8169L22.4756 45.6289V46.397L19.4355 46.7085ZM24.914 46.8696H22.7388V46.0371H24.914V46.8696ZM27.5351 51.9077H26.5683V42.2827H27.5351V51.9077ZM25.5049 51.4458H24.5381V42.5298H25.5049V51.4458ZM31.2158 43.0078C31.6885 43.0078 32.1074 43.1475 32.4727 43.4268C32.8415 43.7061 33.1297 44.0999 33.3374 44.6084C33.5451 45.1169 33.6489 45.7095 33.6489 46.3862C33.6489 47.0666 33.5451 47.661 33.3374 48.1694C33.1297 48.6779 32.8415 49.0718 32.4727 49.3511C32.1074 49.6268 31.6885 49.7646 31.2158 49.7646C30.7432 49.7646 30.3207 49.6268 29.9483 49.3511C29.5794 49.0754 29.2912 48.6833 29.0835 48.1748C28.8758 47.6628 28.772 47.0666 28.772 46.3862C28.772 45.7095 28.8758 45.1169 29.0835 44.6084C29.2912 44.0999 29.5794 43.7061 29.9483 43.4268C30.3207 43.1475 30.7432 43.0078 31.2158 43.0078ZM31.2158 43.9209C30.9294 43.9209 30.6734 44.0212 30.4478 44.2217C30.2222 44.4222 30.0485 44.7087 29.9268 45.0811C29.8086 45.4499 29.7495 45.8849 29.7495 46.3862C29.7495 46.884 29.8086 47.319 29.9268 47.6914C30.0485 48.0638 30.2222 48.3503 30.4478 48.5508C30.6734 48.7477 30.9294 48.8462 31.2158 48.8462C31.5023 48.8462 31.7583 48.7477 31.9839 48.5508C32.2095 48.3503 32.3832 48.0638 32.5049 47.6914C32.6266 47.319 32.6875 46.884 32.6875 46.3862C32.6875 45.8849 32.6249 45.4499 32.4995 45.0811C32.3778 44.7087 32.2059 44.4222 31.9839 44.2217C31.7655 44.0212 31.5095 43.9209 31.2158 43.9209ZM36.6353 51.9346H35.6201V42.2827H36.6353V51.9346ZM36.0659 46.73H33.3267V45.8975H36.0659V46.73Z" fill="#1D60E7"/>
</svg>
