<svg width="56" height="56" viewBox="0 0 56 56" fill="none" xmlns="http://www.w3.org/2000/svg">
<path d="M21.2921 28.6753C23.3309 26.3588 26.5276 22.5635 26.6028 20.0683C26.6359 18.97 26.2057 18.0381 25.1229 18.0558C23.9116 18.0756 23.5916 19.4526 23.6743 20.3179C23.799 21.6216 24.6132 22.9188 25.2191 23.5282C26.8122 25.1305 29.208 25.8884 31.2544 23.6889C31.6743 23.2375 32.3458 22.2649 32.3458 21.1C32.3458 20.1273 31.6857 19.6959 31.1527 19.6856C30.2924 19.6689 29.9449 20.3678 29.9271 21.2043C29.8714 23.8121 34.0824 28.7479 38 30V20.2921C38 19.4263 37.6501 18.5976 37.0307 17.9963L29.3499 10.5405C28.6075 9.81983 27.3925 9.81983 26.6501 10.5405L18.9693 17.9963C18.3499 18.5976 18 19.4263 18 20.2921V30" stroke="#1D60E7" stroke-width="1.4" stroke-linecap="round" stroke-linejoin="round"/>
<path d="M31.3086 51.7896H24.6538V49.0127H31.3086V51.7896ZM25.6636 51.0107H30.3096V49.7915H25.6636V51.0107ZM31.8833 43.835H24.0415V43.0562H31.8833V43.835ZM27.9893 44.1787C29.0133 44.1823 29.7939 44.2987 30.3311 44.5278C30.8717 44.7534 31.1421 45.0918 31.1421 45.543C31.1421 45.9906 30.8717 46.3307 30.3311 46.5635C29.7939 46.7962 29.0133 46.9126 27.9893 46.9126C26.9723 46.9126 26.1899 46.7962 25.6421 46.5635C25.0942 46.3307 24.8203 45.9906 24.8203 45.543C24.8203 45.0954 25.0942 44.757 25.6421 44.5278C26.1899 44.2987 26.9723 44.1823 27.9893 44.1787ZM27.9893 44.877C27.5273 44.877 27.1424 44.9038 26.8345 44.9575C26.5301 45.0076 26.2992 45.0811 26.1416 45.1777C25.9876 45.2744 25.9106 45.3962 25.9106 45.543C25.9106 45.6826 25.9894 45.8026 26.147 45.9028C26.3081 46.0031 26.5426 46.0801 26.8506 46.1338C27.1585 46.1839 27.5381 46.209 27.9893 46.209C28.4404 46.209 28.82 46.1839 29.1279 46.1338C29.4359 46.0801 29.6686 46.0031 29.8262 45.9028C29.9837 45.8026 30.0625 45.6826 30.0625 45.543C30.0625 45.3962 29.9837 45.2744 29.8262 45.1777C29.6686 45.0811 29.4377 45.0076 29.1333 44.9575C28.8325 44.9038 28.4512 44.877 27.9893 44.877ZM28.4941 43.5879H27.479V42.1646H28.4941V43.5879ZM32.3774 48.3628H23.6011V47.5518H32.3774V48.3628ZM28.4941 48.0029H27.479V46.6494H28.4941V48.0029Z" fill="#1D60E7"/>
</svg>
