<svg width="335" height="62" viewBox="0 0 335 62" fill="none" xmlns="http://www.w3.org/2000/svg">
<path d="M26.4174 32.3891C29.33 29.0809 33.8967 23.661 34.0041 20.0976C34.0514 18.5292 33.4368 17.1984 31.8899 17.2236C30.1595 17.2518 29.7024 19.2183 29.8205 20.4541C29.9986 22.3158 31.1617 24.1683 32.0274 25.0387C34.3032 27.3268 37.7258 28.4093 40.6492 25.2681C41.2491 24.6235 42.2083 23.2345 42.2083 21.571C42.2083 20.1819 41.2653 19.5658 40.504 19.551C39.2749 19.5273 38.7786 20.5254 38.7531 21.72C38.6736 25.444 44.6892 32.4928 50.2858 34.2809V20.4172C50.2858 19.1807 49.786 17.9973 48.9011 17.1386L37.9285 6.49115C36.8679 5.46193 35.1323 5.46193 34.0716 6.49115L23.0991 17.1386C22.2142 17.9973 21.7144 19.1807 21.7144 20.4172V34.2809" stroke="#9CA3AF" stroke-width="2" stroke-linecap="round" stroke-linejoin="round"/>
<path d="M39.3086 57.7896H32.6538V55.0127H39.3086V57.7896ZM33.6636 57.0107H38.3096V55.7915H33.6636V57.0107ZM39.8833 49.835H32.0415V49.0562H39.8833V49.835ZM35.9893 50.1787C37.0133 50.1823 37.7939 50.2987 38.3311 50.5278C38.8717 50.7534 39.1421 51.0918 39.1421 51.543C39.1421 51.9906 38.8717 52.3307 38.3311 52.5635C37.7939 52.7962 37.0133 52.9126 35.9893 52.9126C34.9723 52.9126 34.1899 52.7962 33.6421 52.5635C33.0942 52.3307 32.8203 51.9906 32.8203 51.543C32.8203 51.0954 33.0942 50.757 33.6421 50.5278C34.1899 50.2987 34.9723 50.1823 35.9893 50.1787ZM35.9893 50.877C35.5273 50.877 35.1424 50.9038 34.8345 50.9575C34.5301 51.0076 34.2992 51.0811 34.1416 51.1777C33.9876 51.2744 33.9106 51.3962 33.9106 51.543C33.9106 51.6826 33.9894 51.8026 34.147 51.9028C34.3081 52.0031 34.5426 52.0801 34.8506 52.1338C35.1585 52.1839 35.5381 52.209 35.9893 52.209C36.4404 52.209 36.82 52.1839 37.1279 52.1338C37.4359 52.0801 37.6686 52.0031 37.8262 51.9028C37.9837 51.8026 38.0625 51.6826 38.0625 51.543C38.0625 51.3962 37.9837 51.2744 37.8262 51.1777C37.6686 51.0811 37.4377 51.0076 37.1333 50.9575C36.8325 50.9038 36.4512 50.877 35.9893 50.877ZM36.4941 49.5879H35.479V48.1646H36.4941V49.5879ZM40.3774 54.3628H31.6011V53.5518H40.3774V54.3628ZM36.4941 54.0029H35.479V52.6494H36.4941V54.0029Z" fill="#9CA3AF"/>
<path d="M109.182 32.3969V18.3785C109.182 17.6068 109.496 16.8683 110.051 16.3324L116.936 10.6011C117.601 9.95881 118.69 9.95881 119.356 10.6011L126.241 16.3324" stroke="#1D60E7" stroke-width="2" stroke-linecap="round" stroke-linejoin="round"/>
<path d="M122.8 10.5058L127.977 6.19608C128.643 5.55378 129.732 5.55378 130.397 6.19608L137.282 11.9274C137.837 12.4633 138.151 13.2018 138.151 13.9735V27.5391" stroke="#1D60E7" stroke-width="2" stroke-linecap="round" stroke-linejoin="round"/>
<path d="M117.712 33.244C118.824 33.244 119.906 32.8544 120.744 32.124C123.304 29.8932 125.279 26.9447 125.375 23.7901C125.424 22.1544 124.78 20.7665 123.158 20.7928C121.344 20.8223 120.864 22.8731 120.988 24.1618C121.175 26.1034 122.394 28.0352 123.302 28.9429C125.688 31.3291 129.277 32.458 132.342 29.1822C132.971 28.5099 133.977 27.0614 133.977 25.3266C133.977 23.8779 132.988 23.2354 132.19 23.2201C130.901 23.1953 130.381 24.2362 130.354 25.4819C130.271 29.3656 132.283 32.421 138.151 34.2858" stroke="#1D60E7" stroke-width="2" stroke-miterlimit="10" stroke-linecap="round"/>
<path d="M102.047 49.4751C102.047 49.9478 101.961 50.3882 101.789 50.7964C101.621 51.201 101.37 51.5591 101.037 51.8706C100.704 52.1785 100.3 52.4131 99.8233 52.5742L99.3238 51.8115C99.7284 51.6826 100.077 51.5 100.371 51.2637C100.668 51.0238 100.89 50.7498 101.037 50.4419C101.188 50.1304 101.263 49.8081 101.263 49.4751V48.9702H102.047V49.4751ZM102.246 49.4751C102.246 49.7902 102.317 50.0892 102.46 50.3721C102.604 50.6514 102.813 50.8984 103.089 51.1133C103.368 51.3281 103.696 51.491 104.072 51.6021L103.572 52.3486C103.125 52.2126 102.743 52.0031 102.428 51.7202C102.117 51.4338 101.882 51.099 101.725 50.7158C101.567 50.3327 101.488 49.9191 101.488 49.4751V48.9702H102.246V49.4751ZM107.611 57.9077H106.645V48.2827H107.611V57.9077ZM105.731 57.4243H104.775V48.4814H105.731V57.4243ZM105.108 55.2598H103.041V54.4541H105.108V55.2598ZM102.203 57.145H101.247V53.4604H102.203V57.145ZM99.1895 53.0952C100.117 53.0952 101.01 53.0773 101.87 53.0415C102.733 53.0057 103.506 52.9395 104.19 52.8428L104.254 53.6055C103.538 53.7451 102.754 53.84 101.902 53.8901C101.053 53.9367 100.192 53.9582 99.3184 53.9546L99.1895 53.0952ZM111.276 49.0078C111.749 49.0078 112.168 49.1475 112.533 49.4268C112.902 49.7061 113.19 50.0999 113.398 50.6084C113.605 51.1169 113.709 51.7095 113.709 52.3862C113.709 53.0666 113.605 53.661 113.398 54.1694C113.19 54.6779 112.902 55.0718 112.533 55.3511C112.168 55.6268 111.749 55.7646 111.276 55.7646C110.803 55.7646 110.381 55.6268 110.008 55.3511C109.64 55.0754 109.351 54.6833 109.144 54.1748C108.936 53.6628 108.832 53.0666 108.832 52.3862C108.832 51.7095 108.936 51.1169 109.144 50.6084C109.351 50.0999 109.64 49.7061 110.008 49.4268C110.381 49.1475 110.803 49.0078 111.276 49.0078ZM111.276 49.9209C110.989 49.9209 110.733 50.0212 110.508 50.2217C110.282 50.4222 110.109 50.7087 109.987 51.0811C109.869 51.4499 109.81 51.8849 109.81 52.3862C109.81 52.884 109.869 53.319 109.987 53.6914C110.109 54.0638 110.282 54.3503 110.508 54.5508C110.733 54.7477 110.989 54.8462 111.276 54.8462C111.562 54.8462 111.818 54.7477 112.044 54.5508C112.27 54.3503 112.443 54.0638 112.565 53.6914C112.687 53.319 112.748 52.884 112.748 52.3862C112.748 51.8849 112.685 51.4499 112.56 51.0811C112.438 50.7087 112.266 50.4222 112.044 50.2217C111.826 50.0212 111.57 49.9209 111.276 49.9209ZM116.695 57.9346H115.68V48.2827H116.695V57.9346ZM116.126 52.73H113.387V51.8975H116.126V52.73ZM128.026 57.9077H127.016V48.2827H128.026V57.9077ZM129.578 53.0308H127.795V52.1875H129.578V53.0308ZM126.178 50.6245H120.474V49.792H126.178V50.6245ZM123.369 51.3389C123.828 51.3389 124.238 51.4338 124.599 51.6235C124.964 51.8133 125.249 52.0783 125.453 52.4185C125.661 52.7586 125.765 53.1436 125.765 53.5732C125.765 54.0065 125.661 54.3932 125.453 54.7334C125.249 55.0736 124.964 55.3385 124.599 55.5283C124.238 55.7181 123.828 55.813 123.369 55.813C122.907 55.813 122.496 55.7181 122.134 55.5283C121.772 55.3385 121.488 55.0736 121.28 54.7334C121.076 54.3932 120.974 54.0065 120.974 53.5732C120.974 53.1436 121.076 52.7586 121.28 52.4185C121.488 52.0783 121.772 51.8133 122.134 51.6235C122.496 51.4338 122.907 51.3389 123.369 51.3389ZM123.369 52.1821C123.097 52.1821 122.854 52.2412 122.639 52.3594C122.424 52.474 122.254 52.6369 122.129 52.8481C122.007 53.0594 121.946 53.3011 121.946 53.5732C121.946 53.849 122.007 54.0907 122.129 54.2983C122.254 54.506 122.424 54.6689 122.639 54.7871C122.854 54.9017 123.097 54.959 123.369 54.959C123.641 54.959 123.885 54.9017 124.1 54.7871C124.315 54.6689 124.483 54.506 124.605 54.2983C124.726 54.0907 124.787 53.849 124.787 53.5732C124.787 53.3011 124.726 53.0594 124.605 52.8481C124.483 52.6369 124.315 52.474 124.1 52.3594C123.885 52.2412 123.641 52.1821 123.369 52.1821ZM123.869 50.1465H122.854V48.4116H123.869V50.1465ZM138.668 54.6045H129.859V53.7559H138.668V54.6045ZM134.741 57.9131H133.737V54.2715H134.741V57.9131ZM134.242 48.6479C134.919 48.6479 135.517 48.7357 136.036 48.9111C136.555 49.083 136.956 49.3319 137.239 49.6577C137.525 49.98 137.669 50.3595 137.669 50.7964C137.669 51.2153 137.525 51.5841 137.239 51.9028C136.956 52.2215 136.555 52.4686 136.036 52.644C135.517 52.8159 134.919 52.9019 134.242 52.9019C133.565 52.9019 132.967 52.8159 132.448 52.644C131.932 52.4686 131.531 52.2215 131.245 51.9028C130.958 51.5841 130.815 51.2153 130.815 50.7964C130.815 50.3595 130.958 49.98 131.245 49.6577C131.531 49.3319 131.932 49.083 132.448 48.9111C132.967 48.7357 133.565 48.6479 134.242 48.6479ZM134.242 49.4751C133.766 49.4751 133.348 49.527 132.99 49.6309C132.632 49.7347 132.355 49.8869 132.158 50.0874C131.965 50.2879 131.868 50.5243 131.868 50.7964C131.868 51.0578 131.965 51.2869 132.158 51.4839C132.355 51.6772 132.632 51.8276 132.99 51.9351C133.348 52.0389 133.766 52.0908 134.242 52.0908C134.718 52.0908 135.137 52.0389 135.499 51.9351C135.86 51.8276 136.138 51.6772 136.331 51.4839C136.528 51.2869 136.627 51.0578 136.627 50.7964C136.627 50.5243 136.528 50.2879 136.331 50.0874C136.138 49.8869 135.86 49.7347 135.499 49.6309C135.137 49.527 134.718 49.4751 134.242 49.4751ZM143.922 49.6523C143.922 50.3255 143.741 50.9575 143.38 51.5483C143.022 52.1356 142.544 52.6333 141.946 53.0415C141.348 53.4497 140.694 53.7326 139.985 53.8901L139.529 53.0361C140.141 52.9144 140.716 52.6852 141.253 52.3486C141.79 52.012 142.219 51.6056 142.542 51.1294C142.864 50.6532 143.025 50.1608 143.025 49.6523V48.9326H143.922V49.6523ZM144.099 49.6523C144.099 50.1572 144.262 50.6496 144.588 51.1294C144.914 51.6092 145.347 52.0192 145.888 52.3594C146.429 52.696 147.003 52.9215 147.612 53.0361L147.155 53.8901C146.454 53.7326 145.804 53.4515 145.206 53.0469C144.608 52.6423 144.128 52.1445 143.766 51.5537C143.405 50.9629 143.224 50.3291 143.224 49.6523V48.9326H144.099V49.6523ZM148.02 56.6455H139.212V55.8022H148.02V56.6455Z" fill="#1D60E7"/>
<path d="M222.705 16.7556C219.544 18.6626 215.836 19.6703 212.135 19.6286C211.321 19.6194 210.317 19.4178 210.097 18.6418C209.94 18.0893 210.308 17.4972 210.806 17.2033C211.303 16.9093 211.901 16.8443 212.477 16.7859C213.225 16.7101 213.994 16.6357 214.719 16.8331C215.444 17.0305 216.127 17.5636 216.271 18.2951C216.466 19.2835 215.663 20.1702 214.889 20.8237C211.735 23.4893 207.946 25.4129 203.919 26.3929" stroke="#9CA3AF" stroke-width="2" stroke-linecap="round" stroke-linejoin="round"/>
<path d="M205.24 29.6136C207.928 29.2589 210.523 28.2382 212.72 26.6714" stroke="#9CA3AF" stroke-width="2" stroke-linecap="round" stroke-linejoin="round"/>
<path d="M207.63 32.0433C210.554 31.8367 213.413 30.9459 215.874 29.4753" stroke="#9CA3AF" stroke-width="2" stroke-linecap="round" stroke-linejoin="round"/>
<path d="M210.897 34.2513C212.558 34.4536 215.478 33.7326 216.996 32.9872C220.084 31.4702 224.974 27.6351 228.416 21.9995" stroke="#9CA3AF" stroke-width="2" stroke-linecap="round" stroke-linejoin="round"/>
<path d="M203.483 22.5335C201.733 20.8905 199.17 18.3939 197.419 16.7508C196.363 15.7595 195.279 14.7285 194.687 13.3772C193.635 10.9779 194.554 7.82329 196.704 6.45214C198.853 5.081 201.943 5.67901 203.485 7.76491C205.028 5.67901 208.118 5.081 210.267 6.45214C212.417 7.82329 213.336 10.9779 212.284 13.3772" stroke="#9CA3AF" stroke-width="2" stroke-linecap="round" stroke-linejoin="round"/>
<path d="M206.523 49.4106C206.523 50.3345 206.415 51.1849 206.201 51.9619C205.986 52.7354 205.61 53.4622 205.073 54.1426C204.536 54.8229 203.803 55.4209 202.876 55.9365L202.296 55.2222C203.112 54.771 203.758 54.2572 204.235 53.6807C204.711 53.1042 205.049 52.4793 205.25 51.8062C205.45 51.133 205.551 50.39 205.551 49.5771V49.4106H206.523ZM205.905 50.2432H202.768V49.4106H205.905V50.2432ZM202.435 52.7085L202.296 51.8169L205.475 51.6289V52.397L202.435 52.7085ZM207.914 52.8696H205.739V52.0371H207.914V52.8696ZM210.535 57.9077H209.568V48.2827H210.535V57.9077ZM208.505 57.4458H207.538V48.5298H208.505V57.4458ZM214.216 49.0078C214.688 49.0078 215.107 49.1475 215.473 49.4268C215.841 49.7061 216.13 50.0999 216.337 50.6084C216.545 51.1169 216.649 51.7095 216.649 52.3862C216.649 53.0666 216.545 53.661 216.337 54.1694C216.13 54.6779 215.841 55.0718 215.473 55.3511C215.107 55.6268 214.688 55.7646 214.216 55.7646C213.743 55.7646 213.321 55.6268 212.948 55.3511C212.579 55.0754 212.291 54.6833 212.083 54.1748C211.876 53.6628 211.772 53.0666 211.772 52.3862C211.772 51.7095 211.876 51.1169 212.083 50.6084C212.291 50.0999 212.579 49.7061 212.948 49.4268C213.321 49.1475 213.743 49.0078 214.216 49.0078ZM214.216 49.9209C213.929 49.9209 213.673 50.0212 213.448 50.2217C213.222 50.4222 213.048 50.7087 212.927 51.0811C212.808 51.4499 212.749 51.8849 212.749 52.3862C212.749 52.884 212.808 53.319 212.927 53.6914C213.048 54.0638 213.222 54.3503 213.448 54.5508C213.673 54.7477 213.929 54.8462 214.216 54.8462C214.502 54.8462 214.758 54.7477 214.984 54.5508C215.209 54.3503 215.383 54.0638 215.505 53.6914C215.627 53.319 215.687 52.884 215.687 52.3862C215.687 51.8849 215.625 51.4499 215.499 51.0811C215.378 50.7087 215.206 50.4222 214.984 50.2217C214.765 50.0212 214.509 49.9209 214.216 49.9209ZM219.635 57.9346H218.62V48.2827H219.635V57.9346ZM219.066 52.73H216.327V51.8975H219.066V52.73Z" fill="#9CA3AF"/>
<path d="M312.571 34.6233C310.974 23.8387 306.269 20.7791 303.105 18.6792C301.168 17.3927 299.347 17.1972 297.63 15.6527C295.952 14.0938 294.571 12.0334 294.651 9.83661C294.703 7.62456 296.596 5.37848 298.993 5.37695C301.375 5.37543 303.269 7.63431 303.348 9.83107C303.428 12.0278 302.048 14.0826 300.369 15.6415C298.653 17.186 296.832 17.3813 294.894 18.6678C291.731 20.7677 287.026 23.8273 285.428 34.6119" stroke="#9CA3AF" stroke-width="2" stroke-linecap="round" stroke-linejoin="round"/>
<path d="M288.871 55.4961H284.37V49.2388H288.871V55.4961ZM285.363 54.6743H287.855V50.0444H285.363V54.6743ZM291.497 57.9077H290.482V48.2827H291.497V57.9077ZM293.049 52.9233H291.266V52.0532H293.049V52.9233ZM301.317 57.9346H300.291V48.2827H301.317V57.9346ZM296.161 49.0078C296.64 49.0078 297.068 49.1475 297.444 49.4268C297.82 49.7061 298.114 50.0999 298.325 50.6084C298.536 51.1169 298.642 51.7095 298.642 52.3862C298.642 53.0666 298.536 53.661 298.325 54.1694C298.114 54.6779 297.82 55.0718 297.444 55.3511C297.068 55.6268 296.64 55.7646 296.161 55.7646C295.681 55.7646 295.251 55.6268 294.872 55.3511C294.496 55.0718 294.202 54.6779 293.991 54.1694C293.779 53.661 293.674 53.0666 293.674 52.3862C293.674 51.7095 293.779 51.1169 293.991 50.6084C294.202 50.0999 294.496 49.7061 294.872 49.4268C295.251 49.1475 295.681 49.0078 296.161 49.0078ZM296.161 49.9209C295.867 49.9209 295.606 50.0212 295.376 50.2217C295.147 50.4222 294.97 50.7087 294.845 51.0811C294.723 51.4499 294.662 51.8849 294.662 52.3862C294.662 52.884 294.723 53.319 294.845 53.6914C294.97 54.0638 295.147 54.3503 295.376 54.5508C295.606 54.7477 295.867 54.8462 296.161 54.8462C296.454 54.8462 296.714 54.7477 296.939 54.5508C297.169 54.3503 297.346 54.0638 297.471 53.6914C297.596 53.319 297.659 52.884 297.659 52.3862C297.659 51.8849 297.596 51.4499 297.471 51.0811C297.346 50.7087 297.17 50.4222 296.945 50.2217C296.719 50.0212 296.458 49.9209 296.161 49.9209ZM312.911 57.7896H306.256V55.0127H312.911V57.7896ZM307.266 57.0107H311.912V55.7915H307.266V57.0107ZM313.485 49.835H305.644V49.0562H313.485V49.835ZM309.591 50.1787C310.615 50.1823 311.396 50.2987 311.933 50.5278C312.474 50.7534 312.744 51.0918 312.744 51.543C312.744 51.9906 312.474 52.3307 311.933 52.5635C311.396 52.7962 310.615 52.9126 309.591 52.9126C308.574 52.9126 307.792 52.7962 307.244 52.5635C306.696 52.3307 306.422 51.9906 306.422 51.543C306.422 51.0954 306.696 50.757 307.244 50.5278C307.792 50.2987 308.574 50.1823 309.591 50.1787ZM309.591 50.877C309.129 50.877 308.745 50.9038 308.437 50.9575C308.132 51.0076 307.901 51.0811 307.744 51.1777C307.59 51.2744 307.513 51.3962 307.513 51.543C307.513 51.6826 307.592 51.8026 307.749 51.9028C307.91 52.0031 308.145 52.0801 308.453 52.1338C308.761 52.1839 309.14 52.209 309.591 52.209C310.043 52.209 310.422 52.1839 310.73 52.1338C311.038 52.0801 311.271 52.0031 311.428 51.9028C311.586 51.8026 311.665 51.6826 311.665 51.543C311.665 51.3962 311.586 51.2744 311.428 51.1777C311.271 51.0811 311.04 51.0076 310.735 50.9575C310.435 50.9038 310.053 50.877 309.591 50.877ZM310.096 49.5879H309.081V48.1646H310.096V49.5879ZM313.98 54.3628H305.203V53.5518H313.98V54.3628ZM310.096 54.0029H309.081V52.6494H310.096V54.0029Z" fill="#9CA3AF"/>
</svg>
