<svg width="48" height="21" viewBox="0 0 48 21" fill="none" xmlns="http://www.w3.org/2000/svg">
<rect width="48" height="21" rx="10.5" fill="#1D60E7"/>
<path d="M13.6108 8.23193C13.6108 8.99105 13.4944 9.71794 13.2617 10.4126C13.0289 11.1037 12.7031 11.7142 12.2841 12.2441C11.8652 12.7705 11.3764 13.1698 10.8178 13.4419L10.1787 12.5879C10.68 12.3623 11.1258 12.0257 11.5161 11.5781C11.91 11.127 12.2161 10.6095 12.4345 10.0259C12.6565 9.43864 12.7675 8.84066 12.7675 8.23193V6.58301H13.6108V8.23193ZM13.7934 8.23193C13.7934 8.81559 13.9008 9.38672 14.1157 9.94531C14.3341 10.5039 14.6367 11.0016 15.0234 11.4385C15.4137 11.8753 15.8523 12.203 16.3393 12.4214L15.727 13.2324C15.1863 12.9746 14.7029 12.5915 14.2768 12.083C13.8543 11.5745 13.5267 10.9873 13.2939 10.3213C13.0612 9.65527 12.9448 8.95882 12.9448 8.23193V6.58301H13.7934V8.23193ZM18.2353 15.4346H17.2094V5.78271H18.2353V15.4346ZM27.5879 15.4077H26.5781V5.78271H27.5879V15.4077ZM21.1963 12.6899H20.1919V6.72266H21.1963V12.6899ZM20.9976 12.0884C21.771 12.0884 22.5426 12.0544 23.3125 11.9863C24.0859 11.9147 24.8594 11.7983 25.6328 11.6372L25.7671 12.4966C24.9578 12.6613 24.1629 12.7812 23.3823 12.8564C22.6053 12.9281 21.8104 12.9639 20.9976 12.9639H20.1919V12.0884H20.9976ZM31.5533 6.50781C32.0259 6.50781 32.4449 6.64746 32.8101 6.92676C33.1789 7.20605 33.4672 7.59993 33.6748 8.1084C33.8825 8.61686 33.9864 9.20947 33.9864 9.88623C33.9864 10.5666 33.8825 11.161 33.6748 11.6694C33.4672 12.1779 33.1789 12.5718 32.8101 12.8511C32.4449 13.1268 32.0259 13.2646 31.5533 13.2646C31.0806 13.2646 30.6581 13.1268 30.2857 12.8511C29.9169 12.5754 29.6286 12.1833 29.4209 11.6748C29.2133 11.1628 29.1094 10.5666 29.1094 9.88623C29.1094 9.20947 29.2133 8.61686 29.4209 8.1084C29.6286 7.59993 29.9169 7.20605 30.2857 6.92676C30.6581 6.64746 31.0806 6.50781 31.5533 6.50781ZM31.5533 7.4209C31.2668 7.4209 31.0108 7.52116 30.7852 7.72168C30.5596 7.9222 30.3859 8.20866 30.2642 8.58105C30.146 8.94987 30.087 9.38493 30.087 9.88623C30.087 10.384 30.146 10.819 30.2642 11.1914C30.3859 11.5638 30.5596 11.8503 30.7852 12.0508C31.0108 12.2477 31.2668 12.3462 31.5533 12.3462C31.8397 12.3462 32.0957 12.2477 32.3213 12.0508C32.5469 11.8503 32.7206 11.5638 32.8423 11.1914C32.9641 10.819 33.0249 10.384 33.0249 9.88623C33.0249 9.38493 32.9623 8.94987 32.837 8.58105C32.7152 8.20866 32.5433 7.9222 32.3213 7.72168C32.1029 7.52116 31.8469 7.4209 31.5533 7.4209ZM36.9727 15.4346H35.9576V5.78271H36.9727V15.4346ZM36.4034 10.23H33.6641V9.39746H36.4034V10.23Z" fill="#FEFEFE"/>
</svg>
