<svg width="48" height="21" viewBox="0 0 48 21" fill="none" xmlns="http://www.w3.org/2000/svg">
<rect width="48" height="21" rx="10.5" fill="#1D60E7"/>
<path d="M14.9589 7.14697C14.9589 7.70199 14.7871 8.21224 14.4433 8.67773C14.0996 9.14323 13.6394 9.53174 13.0629 9.84326C12.4865 10.1548 11.8455 10.366 11.1401 10.4771L10.748 9.67676C11.3496 9.59082 11.9046 9.42253 12.413 9.17188C12.9215 8.92122 13.3243 8.61865 13.6215 8.26416C13.9187 7.90967 14.0673 7.53727 14.0673 7.14697V6.77637H14.9589V7.14697ZM15.2275 7.14697C15.2275 7.53727 15.3743 7.90967 15.6679 8.26416C15.9651 8.61865 16.368 8.92122 16.8764 9.17188C17.3885 9.42253 17.9453 9.59082 18.5468 9.67676L18.1762 10.4771C17.4672 10.366 16.8209 10.1566 16.2373 9.84863C15.6572 9.54069 15.1953 9.15218 14.8515 8.68311C14.5114 8.21403 14.3413 7.70199 14.3413 7.14697V6.77637H15.2275V7.14697ZM15.1308 15.4131H14.1264V11.7769H15.1308V15.4131ZM19.0356 12.0454H10.2592V11.2129H19.0356V12.0454ZM18.2138 7.17383H11.0703V6.35742H18.2138V7.17383ZM27.5879 15.4077H26.5781V5.78271H27.5879V15.4077ZM21.1963 12.6899H20.1919V6.72266H21.1963V12.6899ZM20.9976 12.0884C21.771 12.0884 22.5426 12.0544 23.3125 11.9863C24.0859 11.9147 24.8594 11.7983 25.6328 11.6372L25.7671 12.4966C24.9578 12.6613 24.1629 12.7812 23.3823 12.8564C22.6053 12.9281 21.8104 12.9639 20.9976 12.9639H20.1919V12.0884H20.9976ZM31.5533 6.50781C32.0259 6.50781 32.4449 6.64746 32.8101 6.92676C33.1789 7.20605 33.4672 7.59993 33.6748 8.1084C33.8825 8.61686 33.9864 9.20947 33.9864 9.88623C33.9864 10.5666 33.8825 11.161 33.6748 11.6694C33.4672 12.1779 33.1789 12.5718 32.8101 12.8511C32.4449 13.1268 32.0259 13.2646 31.5533 13.2646C31.0806 13.2646 30.6581 13.1268 30.2857 12.8511C29.9169 12.5754 29.6286 12.1833 29.4209 11.6748C29.2133 11.1628 29.1094 10.5666 29.1094 9.88623C29.1094 9.20947 29.2133 8.61686 29.4209 8.1084C29.6286 7.59993 29.9169 7.20605 30.2857 6.92676C30.6581 6.64746 31.0806 6.50781 31.5533 6.50781ZM31.5533 7.4209C31.2668 7.4209 31.0108 7.52116 30.7852 7.72168C30.5596 7.9222 30.3859 8.20866 30.2642 8.58105C30.146 8.94987 30.087 9.38493 30.087 9.88623C30.087 10.384 30.146 10.819 30.2642 11.1914C30.3859 11.5638 30.5596 11.8503 30.7852 12.0508C31.0108 12.2477 31.2668 12.3462 31.5533 12.3462C31.8397 12.3462 32.0957 12.2477 32.3213 12.0508C32.5469 11.8503 32.7206 11.5638 32.8423 11.1914C32.9641 10.819 33.0249 10.384 33.0249 9.88623C33.0249 9.38493 32.9623 8.94987 32.837 8.58105C32.7152 8.20866 32.5433 7.9222 32.3213 7.72168C32.1029 7.52116 31.8469 7.4209 31.5533 7.4209ZM36.9727 15.4346H35.9576V5.78271H36.9727V15.4346ZM36.4034 10.23H33.6641V9.39746H36.4034V10.23Z" fill="#FEFEFE"/>
</svg>
